<svg width="518" height="327" viewBox="0 0 518 327" fill="none" xmlns="http://www.w3.org/2000/svg">
<path d="M483.251 0.833511C497.484 -2.8029 512.112 5.7827 514.31 20.3082C523.45 80.72 511.536 142.753 480.096 195.771C444.112 256.451 385.496 300.352 317.144 317.814C248.792 335.277 176.302 324.872 115.622 288.888C62.6042 257.447 22.396 208.73 1.43925 151.337C-3.59961 137.538 5.11741 122.988 19.351 119.352C33.5846 115.715 47.9162 124.393 53.2986 138.062C70.5266 181.815 101.884 218.89 142.758 243.129C191.302 271.916 249.294 280.24 303.975 266.27C358.657 252.3 405.55 217.18 434.337 168.635C458.576 127.761 468.307 80.1891 462.438 33.5347C460.604 18.9588 469.017 4.46992 483.251 0.833511Z" fill="url(#paint0_linear_3518_78011)"/>
<defs>
<linearGradient id="paint0_linear_3518_78011" x1="-14.6992" y1="60.0923" x2="517.301" y2="60.0923" gradientUnits="userSpaceOnUse">
<stop stop-color="#FF2E2E"/>
<stop offset="0.362773" stop-color="#EE7B16"/>
<stop offset="0.697515" stop-color="#8A43E1"/>
<stop offset="1" stop-color="#D510FC"/>
</linearGradient>
</defs>
</svg>
