<svg width="156" height="156" viewBox="0 0 156 156" fill="none" xmlns="http://www.w3.org/2000/svg">
<g filter="url(#filter0_d_3551_88039)">
<rect x="30" y="26" width="96" height="96" rx="20" fill="white"/>
<g clip-path="url(#clip0_3551_88039)">
<path d="M44.9317 65.0024H41.3633V83.0023H44.9317V65.0024Z" fill="#E6E7E8"/>
<path d="M58.509 70.8731C58.036 70.3412 57.4538 69.9177 56.8021 69.6315C56.1653 69.3556 55.4783 69.2145 54.7844 69.2171C54.016 69.2146 53.2581 69.3952 52.5734 69.7439C51.8758 70.1041 51.2835 70.6389 50.8542 71.2963V69.4243H47.4141V83.0024H50.8542V75.7866C50.8434 75.2391 50.9217 74.6934 51.086 74.171C51.2211 73.7532 51.4378 73.3664 51.7235 73.0331C51.9801 72.7392 52.2977 72.5048 52.6542 72.3464C53.0098 72.1935 53.3928 72.1146 53.7799 72.1146C54.167 72.1146 54.55 72.1935 54.9055 72.3464C55.2618 72.5053 55.5794 72.7395 55.8363 73.0331C56.1189 73.3672 56.3325 73.7539 56.4649 74.171C56.6293 74.6934 56.7075 75.2391 56.6967 75.7866V83.0024H60.1369V75.8902C60.1559 74.8942 60.0069 73.9022 59.6961 72.9558C59.4445 72.1888 59.0407 71.4804 58.509 70.8731Z" fill="#E6E7E8"/>
<path d="M65.9318 79.5113C65.7094 79.3216 65.5982 78.9511 65.5982 78.3997V65.675H62.1562V78.6578C62.1562 80.1797 62.5701 81.2832 63.3978 81.968C64.2255 82.6529 65.3289 82.9977 66.708 83.0024H69.6372V79.7957H67.1787C66.5722 79.7957 66.1566 79.7009 65.9318 79.5113Z" fill="#E6E7E8"/>
<path d="M66.2695 71.1313L69.6324 72.8909V68.9854L66.2695 70.7432V71.1313Z" fill="#E6E7E8"/>
<path d="M82.9621 70.8852C82.3249 70.2337 81.5644 69.7155 80.7249 69.361C79.8364 68.9846 78.88 68.7951 77.9151 68.8043C76.9767 68.796 76.0461 68.976 75.1783 69.3334C74.3106 69.6908 73.5233 70.2185 72.8628 70.8852C71.5436 72.2263 70.8093 74.0353 70.8205 75.9164C70.8132 76.8615 70.9978 77.7983 71.3632 78.67C71.7156 79.5088 72.2246 80.2728 72.8628 80.9213C73.8778 81.921 75.1652 82.5989 76.5638 82.87C77.9624 83.1412 79.4098 82.9935 80.7249 82.4456C81.5644 82.091 82.3249 81.5728 82.9621 80.9213C83.5938 80.27 84.0982 79.5065 84.4495 78.67C84.8148 77.7983 84.9995 76.8615 84.9921 75.9164C84.9987 74.9668 84.8142 74.0256 84.4495 73.1488C84.1005 72.3075 83.5959 71.5395 82.9621 70.8852ZM81.1779 77.3652C81.004 77.8009 80.7496 78.2001 80.4281 78.5418C80.1055 78.879 79.7209 79.1509 79.2954 79.3426C78.856 79.5383 78.3803 79.6394 77.8993 79.6394C77.4183 79.6394 76.9426 79.5383 76.5032 79.3426C76.0829 79.1526 75.7049 78.8803 75.3916 78.5418C74.7357 77.8255 74.375 76.8876 74.3819 75.9164C74.3788 75.4165 74.4712 74.9206 74.6541 74.4554C74.8241 74.0163 75.0742 73.6125 75.3916 73.2647C75.7049 72.9262 76.0829 72.6539 76.5032 72.464C76.9423 72.2672 77.4181 72.1654 77.8993 72.1654C78.3805 72.1654 78.8563 72.2672 79.2954 72.464C79.7184 72.6564 80.1005 72.9282 80.4211 73.2647C80.7447 73.6101 80.9992 74.0143 81.1709 74.4554C81.3538 74.9206 81.4462 75.4165 81.4431 75.9164C81.4489 76.4119 81.3588 76.9039 81.1779 77.3652Z" fill="#E6E7E8"/>
<path d="M88.5867 83.0025C89.4867 83.0025 90.2163 82.2728 90.2163 81.3728C90.2163 80.4728 89.4867 79.7432 88.5867 79.7432C87.6866 79.7432 86.957 80.4728 86.957 81.3728C86.957 82.2728 87.6866 83.0025 88.5867 83.0025Z" fill="#E6E7E8"/>
<path d="M44.9317 65.0024H41.3633V83.0023H44.9317V65.0024Z" fill="url(#paint0_linear_3551_88039)"/>
<path d="M58.509 70.8731C58.036 70.3412 57.4538 69.9177 56.8021 69.6315C56.1653 69.3556 55.4783 69.2145 54.7844 69.2171C54.016 69.2146 53.2581 69.3952 52.5734 69.7439C51.8758 70.1041 51.2835 70.6389 50.8542 71.2963V69.4243H47.4141V83.0024H50.8542V75.7866C50.8434 75.2391 50.9217 74.6934 51.086 74.171C51.2211 73.7532 51.4378 73.3664 51.7235 73.0331C51.9801 72.7392 52.2977 72.5048 52.6542 72.3464C53.0098 72.1935 53.3928 72.1146 53.7799 72.1146C54.167 72.1146 54.55 72.1935 54.9055 72.3464C55.2618 72.5053 55.5794 72.7395 55.8363 73.0331C56.1189 73.3672 56.3325 73.7539 56.4649 74.171C56.6293 74.6934 56.7075 75.2391 56.6967 75.7866V83.0024H60.1369V75.8902C60.1559 74.8942 60.0069 73.9022 59.6961 72.9558C59.4445 72.1888 59.0407 71.4804 58.509 70.8731Z" fill="url(#paint1_linear_3551_88039)"/>
<path d="M65.9318 79.5113C65.7094 79.3216 65.5982 78.9511 65.5982 78.3997V65.675H62.1562V78.6578C62.1562 80.1797 62.5701 81.2832 63.3978 81.968C64.2255 82.6529 65.3289 82.9977 66.708 83.0024H69.6372V79.7957H67.1787C66.5722 79.7957 66.1566 79.7009 65.9318 79.5113Z" fill="url(#paint2_linear_3551_88039)"/>
<path d="M66.2695 71.1313L69.6324 72.8909V68.9854L66.2695 70.7432V71.1313Z" fill="url(#paint3_linear_3551_88039)"/>
<path d="M82.9621 70.8852C82.3249 70.2337 81.5644 69.7155 80.7249 69.361C79.8364 68.9846 78.88 68.7951 77.9151 68.8043C76.9767 68.796 76.0461 68.976 75.1783 69.3334C74.3106 69.6908 73.5233 70.2185 72.8628 70.8852C71.5436 72.2263 70.8093 74.0353 70.8205 75.9164C70.8132 76.8615 70.9978 77.7983 71.3632 78.67C71.7156 79.5088 72.2246 80.2728 72.8628 80.9213C73.8778 81.921 75.1652 82.5989 76.5638 82.87C77.9624 83.1412 79.4098 82.9935 80.7249 82.4456C81.5644 82.091 82.3249 81.5728 82.9621 80.9213C83.5938 80.27 84.0982 79.5065 84.4495 78.67C84.8148 77.7983 84.9995 76.8615 84.9921 75.9164C84.9987 74.9668 84.8142 74.0256 84.4495 73.1488C84.1005 72.3075 83.5959 71.5395 82.9621 70.8852ZM81.1779 77.3652C81.004 77.8009 80.7496 78.2001 80.4281 78.5418C80.1055 78.879 79.7209 79.1509 79.2954 79.3426C78.856 79.5383 78.3803 79.6394 77.8993 79.6394C77.4183 79.6394 76.9426 79.5383 76.5032 79.3426C76.0829 79.1526 75.7049 78.8803 75.3916 78.5418C74.7357 77.8255 74.375 76.8876 74.3819 75.9164C74.3788 75.4165 74.4712 74.9206 74.6541 74.4554C74.8241 74.0163 75.0742 73.6125 75.3916 73.2647C75.7049 72.9262 76.0829 72.6539 76.5032 72.464C76.9423 72.2672 77.4181 72.1654 77.8993 72.1654C78.3805 72.1654 78.8563 72.2672 79.2954 72.464C79.7184 72.6564 80.1005 72.9282 80.4211 73.2647C80.7447 73.6101 80.9992 74.0143 81.1709 74.4554C81.3538 74.9206 81.4462 75.4165 81.4431 75.9164C81.4489 76.4119 81.3588 76.9039 81.1779 77.3652Z" fill="url(#paint4_linear_3551_88039)"/>
<path d="M88.5867 83.0025C89.4867 83.0025 90.2163 82.2728 90.2163 81.3728C90.2163 80.4728 89.4867 79.7432 88.5867 79.7432C87.6866 79.7432 86.957 80.4728 86.957 81.3728C86.957 82.2728 87.6866 83.0025 88.5867 83.0025Z" fill="url(#paint5_linear_3551_88039)"/>
<path d="M112.083 68.6481L114.621 67.6137V65.0024H111.066V83.0023H114.635V68.6481H112.083Z" fill="#E6E7E8"/>
<path d="M100.998 65.3643L92.1016 83.0024H95.4891L96.8079 80.4157H100.139V77.3899H98.3339L100.972 72.1392L103.585 77.3899H101.807V80.4157H105.111L106.377 83.0024H109.766L100.998 65.3643Z" fill="#231F20"/>
<path d="M112.083 68.6481L114.621 67.6137V65.0024H111.066V83.0023H114.635V68.6481H112.083Z" fill="url(#paint6_linear_3551_88039)"/>
<path d="M100.998 65.3643L92.1016 83.0024H95.4891L96.8079 80.4157H100.139V77.3899H98.3339L100.972 72.1392L103.585 77.3899H101.807V80.4157H105.111L106.377 83.0024H109.766L100.998 65.3643Z" fill="url(#paint7_linear_3551_88039)"/>
</g>
</g>
<defs>
<filter id="filter0_d_3551_88039" x="0" y="0" width="156" height="156" filterUnits="userSpaceOnUse" color-interpolation-filters="sRGB">
<feFlood flood-opacity="0" result="BackgroundImageFix"/>
<feColorMatrix in="SourceAlpha" type="matrix" values="0 0 0 0 0 0 0 0 0 0 0 0 0 0 0 0 0 0 127 0" result="hardAlpha"/>
<feOffset dy="4"/>
<feGaussianBlur stdDeviation="15"/>
<feComposite in2="hardAlpha" operator="out"/>
<feColorMatrix type="matrix" values="0 0 0 0 0.788462 0 0 0 0 0.788462 0 0 0 0 0.788462 0 0 0 1 0"/>
<feBlend mode="normal" in2="BackgroundImageFix" result="effect1_dropShadow_3551_88039"/>
<feBlend mode="normal" in="SourceGraphic" in2="effect1_dropShadow_3551_88039" result="shape"/>
</filter>
<linearGradient id="paint0_linear_3551_88039" x1="41.3633" y1="74.0024" x2="90.2176" y2="74.0024" gradientUnits="userSpaceOnUse">
<stop stop-color="#35A1DA"/>
<stop offset="0.52" stop-color="#D4549F"/>
<stop offset="1" stop-color="#F15A22"/>
</linearGradient>
<linearGradient id="paint1_linear_3551_88039" x1="41.3626" y1="74.0024" x2="90.2169" y2="74.0024" gradientUnits="userSpaceOnUse">
<stop stop-color="#35A1DA"/>
<stop offset="0.52" stop-color="#D4549F"/>
<stop offset="1" stop-color="#F15A22"/>
</linearGradient>
<linearGradient id="paint2_linear_3551_88039" x1="41.3642" y1="74.0024" x2="90.2185" y2="74.0024" gradientUnits="userSpaceOnUse">
<stop stop-color="#35A1DA"/>
<stop offset="0.52" stop-color="#D4549F"/>
<stop offset="1" stop-color="#F15A22"/>
</linearGradient>
<linearGradient id="paint3_linear_3551_88039" x1="41.3647" y1="74.0025" x2="90.219" y2="74.0025" gradientUnits="userSpaceOnUse">
<stop stop-color="#35A1DA"/>
<stop offset="0.52" stop-color="#D4549F"/>
<stop offset="1" stop-color="#F15A22"/>
</linearGradient>
<linearGradient id="paint4_linear_3551_88039" x1="41.3639" y1="74.0023" x2="90.2183" y2="74.0023" gradientUnits="userSpaceOnUse">
<stop stop-color="#35A1DA"/>
<stop offset="0.52" stop-color="#D4549F"/>
<stop offset="1" stop-color="#F15A22"/>
</linearGradient>
<linearGradient id="paint5_linear_3551_88039" x1="41.362" y1="74.0025" x2="90.2163" y2="74.0025" gradientUnits="userSpaceOnUse">
<stop stop-color="#35A1DA"/>
<stop offset="0.52" stop-color="#D4549F"/>
<stop offset="1" stop-color="#F15A22"/>
</linearGradient>
<linearGradient id="paint6_linear_3551_88039" x1="91.1278" y1="81.6027" x2="118.349" y2="69.4998" gradientUnits="userSpaceOnUse">
<stop stop-color="#3A4E9E"/>
<stop offset="0.65" stop-color="#D4549F"/>
<stop offset="1" stop-color="#BC368E"/>
</linearGradient>
<linearGradient id="paint7_linear_3551_88039" x1="91.1287" y1="81.6028" x2="118.35" y2="69.4998" gradientUnits="userSpaceOnUse">
<stop stop-color="#3A4E9E"/>
<stop offset="0.65" stop-color="#D4549F"/>
<stop offset="1" stop-color="#BC368E"/>
</linearGradient>
<clipPath id="clip0_3551_88039">
<rect width="79.7002" height="18" fill="white" transform="translate(38.1484 65.0024)"/>
</clipPath>
</defs>
</svg>
