<svg width="36" height="36" viewBox="0 0 36 36" fill="none" xmlns="http://www.w3.org/2000/svg">
<g clip-path="url(#clip0_2617_78623)">
<path fill-rule="evenodd" clip-rule="evenodd" d="M9.71961 23.358L12.6844 28.1026C13.1019 28.7708 12.8968 29.659 12.2286 30.0765C11.5605 30.494 10.6722 30.289 10.2547 29.6208L6.90409 24.2587C7.84293 23.9605 8.77815 23.648 9.71961 23.358ZM20.2135 5.06633C20.8831 4.86161 21.5984 5.24202 21.803 5.9115L27.1494 23.3986C27.3541 24.0681 26.9738 24.7834 26.3042 24.9881C25.6347 25.1928 24.9195 24.8126 24.7147 24.143L19.3684 6.65587C19.1637 5.98633 19.544 5.27104 20.2135 5.06633ZM11.2077 22.2383L9.23558 15.7879C7.50445 16.3913 5.72376 16.8463 3.97021 17.3824C2.25236 17.9076 1.27656 19.7428 1.83722 21.5765C2.39787 23.4102 4.23305 24.3859 5.95083 23.8608C7.70444 23.3246 9.43511 22.7061 11.2077 22.2383ZM29.3371 17.6141C29.1757 17.5287 29.1141 17.3286 29.1995 17.1672C29.2849 17.0058 29.4849 16.9442 29.6463 17.0296L32.7518 18.6808C32.9132 18.7662 32.9748 18.9663 32.8894 19.1277C32.804 19.2891 32.6039 19.3507 32.4425 19.2653L29.3371 17.6141ZM27.4352 9.79419L29.0864 6.68875C29.1718 6.52736 29.1102 6.32731 28.9488 6.24191C28.7874 6.15652 28.5874 6.21812 28.502 6.37951L26.8508 9.48495C26.7654 9.64635 26.827 9.84639 26.9884 9.93179C27.1498 10.0172 27.3498 9.95558 27.4352 9.79419ZM30.0051 13.3114C29.83 13.3649 29.6446 13.2662 29.5912 13.091C29.5379 12.9159 29.6365 12.7305 29.8117 12.6771L33.1751 11.6488C33.3503 11.5954 33.5357 11.6941 33.589 11.8692C33.6424 12.0444 33.5437 12.2298 33.3686 12.2831L30.0051 13.3114ZM9.86007 15.5619C14.6469 13.7632 17.7132 10.9281 19.2046 8.39173L23.6083 22.7953C20.9535 21.5267 16.826 20.8908 11.8517 22.0764L9.86007 15.5619ZM24.5039 12.4744L25.7186 16.4474L27.1527 15.5336C27.2804 15.4522 27.336 15.3012 27.2918 15.1565L26.53 12.6649C26.4857 12.5201 26.3551 12.4261 26.2038 12.43L24.5039 12.4744Z" fill="white"/>
</g>
<defs>
<clipPath id="clip0_2617_78623">
<rect width="34" height="34" fill="white" transform="translate(0 1.18652) rotate(-2)"/>
</clipPath>
</defs>
</svg>
