<svg width="60" height="60" viewBox="0 0 60 60" fill="none" xmlns="http://www.w3.org/2000/svg">
<rect x="0.535714" y="0.535714" width="58.9286" height="58.9286" rx="29.4643" fill="url(#paint0_linear_3619_115053)"/>
<rect x="0.535714" y="0.535714" width="58.9286" height="58.9286" rx="29.4643" stroke="url(#paint1_linear_3619_115053)" stroke-width="1.07143"/>
<path d="M37.5 30C37.5 31.4834 37.0601 32.9334 36.236 34.1668C35.4119 35.4001 34.2406 36.3614 32.8701 36.9291C31.4997 37.4968 29.9917 37.6453 28.5368 37.3559C27.082 37.0665 25.7456 36.3522 24.6967 35.3033C23.6478 34.2544 22.9335 32.918 22.6441 31.4632C22.3547 30.0083 22.5032 28.5003 23.0709 27.1299C23.6386 25.7594 24.5999 24.5881 25.8332 23.764C27.0666 22.9399 28.5166 22.5 30 22.5" stroke="white" stroke-width="2.25" stroke-linecap="round"/>
<path d="M33 15.3C32.03 15.102 31.03 15.002 30 15C21.7155 15 15 21.7155 15 30C15 38.2845 21.7155 45 30 45C38.2845 45 45 38.2845 45 30C44.998 28.97 44.898 27.97 44.7 27" stroke="white" stroke-width="2.25" stroke-linecap="round"/>
<path d="M30.0469 29.9429L36.8764 23.1134M41.6119 18.5174L40.7824 15.5354C40.7492 15.4218 40.6886 15.3182 40.6058 15.2336C40.523 15.149 40.4206 15.0861 40.3078 15.0506C40.1949 15.015 40.075 15.0077 39.9587 15.0295C39.8424 15.0513 39.7332 15.1014 39.6409 15.1754C37.4869 16.9349 35.1409 19.3064 37.0564 23.0459C40.9174 24.8459 43.1224 22.4189 44.8114 20.3774C44.8878 20.2834 44.9395 20.1718 44.962 20.0528C44.9844 19.9337 44.9768 19.8109 44.9399 19.6955C44.903 19.5801 44.8379 19.4758 44.7505 19.3919C44.6631 19.308 44.5562 19.2471 44.4394 19.2149L41.6119 18.5174Z" stroke="white" stroke-width="2.25" stroke-linecap="round" stroke-linejoin="round"/>
<defs>
<linearGradient id="paint0_linear_3619_115053" x1="30" y1="0" x2="30" y2="60" gradientUnits="userSpaceOnUse">
<stop stop-color="#FD78DC"/>
<stop offset="1" stop-color="#D3CCEB"/>
</linearGradient>
<linearGradient id="paint1_linear_3619_115053" x1="30" y1="0" x2="30" y2="60" gradientUnits="userSpaceOnUse">
<stop stop-color="#FD6BD8"/>
<stop offset="1" stop-color="white"/>
</linearGradient>
</defs>
</svg>
