<svg width="144" height="44" viewBox="0 0 144 44" fill="none" xmlns="http://www.w3.org/2000/svg">
<path d="M40.6875 28.1991L39.4214 27.781L40.6875 28.1991ZM142.132 33.6214L141.445 34.7638C141.972 35.081 142.648 34.9963 143.08 34.5589C143.513 34.1214 143.59 33.4448 143.267 32.9212L142.132 33.6214ZM136.411 5.39325C136.277 4.6692 135.581 4.19099 134.857 4.32515C134.133 4.4593 133.655 5.15502 133.789 5.87908L135.1 5.63617L136.411 5.39325ZM114.695 23.6065C113.967 23.721 113.47 24.4035 113.585 25.131C113.699 25.8584 114.382 26.3553 115.109 26.2408L114.902 24.9237L114.695 23.6065ZM56.6713 39.5793L57.4804 40.6391L56.6713 39.5793ZM39.0903 6.99225L39.035 5.66006L39.0903 6.99225ZM1.46209 34.2547L2.5515 35.0234L2.55151 35.0234L1.46209 34.2547ZM0.242629 33.6703C-0.181941 34.2719 -0.0383817 35.1038 0.563279 35.5284C1.16494 35.953 1.99686 35.8094 2.42143 35.2078L1.33203 34.439L0.242629 33.6703ZM40.6875 28.1991L41.9536 28.6171C43.9409 22.5987 48.3184 16.8753 54.4358 12.3313L53.6407 11.2609L52.8457 10.1906C46.3759 14.9963 41.6125 21.1454 39.4214 27.781L40.6875 28.1991ZM53.6407 11.2609L54.4358 12.3313C73.9398 -2.15619 110.897 -4.3973 141.079 34.4395L142.132 33.6214L143.185 32.8032C112.187 -7.0837 73.6081 -5.23159 52.8457 10.1906L53.6407 11.2609ZM135.1 5.63617L133.789 5.87908C134.712 10.8642 135.733 16.6919 136.894 21.8656C138.041 26.9762 139.373 31.6894 140.997 34.3215L142.132 33.6214L143.267 32.9212C141.914 30.7283 140.657 26.4545 139.496 21.2816C138.349 16.1719 137.342 10.4195 136.411 5.39325L135.1 5.63617ZM142.132 33.6214L142.819 32.4789C139.078 30.2277 130.644 21.096 114.695 23.6065L114.902 24.9237L115.109 26.2408C129.818 23.9256 137.069 32.1311 141.445 34.7638L142.132 33.6214ZM40.6875 28.1991L39.4214 27.781C35.7339 38.9483 48.1439 47.7671 57.4804 40.6391L56.6713 39.5793L55.8622 38.5195C48.6062 44.0592 39.0898 37.29 41.9536 28.6171L40.6875 28.1991ZM56.6713 39.5793L57.4804 40.6391C62.3502 36.9212 64.1336 31.1341 63.4384 25.4243C62.7448 19.7274 59.5856 14.0063 54.4345 10.1896L53.6407 11.2609L52.847 12.3323C57.4062 15.7104 60.1856 20.7714 60.7913 25.7466C61.3954 30.7088 59.8389 35.4835 55.8622 38.5195L56.6713 39.5793ZM53.6407 11.2609L54.4345 10.1896C50.4127 7.2097 45.1948 5.40465 39.035 5.66006L39.0903 6.99225L39.1455 8.32444C44.6964 8.09428 49.3149 9.71525 52.847 12.3323L53.6407 11.2609ZM39.0903 6.99225L39.035 5.66006C19.3526 6.47618 10.0993 19.7019 0.372683 33.486L1.46209 34.2547L2.55151 35.0234C12.3784 21.0974 20.9382 9.07939 39.1455 8.32444L39.0903 6.99225ZM1.46209 34.2547L0.372692 33.4859L0.242629 33.6703L1.33203 34.439L2.42143 35.2078L2.5515 35.0234L1.46209 34.2547Z" fill="url(#paint0_linear_3722_80312)"/>
<defs>
<linearGradient id="paint0_linear_3722_80312" x1="1.57479" y1="26.1616" x2="143.832" y2="25.2311" gradientUnits="userSpaceOnUse">
<stop stop-color="#35A1DA"/>
<stop offset="0.25" stop-color="#857BBD"/>
<stop offset="0.5" stop-color="#E8584B"/>
<stop offset="0.75" stop-color="#584F9E"/>
<stop offset="1" stop-color="#CE4C9B"/>
</linearGradient>
</defs>
</svg>
