<svg width="43" height="41" viewBox="0 0 43 41" fill="none" xmlns="http://www.w3.org/2000/svg">
<g filter="url(#filter0_d_3619_115007)">
<path d="M6.61187 14.6183L18.7352 18.0418C19.7467 18.3276 20.4635 19.219 20.5256 20.2682L21.2684 32.8438C21.4216 35.4384 24.96 36.0581 26.0277 33.6773L37.8351 7.34292C38.6651 5.49145 37.0598 3.49523 35.0733 3.90872L6.81903 9.79125C4.26434 10.3231 4.11031 13.9119 6.61187 14.6183Z" fill="black"/>
<path d="M6.35022 15.5455C2.83816 14.5537 3.12367 9.5772 6.62279 8.8487L34.8767 2.96615C37.6328 2.39246 39.8649 5.16816 38.7133 7.73694L26.9067 34.0717C25.4441 37.3324 20.5217 36.5433 20.3067 32.9004L19.5641 20.3255C19.5263 19.6856 19.0899 19.1429 18.473 18.9686L6.35022 15.5455Z" stroke="white" stroke-width="1.92596"/>
</g>
<defs>
<filter id="filter0_d_3619_115007" x="0.00167847" y="-6.10352e-05" width="42.8755" height="40.9395" filterUnits="userSpaceOnUse" color-interpolation-filters="sRGB">
<feFlood flood-opacity="0" result="BackgroundImageFix"/>
<feColorMatrix in="SourceAlpha" type="matrix" values="0 0 0 0 0 0 0 0 0 0 0 0 0 0 0 0 0 0 127 0" result="hardAlpha"/>
<feOffset dy="0.962982"/>
<feGaussianBlur stdDeviation="1.44447"/>
<feComposite in2="hardAlpha" operator="out"/>
<feColorMatrix type="matrix" values="0 0 0 0 0 0 0 0 0 0 0 0 0 0 0 0 0 0 0.29 0"/>
<feBlend mode="normal" in2="BackgroundImageFix" result="effect1_dropShadow_3619_115007"/>
<feBlend mode="normal" in="SourceGraphic" in2="effect1_dropShadow_3619_115007" result="shape"/>
</filter>
</defs>
</svg>
