<svg width="24" height="24" viewBox="0 0 24 24" fill="none" xmlns="http://www.w3.org/2000/svg">
<g clip-path="url(#clip0_4391_73266)">
<path d="M5.03253 7.05234C3.89159 7.05234 3.03125 5.68505 3.03125 3.87187C3.03125 2.0587 3.89159 0.691406 5.03253 0.691406C6.17347 0.691406 7.03381 2.0587 7.03381 3.87187C7.03381 5.68505 6.17347 7.05234 5.03253 7.05234ZM5.03253 5.70117C5.19439 5.70117 5.68264 5.05237 5.68264 3.87187C5.68264 2.69133 5.19434 2.04253 5.03253 2.04253C4.87067 2.04253 4.38242 2.69133 4.38242 3.87187C4.38242 5.05242 4.87072 5.70117 5.03253 5.70117Z" fill="url(#paint0_linear_4391_73266)"/>
<path d="M3.37517 2.04248H5.03248C4.87062 2.04248 4.38238 2.69128 4.38238 3.87182C4.38238 4.2359 4.42892 4.54921 4.49787 4.80871H3.11305C3.05989 4.51467 3.03125 4.20075 3.03125 3.87182C3.03125 3.1799 3.15683 2.55332 3.37517 2.04248Z" fill="url(#paint1_linear_4391_73266)"/>
<path d="M19.1224 7.05234C17.9814 7.05234 17.1211 5.68505 17.1211 3.87187C17.1211 2.0587 17.9814 0.691406 19.1224 0.691406C20.2633 0.691406 21.1237 2.0587 21.1237 3.87187C21.1237 5.68505 20.2633 7.05234 19.1224 7.05234ZM19.1224 5.70117C19.2842 5.70117 19.7725 5.05237 19.7725 3.87187C19.7725 2.69133 19.2842 2.04253 19.1224 2.04253C18.9606 2.04253 18.4723 2.69133 18.4723 3.87187C18.4723 5.05242 18.9606 5.70117 19.1224 5.70117Z" fill="url(#paint2_linear_4391_73266)"/>
<path d="M17.465 2.04248H19.1223C18.9605 2.04248 18.4722 2.69128 18.4722 3.87182C18.4722 4.2359 18.5188 4.54921 18.5877 4.80871H17.2029C17.1497 4.51467 17.1211 4.20075 17.1211 3.87182C17.1211 3.1799 17.2467 2.55332 17.465 2.04248Z" fill="url(#paint3_linear_4391_73266)"/>
<path d="M9.72784 7.05234C8.58691 7.05234 7.72656 5.68505 7.72656 3.87187C7.72656 2.0587 8.58691 0.691406 9.72784 0.691406C10.8688 0.691406 11.7291 2.0587 11.7291 3.87187C11.7291 5.68505 10.8688 7.05234 9.72784 7.05234ZM9.72784 5.70117C9.8897 5.70117 10.378 5.05237 10.378 3.87187C10.378 2.69133 9.88966 2.04253 9.72784 2.04253C9.56598 2.04253 9.07773 2.69133 9.07773 3.87187C9.07773 5.05242 9.56598 5.70117 9.72784 5.70117Z" fill="url(#paint4_linear_4391_73266)"/>
<path d="M8.07048 2.04248H9.7278C9.56594 2.04248 9.07769 2.69128 9.07769 3.87182C9.07769 4.2359 9.12423 4.54921 9.19319 4.80871H7.80836C7.7552 4.51467 7.72656 4.20075 7.72656 3.87182C7.72652 3.1799 7.85214 2.55332 8.07048 2.04248Z" fill="url(#paint5_linear_4391_73266)"/>
<path d="M14.4271 7.05234C13.2861 7.05234 12.4258 5.68505 12.4258 3.87187C12.4258 2.0587 13.2861 0.691406 14.4271 0.691406C15.568 0.691406 16.4283 2.0587 16.4283 3.87187C16.4283 5.68505 15.568 7.05234 14.4271 7.05234ZM14.4271 5.70117C14.5889 5.70117 15.0772 5.05237 15.0772 3.87187C15.0772 2.69133 14.5889 2.04253 14.4271 2.04253C14.2652 2.04253 13.777 2.69133 13.777 3.87187C13.7769 5.05242 14.2652 5.70117 14.4271 5.70117Z" fill="url(#paint6_linear_4391_73266)"/>
<path d="M12.7697 2.04248H14.427C14.2652 2.04248 13.7769 2.69128 13.7769 3.87182C13.7769 4.2359 13.8235 4.54921 13.8924 4.80871H12.5076C12.4544 4.51467 12.4258 4.20075 12.4258 3.87182C12.4258 3.1799 12.5514 2.55332 12.7697 2.04248Z" fill="url(#paint7_linear_4391_73266)"/>
<path d="M24 21.0688V5.55234C24 4.31545 22.9973 3.31274 21.7604 3.31274H2.23959C1.0027 3.31274 0 4.31545 0 5.55234V21.0688C0 22.3057 1.0027 23.3084 2.23959 23.3084H21.7604C22.9973 23.3084 24 22.3057 24 21.0688Z" fill="url(#paint8_linear_4391_73266)"/>
<path d="M0 21.0688V9.95435H24V21.0688C24 22.3057 22.9973 23.3084 21.7604 23.3084H2.23959C1.0027 23.3084 0 22.3057 0 21.0688Z" fill="url(#paint9_linear_4391_73266)"/>
<path d="M12.2969 3.31274H21.7614C22.9983 3.31274 24.001 4.31545 24.001 5.55234V21.0688C24.001 22.3057 22.9983 23.3084 21.7614 23.3084H12.2969V3.31274Z" fill="url(#paint10_linear_4391_73266)"/>
<path d="M22.4559 4.50952L1.76562 21.5636L3.51045 23.3084H21.7623C22.9992 23.3084 24.0019 22.3057 24.0019 21.0688V6.05551L22.4559 4.50952Z" fill="url(#paint11_linear_4391_73266)"/>
<path d="M22.9647 19.9986V5.82079C22.9647 4.69059 22.0485 3.77441 20.9183 3.77441H3.08153C1.95133 3.77441 1.03516 4.69059 1.03516 5.82079V19.9986C1.03516 21.1289 1.95133 22.045 3.08153 22.045H20.9183C22.0485 22.045 22.9647 21.1289 22.9647 19.9986Z" fill="url(#paint12_linear_4391_73266)"/>
<path d="M20.9192 22.045H19.2963L4.26172 7.01043L4.79267 6.47948C5.51009 5.76205 5.91317 4.78902 5.91317 3.77441H20.9192C22.0494 3.77441 22.9656 4.69059 22.9656 5.82079V19.9986C22.9656 21.1289 22.0494 22.045 20.9192 22.045Z" fill="url(#paint13_linear_4391_73266)"/>
<path d="M22.9642 5.82079V19.9986C22.9642 20.2967 22.9 20.5795 22.7854 20.8349L8.96094 7.01043L9.49189 6.47948C10.2093 5.76205 10.6124 4.78902 10.6124 3.77441H20.9178C22.048 3.77441 22.9642 4.69063 22.9642 5.82079Z" fill="url(#paint14_linear_4391_73266)"/>
<path d="M1.03516 19.9986V9.84302H22.9646V19.9986C22.9646 21.1288 22.0485 22.045 20.9183 22.045H3.08153C1.95137 22.045 1.03516 21.1288 1.03516 19.9986Z" fill="url(#paint15_linear_4391_73266)"/>
<path d="M12.2695 3.77441H20.9175C22.0477 3.77441 22.9639 4.69059 22.9639 5.82079V19.9986C22.9639 21.1289 22.0477 22.045 20.9175 22.045H12.2695V3.77441Z" fill="url(#paint16_linear_4391_73266)"/>
<path d="M22.9628 5.82079V16.3131L13.6602 7.01043L14.1911 6.47948C14.9085 5.76205 15.3116 4.78902 15.3116 3.77441H20.9164C22.0466 3.77441 22.9628 4.69063 22.9628 5.82079Z" fill="url(#paint17_linear_4391_73266)"/>
<path d="M22.9653 5.82079V11.6124L18.3633 7.01043L18.8942 6.47948C19.6117 5.76205 20.0147 4.78902 20.0147 3.77441H20.9189C22.0491 3.77441 22.9653 4.69063 22.9653 5.82079Z" fill="url(#paint18_linear_4391_73266)"/>
<path d="M5.03175 7.31959C5.64881 7.31959 6.14906 6.81934 6.14906 6.20227C6.14906 5.58521 5.64881 5.08496 5.03175 5.08496C4.88522 5.08496 4.74525 5.11318 4.617 5.16446L3.99609 6.62232C4.16213 7.03121 4.56328 7.31959 5.03175 7.31959Z" fill="url(#paint19_linear_4391_73266)"/>
<path d="M5.03119 7.05223C5.41598 7.05223 5.76891 6.89656 6.06778 6.62042C6.6547 6.07888 7.03247 5.07308 7.03247 3.87167C7.03247 3.83923 7.03195 3.8068 7.03139 3.77441C7.02759 3.56905 7.01302 3.36959 6.98817 3.17773H5.61975C5.65327 3.35661 5.67488 3.55606 5.67975 3.77441C5.68083 3.80628 5.68134 3.83872 5.68134 3.87167C5.68134 4.42241 5.57541 4.85694 5.4457 5.16444C5.29706 5.51628 5.11762 5.70111 5.03119 5.70111C4.9447 5.70111 4.76527 5.51628 4.61667 5.16444C4.20483 5.3293 3.91406 5.73139 3.91406 6.20211C3.91406 6.35075 3.94327 6.49231 3.99619 6.62206C4.29455 6.89713 4.64691 7.05223 5.03119 7.05223Z" fill="url(#paint20_linear_4391_73266)"/>
<path d="M5.03119 7.05223C5.41598 7.05223 5.76891 6.89656 6.06778 6.62042C6.6547 6.07888 7.03247 5.07308 7.03247 3.87167C7.03247 3.83923 7.03195 3.8068 7.03139 3.77441C7.02759 3.56905 7.01302 3.36959 6.98817 3.17773H5.61975C5.65327 3.35661 5.67488 3.55606 5.67975 3.77441C5.68083 3.80628 5.68134 3.83872 5.68134 3.87167C5.68134 4.42241 5.57541 4.85694 5.4457 5.16444C5.29706 5.51628 5.11762 5.70111 5.03119 5.70111C4.9447 5.70111 4.76527 5.51628 4.61667 5.16444C4.20483 5.3293 3.91406 5.73139 3.91406 6.20211C3.91406 6.35075 3.94327 6.49231 3.99619 6.62206C4.29455 6.89713 4.64691 7.05223 5.03119 7.05223Z" fill="url(#paint21_linear_4391_73266)"/>
<path d="M5.03119 7.05223C5.41598 7.05223 5.76891 6.89656 6.06778 6.62042C6.6547 6.07888 7.03247 5.07308 7.03247 3.87167C7.03247 3.83923 7.03195 3.8068 7.03139 3.77441C7.02759 3.56905 7.01302 3.36959 6.98817 3.17773H5.61975C5.65327 3.35661 5.67488 3.55606 5.67975 3.77441C5.68083 3.80628 5.68134 3.83872 5.68134 3.87167C5.68134 4.42241 5.57541 4.85694 5.4457 5.16444C5.29706 5.51628 5.11762 5.70111 5.03119 5.70111C4.9447 5.70111 4.76527 5.51628 4.61667 5.16444C4.20483 5.3293 3.91406 5.73139 3.91406 6.20211C3.91406 6.35075 3.94327 6.49231 3.99619 6.62206C4.29455 6.89713 4.64691 7.05223 5.03119 7.05223Z" fill="url(#paint22_linear_4391_73266)"/>
<path d="M5.07422 5.69022C5.26453 5.60246 5.6835 4.96557 5.6835 3.87179C5.6835 2.77801 5.26453 2.14112 5.07422 2.05337V0.692871C6.19467 0.725215 7.03467 2.08046 7.03467 3.87179C7.03467 5.66312 6.19467 7.01837 5.07422 7.05071V5.69022Z" fill="url(#paint23_linear_4391_73266)"/>
<path d="M9.73097 7.31959C10.348 7.31959 10.8483 6.81934 10.8483 6.20227C10.8483 5.58521 10.348 5.08496 9.73097 5.08496C9.58444 5.08496 9.44447 5.11318 9.31622 5.16446L8.69531 6.62232C8.86134 7.03121 9.2625 7.31959 9.73097 7.31959Z" fill="url(#paint24_linear_4391_73266)"/>
<path d="M9.73041 7.05223C10.1152 7.05223 10.4681 6.89656 10.767 6.62042C11.3539 6.07888 11.7317 5.07308 11.7317 3.87167C11.7317 3.83923 11.7312 3.8068 11.7306 3.77441C11.7268 3.56905 11.7122 3.36959 11.6874 3.17773H10.319C10.3525 3.35661 10.3741 3.55606 10.379 3.77441C10.38 3.80628 10.3806 3.83872 10.3806 3.87167C10.3806 4.42241 10.2746 4.85694 10.1449 5.16444C9.99628 5.51628 9.81684 5.70111 9.73041 5.70111C9.64392 5.70111 9.46448 5.51628 9.31589 5.16444C8.90405 5.3293 8.61328 5.73139 8.61328 6.20211C8.61328 6.35075 8.64248 6.49231 8.69541 6.62206C8.99377 6.89713 9.34617 7.05223 9.73041 7.05223Z" fill="url(#paint25_linear_4391_73266)"/>
<path d="M9.73041 7.05223C10.1152 7.05223 10.4681 6.89656 10.767 6.62042C11.3539 6.07888 11.7317 5.07308 11.7317 3.87167C11.7317 3.83923 11.7312 3.8068 11.7306 3.77441C11.7268 3.56905 11.7122 3.36959 11.6874 3.17773H10.319C10.3525 3.35661 10.3741 3.55606 10.379 3.77441C10.38 3.80628 10.3806 3.83872 10.3806 3.87167C10.3806 4.42241 10.2746 4.85694 10.1449 5.16444C9.99628 5.51628 9.81684 5.70111 9.73041 5.70111C9.64392 5.70111 9.46448 5.51628 9.31589 5.16444C8.90405 5.3293 8.61328 5.73139 8.61328 6.20211C8.61328 6.35075 8.64248 6.49231 8.69541 6.62206C8.99377 6.89713 9.34617 7.05223 9.73041 7.05223Z" fill="url(#paint26_linear_4391_73266)"/>
<path d="M9.73041 7.05223C10.1152 7.05223 10.4681 6.89656 10.767 6.62042C11.3539 6.07888 11.7317 5.07308 11.7317 3.87167C11.7317 3.83923 11.7312 3.8068 11.7306 3.77441C11.7268 3.56905 11.7122 3.36959 11.6874 3.17773H10.319C10.3525 3.35661 10.3741 3.55606 10.379 3.77441C10.38 3.80628 10.3806 3.83872 10.3806 3.87167C10.3806 4.42241 10.2746 4.85694 10.1449 5.16444C9.99628 5.51628 9.81684 5.70111 9.73041 5.70111C9.64392 5.70111 9.46448 5.51628 9.31589 5.16444C8.90405 5.3293 8.61328 5.73139 8.61328 6.20211C8.61328 6.35075 8.64248 6.49231 8.69541 6.62206C8.99377 6.89713 9.34617 7.05223 9.73041 7.05223Z" fill="url(#paint27_linear_4391_73266)"/>
<path d="M9.76953 5.69022C9.95984 5.60246 10.3789 4.96557 10.3789 3.87179C10.3789 2.77801 9.95989 2.14112 9.76953 2.05337V0.692871C10.89 0.725215 11.73 2.08046 11.73 3.87179C11.73 5.66312 10.89 7.01837 9.76953 7.05071V5.69022Z" fill="url(#paint28_linear_4391_73266)"/>
<path d="M14.4263 7.31959C15.0433 7.31959 15.5436 6.81934 15.5436 6.20227C15.5436 5.58521 15.0433 5.08496 14.4263 5.08496C14.2798 5.08496 14.1398 5.11318 14.0115 5.16446L13.3906 6.62232C13.5567 7.03121 13.9578 7.31959 14.4263 7.31959Z" fill="url(#paint29_linear_4391_73266)"/>
<path d="M14.4257 7.05223C14.8105 7.05223 15.1634 6.89656 15.4623 6.62042C16.0492 6.07888 16.427 5.07308 16.427 3.87167C16.427 3.83923 16.4265 3.8068 16.4259 3.77441C16.4221 3.56905 16.4075 3.36959 16.3827 3.17773H15.0143C15.0478 3.35661 15.0694 3.55606 15.0743 3.77441C15.0754 3.80628 15.0759 3.83872 15.0759 3.87167C15.0759 4.42241 14.9699 4.85694 14.8402 5.16444C14.6916 5.51628 14.5122 5.70111 14.4257 5.70111C14.3392 5.70111 14.1598 5.51628 14.0112 5.16444C13.5994 5.3293 13.3086 5.73139 13.3086 6.20211C13.3086 6.35075 13.3377 6.49231 13.3907 6.62206C13.6891 6.89713 14.0414 7.05223 14.4257 7.05223Z" fill="url(#paint30_linear_4391_73266)"/>
<path d="M14.4257 7.05223C14.8105 7.05223 15.1634 6.89656 15.4623 6.62042C16.0492 6.07888 16.427 5.07308 16.427 3.87167C16.427 3.83923 16.4265 3.8068 16.4259 3.77441C16.4221 3.56905 16.4075 3.36959 16.3827 3.17773H15.0143C15.0478 3.35661 15.0694 3.55606 15.0743 3.77441C15.0754 3.80628 15.0759 3.83872 15.0759 3.87167C15.0759 4.42241 14.9699 4.85694 14.8402 5.16444C14.6916 5.51628 14.5122 5.70111 14.4257 5.70111C14.3392 5.70111 14.1598 5.51628 14.0112 5.16444C13.5994 5.3293 13.3086 5.73139 13.3086 6.20211C13.3086 6.35075 13.3377 6.49231 13.3907 6.62206C13.6891 6.89713 14.0414 7.05223 14.4257 7.05223Z" fill="url(#paint31_linear_4391_73266)"/>
<path d="M14.4257 7.05223C14.8105 7.05223 15.1634 6.89656 15.4623 6.62042C16.0492 6.07888 16.427 5.07308 16.427 3.87167C16.427 3.83923 16.4265 3.8068 16.4259 3.77441C16.4221 3.56905 16.4075 3.36959 16.3827 3.17773H15.0143C15.0478 3.35661 15.0694 3.55606 15.0743 3.77441C15.0754 3.80628 15.0759 3.83872 15.0759 3.87167C15.0759 4.42241 14.9699 4.85694 14.8402 5.16444C14.6916 5.51628 14.5122 5.70111 14.4257 5.70111C14.3392 5.70111 14.1598 5.51628 14.0112 5.16444C13.5994 5.3293 13.3086 5.73139 13.3086 6.20211C13.3086 6.35075 13.3377 6.49231 13.3907 6.62206C13.6891 6.89713 14.0414 7.05223 14.4257 7.05223Z" fill="url(#paint32_linear_4391_73266)"/>
<path d="M14.4648 5.69022C14.6552 5.60246 15.0742 4.96557 15.0742 3.87179C15.0742 2.77801 14.6552 2.14112 14.4648 2.05337V0.692871C15.5853 0.725215 16.4253 2.08046 16.4253 3.87179C16.4253 5.66312 15.5853 7.01837 14.4648 7.05071V5.69022Z" fill="url(#paint33_linear_4391_73266)"/>
<path d="M19.1216 7.31959C19.7387 7.31959 20.2389 6.81934 20.2389 6.20227C20.2389 5.58521 19.7387 5.08496 19.1216 5.08496C18.9751 5.08496 18.8351 5.11318 18.7068 5.16446L18.0859 6.62232C18.252 7.03121 18.6531 7.31959 19.1216 7.31959Z" fill="url(#paint34_linear_4391_73266)"/>
<path d="M19.121 7.05223C19.5058 7.05223 19.8588 6.89656 20.1576 6.62042C20.7445 6.07888 21.1223 5.07308 21.1223 3.87167C21.1223 3.83923 21.1218 3.8068 21.1212 3.77441C21.1174 3.56905 21.1029 3.36959 21.078 3.17773H19.7096C19.7431 3.35661 19.7647 3.55606 19.7696 3.77441C19.7707 3.80628 19.7712 3.83872 19.7712 3.87167C19.7712 4.42241 19.6653 4.85694 19.5355 5.16444C19.3869 5.51628 19.2075 5.70111 19.121 5.70111C19.0345 5.70111 18.8551 5.51628 18.7065 5.16444C18.2947 5.3293 18.0039 5.73139 18.0039 6.20211C18.0039 6.35075 18.0331 6.49231 18.086 6.62206C18.3844 6.89713 18.7368 7.05223 19.121 7.05223Z" fill="url(#paint35_linear_4391_73266)"/>
<path d="M19.121 7.05223C19.5058 7.05223 19.8588 6.89656 20.1576 6.62042C20.7445 6.07888 21.1223 5.07308 21.1223 3.87167C21.1223 3.83923 21.1218 3.8068 21.1212 3.77441C21.1174 3.56905 21.1029 3.36959 21.078 3.17773H19.7096C19.7431 3.35661 19.7647 3.55606 19.7696 3.77441C19.7707 3.80628 19.7712 3.83872 19.7712 3.87167C19.7712 4.42241 19.6653 4.85694 19.5355 5.16444C19.3869 5.51628 19.2075 5.70111 19.121 5.70111C19.0345 5.70111 18.8551 5.51628 18.7065 5.16444C18.2947 5.3293 18.0039 5.73139 18.0039 6.20211C18.0039 6.35075 18.0331 6.49231 18.086 6.62206C18.3844 6.89713 18.7368 7.05223 19.121 7.05223Z" fill="url(#paint36_linear_4391_73266)"/>
<path d="M19.121 7.05223C19.5058 7.05223 19.8588 6.89656 20.1576 6.62042C20.7445 6.07888 21.1223 5.07308 21.1223 3.87167C21.1223 3.83923 21.1218 3.8068 21.1212 3.77441C21.1174 3.56905 21.1029 3.36959 21.078 3.17773H19.7096C19.7431 3.35661 19.7647 3.55606 19.7696 3.77441C19.7707 3.80628 19.7712 3.83872 19.7712 3.87167C19.7712 4.42241 19.6653 4.85694 19.5355 5.16444C19.3869 5.51628 19.2075 5.70111 19.121 5.70111C19.0345 5.70111 18.8551 5.51628 18.7065 5.16444C18.2947 5.3293 18.0039 5.73139 18.0039 6.20211C18.0039 6.35075 18.0331 6.49231 18.086 6.62206C18.3844 6.89713 18.7368 7.05223 19.121 7.05223Z" fill="url(#paint37_linear_4391_73266)"/>
<path d="M19.1641 5.69022C19.3544 5.60246 19.7734 4.96557 19.7734 3.87179C19.7734 2.77801 19.3544 2.14112 19.1641 2.05337V0.692871C20.2845 0.725215 21.1245 2.08046 21.1245 3.87179C21.1245 5.66312 20.2845 7.01837 19.1641 7.05071V5.69022Z" fill="url(#paint38_linear_4391_73266)"/>
<path d="M5.5618 11.9561H3.15978C2.67458 11.9561 2.28125 11.5627 2.28125 11.0775V10.1703C2.28125 9.68508 2.67458 9.29175 3.15978 9.29175H5.5618C6.047 9.29175 6.44033 9.68508 6.44033 10.1703V11.0775C6.44033 11.5627 6.047 11.9561 5.5618 11.9561Z" fill="url(#paint39_linear_4391_73266)"/>
<path d="M5.56317 9.29175H3.375V11.956H5.56317C6.04837 11.956 6.4417 11.5627 6.4417 11.0775V10.1702C6.4417 9.68508 6.04837 9.29175 5.56317 9.29175Z" fill="url(#paint40_linear_4391_73266)"/>
<path d="M2.28125 10.283V11.0776C2.28125 11.5628 2.67458 11.9562 3.15978 11.9562H5.5618C6.047 11.9562 6.44033 11.5628 6.44033 11.0776V10.283H2.28125Z" fill="url(#paint41_linear_4391_73266)"/>
<path d="M10.6555 11.9561H8.25353C7.76833 11.9561 7.375 11.5627 7.375 11.0775V10.1703C7.375 9.68508 7.76833 9.29175 8.25353 9.29175H10.6555C11.1408 9.29175 11.5341 9.68508 11.5341 10.1703V11.0775C11.5341 11.5627 11.1408 11.9561 10.6555 11.9561Z" fill="url(#paint42_linear_4391_73266)"/>
<path d="M10.6569 9.29175H8.46875V11.956H10.6569C11.1421 11.956 11.5355 11.5627 11.5355 11.0775V10.1702C11.5355 9.68508 11.1421 9.29175 10.6569 9.29175Z" fill="url(#paint43_linear_4391_73266)"/>
<path d="M7.375 10.283V11.0776C7.375 11.5628 7.76833 11.9562 8.25353 11.9562H10.6555C11.1408 11.9562 11.5341 11.5628 11.5341 11.0776V10.283H7.375Z" fill="url(#paint44_linear_4391_73266)"/>
<path d="M15.7493 11.9561H13.3473C12.8621 11.9561 12.4688 11.5627 12.4688 11.0775V10.1703C12.4688 9.68508 12.8621 9.29175 13.3473 9.29175H15.7493C16.2345 9.29175 16.6278 9.68508 16.6278 10.1703V11.0775C16.6278 11.5627 16.2345 11.9561 15.7493 11.9561Z" fill="url(#paint45_linear_4391_73266)"/>
<path d="M15.7507 9.29175H13.5625V11.956H15.7507C16.2359 11.956 16.6292 11.5627 16.6292 11.0775V10.1702C16.6292 9.68508 16.2359 9.29175 15.7507 9.29175Z" fill="url(#paint46_linear_4391_73266)"/>
<path d="M12.4688 10.283V11.0776C12.4688 11.5628 12.8621 11.9562 13.3473 11.9562H15.7493C16.2345 11.9562 16.6278 11.5628 16.6278 11.0776V10.283H12.4688Z" fill="url(#paint47_linear_4391_73266)"/>
<path d="M20.8391 11.9561H18.4371C17.9519 11.9561 17.5586 11.5627 17.5586 11.0775V10.1703C17.5586 9.68508 17.9519 9.29175 18.4371 9.29175H20.8391C21.3243 9.29175 21.7177 9.68508 21.7177 10.1703V11.0775C21.7177 11.5627 21.3243 11.9561 20.8391 11.9561Z" fill="url(#paint48_linear_4391_73266)"/>
<path d="M20.8405 9.29175H18.6523V11.956H20.8405C21.3257 11.956 21.719 11.5627 21.719 11.0775V10.1702C21.719 9.68508 21.3257 9.29175 20.8405 9.29175Z" fill="url(#paint49_linear_4391_73266)"/>
<path d="M17.5586 10.283V11.0776C17.5586 11.5628 17.9519 11.9562 18.4371 11.9562H20.8391C21.3243 11.9562 21.7177 11.5628 21.7177 11.0776V10.283H17.5586Z" fill="url(#paint50_linear_4391_73266)"/>
<path d="M5.5618 15.8426H3.15978C2.67458 15.8426 2.28125 15.4492 2.28125 14.964V14.0568C2.28125 13.5716 2.67458 13.1782 3.15978 13.1782H5.5618C6.047 13.1782 6.44033 13.5716 6.44033 14.0568V14.964C6.44033 15.4492 6.047 15.8426 5.5618 15.8426Z" fill="url(#paint51_linear_4391_73266)"/>
<path d="M5.56317 13.1782H3.375V15.8425H5.56317C6.04837 15.8425 6.4417 15.4492 6.4417 14.964V14.0567C6.4417 13.5716 6.04837 13.1782 5.56317 13.1782Z" fill="url(#paint52_linear_4391_73266)"/>
<path d="M2.28125 14.1694V14.9641C2.28125 15.4493 2.67458 15.8426 3.15978 15.8426H5.5618C6.047 15.8426 6.44033 15.4493 6.44033 14.9641V14.1694H2.28125Z" fill="url(#paint53_linear_4391_73266)"/>
<path d="M10.6555 15.8426H8.25353C7.76833 15.8426 7.375 15.4492 7.375 14.964V14.0568C7.375 13.5716 7.76833 13.1782 8.25353 13.1782H10.6555C11.1408 13.1782 11.5341 13.5716 11.5341 14.0568V14.964C11.5341 15.4492 11.1408 15.8426 10.6555 15.8426Z" fill="url(#paint54_linear_4391_73266)"/>
<path d="M10.6569 13.1782H8.46875V15.8425H10.6569C11.1421 15.8425 11.5355 15.4492 11.5355 14.964V14.0567C11.5355 13.5716 11.1421 13.1782 10.6569 13.1782Z" fill="url(#paint55_linear_4391_73266)"/>
<path d="M7.375 14.1694V14.9641C7.375 15.4493 7.76833 15.8426 8.25353 15.8426H10.6555C11.1408 15.8426 11.5341 15.4493 11.5341 14.9641V14.1694H7.375Z" fill="url(#paint56_linear_4391_73266)"/>
<path d="M15.7493 15.8426H13.3473C12.8621 15.8426 12.4688 15.4492 12.4688 14.964V14.0568C12.4688 13.5716 12.8621 13.1782 13.3473 13.1782H15.7493C16.2345 13.1782 16.6278 13.5716 16.6278 14.0568V14.964C16.6278 15.4492 16.2345 15.8426 15.7493 15.8426Z" fill="url(#paint57_linear_4391_73266)"/>
<path d="M15.7507 13.1782H13.5625V15.8425H15.7507C16.2359 15.8425 16.6292 15.4492 16.6292 14.964V14.0567C16.6292 13.5716 16.2359 13.1782 15.7507 13.1782Z" fill="url(#paint58_linear_4391_73266)"/>
<path d="M12.4688 14.1694V14.9641C12.4688 15.4493 12.8621 15.8426 13.3473 15.8426H15.7493C16.2345 15.8426 16.6278 15.4493 16.6278 14.9641V14.1694H12.4688Z" fill="url(#paint59_linear_4391_73266)"/>
<path d="M20.8391 15.8426H18.4371C17.9519 15.8426 17.5586 15.4492 17.5586 14.964V14.0568C17.5586 13.5716 17.9519 13.1782 18.4371 13.1782H20.8391C21.3243 13.1782 21.7177 13.5716 21.7177 14.0568V14.964C21.7177 15.4492 21.3243 15.8426 20.8391 15.8426Z" fill="url(#paint60_linear_4391_73266)"/>
<path d="M20.8405 13.1782H18.6523V15.8425H20.8405C21.3257 15.8425 21.719 15.4492 21.719 14.964V14.0567C21.719 13.5716 21.3257 13.1782 20.8405 13.1782Z" fill="url(#paint61_linear_4391_73266)"/>
<path d="M17.5586 14.1694V14.9641C17.5586 15.4493 17.9519 15.8426 18.4371 15.8426H20.8391C21.3243 15.8426 21.7177 15.4493 21.7177 14.9641V14.1694H17.5586Z" fill="url(#paint62_linear_4391_73266)"/>
<path d="M5.5618 19.7293H3.15978C2.67458 19.7293 2.28125 19.3359 2.28125 18.8507V17.9435C2.28125 17.4583 2.67458 17.0649 3.15978 17.0649H5.5618C6.047 17.0649 6.44033 17.4583 6.44033 17.9435V18.8507C6.44033 19.3359 6.047 19.7293 5.5618 19.7293Z" fill="url(#paint63_linear_4391_73266)"/>
<path d="M5.56317 17.0649H3.375V19.7292H5.56317C6.04837 19.7292 6.4417 19.3359 6.4417 18.8507V17.9434C6.4417 17.4583 6.04837 17.0649 5.56317 17.0649Z" fill="url(#paint64_linear_4391_73266)"/>
<path d="M2.28125 18.0562V18.8508C2.28125 19.336 2.67458 19.7294 3.15978 19.7294H5.5618C6.047 19.7294 6.44033 19.336 6.44033 18.8508V18.0562H2.28125Z" fill="url(#paint65_linear_4391_73266)"/>
<path d="M10.6555 19.7293H8.25353C7.76833 19.7293 7.375 19.3359 7.375 18.8507V17.9435C7.375 17.4583 7.76833 17.0649 8.25353 17.0649H10.6555C11.1408 17.0649 11.5341 17.4583 11.5341 17.9435V18.8507C11.5341 19.3359 11.1408 19.7293 10.6555 19.7293Z" fill="url(#paint66_linear_4391_73266)"/>
<path d="M10.6569 17.0649H8.46875V19.7292H10.6569C11.1421 19.7292 11.5355 19.3359 11.5355 18.8507V17.9434C11.5355 17.4583 11.1421 17.0649 10.6569 17.0649Z" fill="url(#paint67_linear_4391_73266)"/>
<path d="M7.375 18.0562V18.8508C7.375 19.336 7.76833 19.7294 8.25353 19.7294H10.6555C11.1408 19.7294 11.5341 19.336 11.5341 18.8508V18.0562H7.375Z" fill="url(#paint68_linear_4391_73266)"/>
<path d="M15.7493 19.7293H13.3473C12.8621 19.7293 12.4688 19.3359 12.4688 18.8507V17.9435C12.4688 17.4583 12.8621 17.0649 13.3473 17.0649H15.7493C16.2345 17.0649 16.6278 17.4583 16.6278 17.9435V18.8507C16.6278 19.3359 16.2345 19.7293 15.7493 19.7293Z" fill="url(#paint69_linear_4391_73266)"/>
<path d="M15.7507 17.0649H13.5625V19.7292H15.7507C16.2359 19.7292 16.6292 19.3359 16.6292 18.8507V17.9434C16.6292 17.4583 16.2359 17.0649 15.7507 17.0649Z" fill="url(#paint70_linear_4391_73266)"/>
<path d="M12.4688 18.0562V18.8508C12.4688 19.336 12.8621 19.7294 13.3473 19.7294H15.7493C16.2345 19.7294 16.6278 19.336 16.6278 18.8508V18.0562H12.4688Z" fill="url(#paint71_linear_4391_73266)"/>
<path d="M20.8391 19.7293H18.4371C17.9519 19.7293 17.5586 19.3359 17.5586 18.8507V17.9435C17.5586 17.4583 17.9519 17.0649 18.4371 17.0649H20.8391C21.3243 17.0649 21.7177 17.4583 21.7177 17.9435V18.8507C21.7177 19.3359 21.3243 19.7293 20.8391 19.7293Z" fill="url(#paint72_linear_4391_73266)"/>
<path d="M20.8405 17.0649H18.6523V19.7292H20.8405C21.3257 19.7292 21.719 19.3359 21.719 18.8507V17.9434C21.719 17.4583 21.3257 17.0649 20.8405 17.0649Z" fill="url(#paint73_linear_4391_73266)"/>
<path d="M17.5586 18.0562V18.8508C17.5586 19.336 17.9519 19.7294 18.4371 19.7294H20.8391C21.3243 19.7294 21.7177 19.336 21.7177 18.8508V18.0562H17.5586Z" fill="url(#paint74_linear_4391_73266)"/>
</g>
<defs>
<linearGradient id="paint0_linear_4391_73266" x1="3.58241" y1="2.62214" x2="5.95184" y2="4.66411" gradientUnits="userSpaceOnUse">
<stop stop-color="#FEF0AE"/>
<stop offset="1" stop-color="#FAC600"/>
</linearGradient>
<linearGradient id="paint1_linear_4391_73266" x1="4.03189" y1="2.57414" x2="4.03189" y2="3.74386" gradientUnits="userSpaceOnUse">
<stop stop-color="#FE9738" stop-opacity="0"/>
<stop offset="1" stop-color="#FE9738"/>
</linearGradient>
<linearGradient id="paint2_linear_4391_73266" x1="17.6722" y1="2.62214" x2="20.0417" y2="4.66411" gradientUnits="userSpaceOnUse">
<stop stop-color="#FEF0AE"/>
<stop offset="1" stop-color="#FAC600"/>
</linearGradient>
<linearGradient id="paint3_linear_4391_73266" x1="18.1217" y1="2.57414" x2="18.1217" y2="3.74386" gradientUnits="userSpaceOnUse">
<stop stop-color="#FE9738" stop-opacity="0"/>
<stop offset="1" stop-color="#FE9738"/>
</linearGradient>
<linearGradient id="paint4_linear_4391_73266" x1="8.27767" y1="2.62214" x2="10.6471" y2="4.66411" gradientUnits="userSpaceOnUse">
<stop stop-color="#FEF0AE"/>
<stop offset="1" stop-color="#FAC600"/>
</linearGradient>
<linearGradient id="paint5_linear_4391_73266" x1="8.72716" y1="2.57414" x2="8.72716" y2="3.74386" gradientUnits="userSpaceOnUse">
<stop stop-color="#FE9738" stop-opacity="0"/>
<stop offset="1" stop-color="#FE9738"/>
</linearGradient>
<linearGradient id="paint6_linear_4391_73266" x1="12.9769" y1="2.62214" x2="15.3463" y2="4.66411" gradientUnits="userSpaceOnUse">
<stop stop-color="#FEF0AE"/>
<stop offset="1" stop-color="#FAC600"/>
</linearGradient>
<linearGradient id="paint7_linear_4391_73266" x1="13.4264" y1="2.57414" x2="13.4264" y2="3.74386" gradientUnits="userSpaceOnUse">
<stop stop-color="#FE9738" stop-opacity="0"/>
<stop offset="1" stop-color="#FE9738"/>
</linearGradient>
<linearGradient id="paint8_linear_4391_73266" x1="6.31242" y1="7.62299" x2="22.0563" y2="23.3669" gradientUnits="userSpaceOnUse">
<stop stop-color="#B3DAFE"/>
<stop offset="1" stop-color="#0182FC"/>
</linearGradient>
<linearGradient id="paint9_linear_4391_73266" x1="12" y1="18.8933" x2="12" y2="23.7186" gradientUnits="userSpaceOnUse">
<stop stop-color="#314DC9" stop-opacity="0"/>
<stop offset="0.2761" stop-color="#304BC4" stop-opacity="0.276"/>
<stop offset="0.5628" stop-color="#2B45B8" stop-opacity="0.563"/>
<stop offset="0.8535" stop-color="#243BA3" stop-opacity="0.854"/>
<stop offset="1" stop-color="#1F3596"/>
</linearGradient>
<linearGradient id="paint10_linear_4391_73266" x1="20.342" y1="13.3106" x2="24.1518" y2="13.3106" gradientUnits="userSpaceOnUse">
<stop stop-color="#314DC9" stop-opacity="0"/>
<stop offset="0.2761" stop-color="#304BC4" stop-opacity="0.276"/>
<stop offset="0.5628" stop-color="#2B45B8" stop-opacity="0.563"/>
<stop offset="0.8535" stop-color="#243BA3" stop-opacity="0.854"/>
<stop offset="1" stop-color="#1F3596"/>
</linearGradient>
<linearGradient id="paint11_linear_4391_73266" x1="17.1282" y1="19.9741" x2="11.5144" y2="11.8207" gradientUnits="userSpaceOnUse">
<stop stop-color="#314DC9" stop-opacity="0"/>
<stop offset="0.2761" stop-color="#304BC4" stop-opacity="0.276"/>
<stop offset="0.5628" stop-color="#2B45B8" stop-opacity="0.563"/>
<stop offset="0.8535" stop-color="#243BA3" stop-opacity="0.854"/>
<stop offset="1" stop-color="#1F3596"/>
</linearGradient>
<linearGradient id="paint12_linear_4391_73266" x1="6.80298" y1="7.71281" x2="21.1886" y2="22.0985" gradientUnits="userSpaceOnUse">
<stop stop-color="#F5FBFF"/>
<stop offset="1" stop-color="#DBD5EF"/>
</linearGradient>
<linearGradient id="paint13_linear_4391_73266" x1="10.594" y1="5.99915" x2="6.55067" y2="3.15881" gradientUnits="userSpaceOnUse">
<stop stop-color="#DBD5EF" stop-opacity="0"/>
<stop offset="0.2853" stop-color="#D9D2EE" stop-opacity="0.285"/>
<stop offset="0.4739" stop-color="#D4C9E9" stop-opacity="0.474"/>
<stop offset="0.6346" stop-color="#CBBAE2" stop-opacity="0.635"/>
<stop offset="0.7795" stop-color="#BFA5D7" stop-opacity="0.78"/>
<stop offset="0.9126" stop-color="#AF8ACA" stop-opacity="0.913"/>
<stop offset="1" stop-color="#A274BF"/>
</linearGradient>
<linearGradient id="paint14_linear_4391_73266" x1="14.2824" y1="7.07413" x2="10.2057" y2="4.36743" gradientUnits="userSpaceOnUse">
<stop stop-color="#DBD5EF" stop-opacity="0"/>
<stop offset="0.2853" stop-color="#D9D2EE" stop-opacity="0.285"/>
<stop offset="0.4739" stop-color="#D4C9E9" stop-opacity="0.474"/>
<stop offset="0.6346" stop-color="#CBBAE2" stop-opacity="0.635"/>
<stop offset="0.7795" stop-color="#BFA5D7" stop-opacity="0.78"/>
<stop offset="0.9126" stop-color="#AF8ACA" stop-opacity="0.913"/>
<stop offset="1" stop-color="#A274BF"/>
</linearGradient>
<linearGradient id="paint15_linear_4391_73266" x1="11.9999" y1="18.0108" x2="11.9999" y2="22.4199" gradientUnits="userSpaceOnUse">
<stop stop-color="#DBD5EF" stop-opacity="0"/>
<stop offset="0.2853" stop-color="#D9D2EE" stop-opacity="0.285"/>
<stop offset="0.4739" stop-color="#D4C9E9" stop-opacity="0.474"/>
<stop offset="0.6346" stop-color="#CBBAE2" stop-opacity="0.635"/>
<stop offset="0.7795" stop-color="#BFA5D7" stop-opacity="0.78"/>
<stop offset="0.9126" stop-color="#AF8ACA" stop-opacity="0.913"/>
<stop offset="1" stop-color="#A274BF"/>
</linearGradient>
<linearGradient id="paint16_linear_4391_73266" x1="19.6207" y1="12.9097" x2="23.1018" y2="12.9097" gradientUnits="userSpaceOnUse">
<stop stop-color="#DBD5EF" stop-opacity="0"/>
<stop offset="0.2853" stop-color="#D9D2EE" stop-opacity="0.285"/>
<stop offset="0.4739" stop-color="#D4C9E9" stop-opacity="0.474"/>
<stop offset="0.6346" stop-color="#CBBAE2" stop-opacity="0.635"/>
<stop offset="0.7795" stop-color="#BFA5D7" stop-opacity="0.78"/>
<stop offset="0.9126" stop-color="#AF8ACA" stop-opacity="0.913"/>
<stop offset="1" stop-color="#A274BF"/>
</linearGradient>
<linearGradient id="paint17_linear_4391_73266" x1="18.9892" y1="7.9252" x2="14.0103" y2="4.68388" gradientUnits="userSpaceOnUse">
<stop stop-color="#DBD5EF" stop-opacity="0"/>
<stop offset="0.2853" stop-color="#D9D2EE" stop-opacity="0.285"/>
<stop offset="0.4739" stop-color="#D4C9E9" stop-opacity="0.474"/>
<stop offset="0.6346" stop-color="#CBBAE2" stop-opacity="0.635"/>
<stop offset="0.7795" stop-color="#BFA5D7" stop-opacity="0.78"/>
<stop offset="0.9126" stop-color="#AF8ACA" stop-opacity="0.913"/>
<stop offset="1" stop-color="#A274BF"/>
</linearGradient>
<linearGradient id="paint18_linear_4391_73266" x1="22.686" y1="7.98684" x2="19.0102" y2="5.4472" gradientUnits="userSpaceOnUse">
<stop stop-color="#DBD5EF" stop-opacity="0"/>
<stop offset="0.2853" stop-color="#D9D2EE" stop-opacity="0.285"/>
<stop offset="0.4739" stop-color="#D4C9E9" stop-opacity="0.474"/>
<stop offset="0.6346" stop-color="#CBBAE2" stop-opacity="0.635"/>
<stop offset="0.7795" stop-color="#BFA5D7" stop-opacity="0.78"/>
<stop offset="0.9126" stop-color="#AF8ACA" stop-opacity="0.913"/>
<stop offset="1" stop-color="#A274BF"/>
</linearGradient>
<linearGradient id="paint19_linear_4391_73266" x1="6.17325" y1="8.20177" x2="4.25972" y2="4.84988" gradientUnits="userSpaceOnUse">
<stop stop-color="#F5FBFF"/>
<stop offset="1" stop-color="#DBD5EF"/>
</linearGradient>
<linearGradient id="paint20_linear_4391_73266" x1="3.26883" y1="2.98456" x2="5.63827" y2="5.02648" gradientUnits="userSpaceOnUse">
<stop stop-color="#FEF0AE"/>
<stop offset="1" stop-color="#FAC600"/>
</linearGradient>
<linearGradient id="paint21_linear_4391_73266" x1="5.47327" y1="5.32564" x2="5.47327" y2="6.63359" gradientUnits="userSpaceOnUse">
<stop stop-color="#FE9738" stop-opacity="0"/>
<stop offset="1" stop-color="#FE9738"/>
</linearGradient>
<linearGradient id="paint22_linear_4391_73266" x1="4.83628" y1="5.00642" x2="4.02717" y2="4.92936" gradientUnits="userSpaceOnUse">
<stop stop-color="#FE9738" stop-opacity="0"/>
<stop offset="1" stop-color="#FE9738"/>
</linearGradient>
<linearGradient id="paint23_linear_4391_73266" x1="5.99583" y1="3.87179" x2="6.77025" y2="3.87179" gradientUnits="userSpaceOnUse">
<stop stop-color="#FE9738" stop-opacity="0"/>
<stop offset="1" stop-color="#FE9738"/>
</linearGradient>
<linearGradient id="paint24_linear_4391_73266" x1="10.8725" y1="8.20177" x2="8.95894" y2="4.84988" gradientUnits="userSpaceOnUse">
<stop stop-color="#F5FBFF"/>
<stop offset="1" stop-color="#DBD5EF"/>
</linearGradient>
<linearGradient id="paint25_linear_4391_73266" x1="7.96809" y1="2.98456" x2="10.3375" y2="5.02648" gradientUnits="userSpaceOnUse">
<stop stop-color="#FEF0AE"/>
<stop offset="1" stop-color="#FAC600"/>
</linearGradient>
<linearGradient id="paint26_linear_4391_73266" x1="10.1725" y1="5.32564" x2="10.1725" y2="6.63359" gradientUnits="userSpaceOnUse">
<stop stop-color="#FE9738" stop-opacity="0"/>
<stop offset="1" stop-color="#FE9738"/>
</linearGradient>
<linearGradient id="paint27_linear_4391_73266" x1="9.5355" y1="5.00642" x2="8.72644" y2="4.92936" gradientUnits="userSpaceOnUse">
<stop stop-color="#FE9738" stop-opacity="0"/>
<stop offset="1" stop-color="#FE9738"/>
</linearGradient>
<linearGradient id="paint28_linear_4391_73266" x1="10.6911" y1="3.87179" x2="11.4655" y2="3.87179" gradientUnits="userSpaceOnUse">
<stop stop-color="#FE9738" stop-opacity="0"/>
<stop offset="1" stop-color="#FE9738"/>
</linearGradient>
<linearGradient id="paint29_linear_4391_73266" x1="15.5677" y1="8.20177" x2="13.6542" y2="4.84988" gradientUnits="userSpaceOnUse">
<stop stop-color="#F5FBFF"/>
<stop offset="1" stop-color="#DBD5EF"/>
</linearGradient>
<linearGradient id="paint30_linear_4391_73266" x1="12.6634" y1="2.98456" x2="15.0328" y2="5.02648" gradientUnits="userSpaceOnUse">
<stop stop-color="#FEF0AE"/>
<stop offset="1" stop-color="#FAC600"/>
</linearGradient>
<linearGradient id="paint31_linear_4391_73266" x1="14.8678" y1="5.32564" x2="14.8678" y2="6.63359" gradientUnits="userSpaceOnUse">
<stop stop-color="#FE9738" stop-opacity="0"/>
<stop offset="1" stop-color="#FE9738"/>
</linearGradient>
<linearGradient id="paint32_linear_4391_73266" x1="14.2308" y1="5.00642" x2="13.4217" y2="4.92936" gradientUnits="userSpaceOnUse">
<stop stop-color="#FE9738" stop-opacity="0"/>
<stop offset="1" stop-color="#FE9738"/>
</linearGradient>
<linearGradient id="paint33_linear_4391_73266" x1="15.3865" y1="3.87179" x2="16.1608" y2="3.87179" gradientUnits="userSpaceOnUse">
<stop stop-color="#FE9738" stop-opacity="0"/>
<stop offset="1" stop-color="#FE9738"/>
</linearGradient>
<linearGradient id="paint34_linear_4391_73266" x1="20.2631" y1="8.20177" x2="18.3496" y2="4.84988" gradientUnits="userSpaceOnUse">
<stop stop-color="#F5FBFF"/>
<stop offset="1" stop-color="#DBD5EF"/>
</linearGradient>
<linearGradient id="paint35_linear_4391_73266" x1="17.3587" y1="2.98456" x2="19.7281" y2="5.02648" gradientUnits="userSpaceOnUse">
<stop stop-color="#FEF0AE"/>
<stop offset="1" stop-color="#FAC600"/>
</linearGradient>
<linearGradient id="paint36_linear_4391_73266" x1="19.5631" y1="5.32564" x2="19.5631" y2="6.63359" gradientUnits="userSpaceOnUse">
<stop stop-color="#FE9738" stop-opacity="0"/>
<stop offset="1" stop-color="#FE9738"/>
</linearGradient>
<linearGradient id="paint37_linear_4391_73266" x1="18.9261" y1="5.00642" x2="18.117" y2="4.92936" gradientUnits="userSpaceOnUse">
<stop stop-color="#FE9738" stop-opacity="0"/>
<stop offset="1" stop-color="#FE9738"/>
</linearGradient>
<linearGradient id="paint38_linear_4391_73266" x1="20.0857" y1="3.87179" x2="20.8601" y2="3.87179" gradientUnits="userSpaceOnUse">
<stop stop-color="#FE9738" stop-opacity="0"/>
<stop offset="1" stop-color="#FE9738"/>
</linearGradient>
<linearGradient id="paint39_linear_4391_73266" x1="1.61548" y1="5.77533" x2="5.18005" y2="12.0708" gradientUnits="userSpaceOnUse">
<stop stop-color="#DBD5EF" stop-opacity="0"/>
<stop offset="0.2853" stop-color="#D9D2EE" stop-opacity="0.285"/>
<stop offset="0.4739" stop-color="#D4C9E9" stop-opacity="0.474"/>
<stop offset="0.6346" stop-color="#CBBAE2" stop-opacity="0.635"/>
<stop offset="0.7795" stop-color="#BFA5D7" stop-opacity="0.78"/>
<stop offset="0.9126" stop-color="#AF8ACA" stop-opacity="0.913"/>
<stop offset="1" stop-color="#A274BF"/>
</linearGradient>
<linearGradient id="paint40_linear_4391_73266" x1="4.49869" y1="10.6239" x2="6.59086" y2="10.6239" gradientUnits="userSpaceOnUse">
<stop stop-color="#DBD5EF" stop-opacity="0"/>
<stop offset="0.2853" stop-color="#D9D2EE" stop-opacity="0.285"/>
<stop offset="0.4739" stop-color="#D4C9E9" stop-opacity="0.474"/>
<stop offset="0.6346" stop-color="#CBBAE2" stop-opacity="0.635"/>
<stop offset="0.7795" stop-color="#BFA5D7" stop-opacity="0.78"/>
<stop offset="0.9126" stop-color="#AF8ACA" stop-opacity="0.913"/>
<stop offset="1" stop-color="#A274BF"/>
</linearGradient>
<linearGradient id="paint41_linear_4391_73266" x1="4.36077" y1="10.6177" x2="4.36077" y2="12.0266" gradientUnits="userSpaceOnUse">
<stop stop-color="#DBD5EF" stop-opacity="0"/>
<stop offset="0.2853" stop-color="#D9D2EE" stop-opacity="0.285"/>
<stop offset="0.4739" stop-color="#D4C9E9" stop-opacity="0.474"/>
<stop offset="0.6346" stop-color="#CBBAE2" stop-opacity="0.635"/>
<stop offset="0.7795" stop-color="#BFA5D7" stop-opacity="0.78"/>
<stop offset="0.9126" stop-color="#AF8ACA" stop-opacity="0.913"/>
<stop offset="1" stop-color="#A274BF"/>
</linearGradient>
<linearGradient id="paint42_linear_4391_73266" x1="6.70923" y1="5.77533" x2="10.2738" y2="12.0708" gradientUnits="userSpaceOnUse">
<stop stop-color="#DBD5EF" stop-opacity="0"/>
<stop offset="0.2853" stop-color="#D9D2EE" stop-opacity="0.285"/>
<stop offset="0.4739" stop-color="#D4C9E9" stop-opacity="0.474"/>
<stop offset="0.6346" stop-color="#CBBAE2" stop-opacity="0.635"/>
<stop offset="0.7795" stop-color="#BFA5D7" stop-opacity="0.78"/>
<stop offset="0.9126" stop-color="#AF8ACA" stop-opacity="0.913"/>
<stop offset="1" stop-color="#A274BF"/>
</linearGradient>
<linearGradient id="paint43_linear_4391_73266" x1="9.59244" y1="10.6239" x2="11.6846" y2="10.6239" gradientUnits="userSpaceOnUse">
<stop stop-color="#DBD5EF" stop-opacity="0"/>
<stop offset="0.2853" stop-color="#D9D2EE" stop-opacity="0.285"/>
<stop offset="0.4739" stop-color="#D4C9E9" stop-opacity="0.474"/>
<stop offset="0.6346" stop-color="#CBBAE2" stop-opacity="0.635"/>
<stop offset="0.7795" stop-color="#BFA5D7" stop-opacity="0.78"/>
<stop offset="0.9126" stop-color="#AF8ACA" stop-opacity="0.913"/>
<stop offset="1" stop-color="#A274BF"/>
</linearGradient>
<linearGradient id="paint44_linear_4391_73266" x1="9.45456" y1="10.6177" x2="9.45456" y2="12.0266" gradientUnits="userSpaceOnUse">
<stop stop-color="#DBD5EF" stop-opacity="0"/>
<stop offset="0.2853" stop-color="#D9D2EE" stop-opacity="0.285"/>
<stop offset="0.4739" stop-color="#D4C9E9" stop-opacity="0.474"/>
<stop offset="0.6346" stop-color="#CBBAE2" stop-opacity="0.635"/>
<stop offset="0.7795" stop-color="#BFA5D7" stop-opacity="0.78"/>
<stop offset="0.9126" stop-color="#AF8ACA" stop-opacity="0.913"/>
<stop offset="1" stop-color="#A274BF"/>
</linearGradient>
<linearGradient id="paint45_linear_4391_73266" x1="11.803" y1="5.77533" x2="15.3675" y2="12.0708" gradientUnits="userSpaceOnUse">
<stop stop-color="#DBD5EF" stop-opacity="0"/>
<stop offset="0.2853" stop-color="#D9D2EE" stop-opacity="0.285"/>
<stop offset="0.4739" stop-color="#D4C9E9" stop-opacity="0.474"/>
<stop offset="0.6346" stop-color="#CBBAE2" stop-opacity="0.635"/>
<stop offset="0.7795" stop-color="#BFA5D7" stop-opacity="0.78"/>
<stop offset="0.9126" stop-color="#AF8ACA" stop-opacity="0.913"/>
<stop offset="1" stop-color="#A274BF"/>
</linearGradient>
<linearGradient id="paint46_linear_4391_73266" x1="14.6862" y1="10.6239" x2="16.7784" y2="10.6239" gradientUnits="userSpaceOnUse">
<stop stop-color="#DBD5EF" stop-opacity="0"/>
<stop offset="0.2853" stop-color="#D9D2EE" stop-opacity="0.285"/>
<stop offset="0.4739" stop-color="#D4C9E9" stop-opacity="0.474"/>
<stop offset="0.6346" stop-color="#CBBAE2" stop-opacity="0.635"/>
<stop offset="0.7795" stop-color="#BFA5D7" stop-opacity="0.78"/>
<stop offset="0.9126" stop-color="#AF8ACA" stop-opacity="0.913"/>
<stop offset="1" stop-color="#A274BF"/>
</linearGradient>
<linearGradient id="paint47_linear_4391_73266" x1="14.5483" y1="10.6177" x2="14.5483" y2="12.0266" gradientUnits="userSpaceOnUse">
<stop stop-color="#DBD5EF" stop-opacity="0"/>
<stop offset="0.2853" stop-color="#D9D2EE" stop-opacity="0.285"/>
<stop offset="0.4739" stop-color="#D4C9E9" stop-opacity="0.474"/>
<stop offset="0.6346" stop-color="#CBBAE2" stop-opacity="0.635"/>
<stop offset="0.7795" stop-color="#BFA5D7" stop-opacity="0.78"/>
<stop offset="0.9126" stop-color="#AF8ACA" stop-opacity="0.913"/>
<stop offset="1" stop-color="#A274BF"/>
</linearGradient>
<linearGradient id="paint48_linear_4391_73266" x1="16.8928" y1="5.77533" x2="20.4574" y2="12.0708" gradientUnits="userSpaceOnUse">
<stop stop-color="#DBD5EF" stop-opacity="0"/>
<stop offset="0.2853" stop-color="#D9D2EE" stop-opacity="0.285"/>
<stop offset="0.4739" stop-color="#D4C9E9" stop-opacity="0.474"/>
<stop offset="0.6346" stop-color="#CBBAE2" stop-opacity="0.635"/>
<stop offset="0.7795" stop-color="#BFA5D7" stop-opacity="0.78"/>
<stop offset="0.9126" stop-color="#AF8ACA" stop-opacity="0.913"/>
<stop offset="1" stop-color="#A274BF"/>
</linearGradient>
<linearGradient id="paint49_linear_4391_73266" x1="19.776" y1="10.6239" x2="21.8682" y2="10.6239" gradientUnits="userSpaceOnUse">
<stop stop-color="#DBD5EF" stop-opacity="0"/>
<stop offset="0.2853" stop-color="#D9D2EE" stop-opacity="0.285"/>
<stop offset="0.4739" stop-color="#D4C9E9" stop-opacity="0.474"/>
<stop offset="0.6346" stop-color="#CBBAE2" stop-opacity="0.635"/>
<stop offset="0.7795" stop-color="#BFA5D7" stop-opacity="0.78"/>
<stop offset="0.9126" stop-color="#AF8ACA" stop-opacity="0.913"/>
<stop offset="1" stop-color="#A274BF"/>
</linearGradient>
<linearGradient id="paint50_linear_4391_73266" x1="19.6382" y1="10.6177" x2="19.6382" y2="12.0266" gradientUnits="userSpaceOnUse">
<stop stop-color="#DBD5EF" stop-opacity="0"/>
<stop offset="0.2853" stop-color="#D9D2EE" stop-opacity="0.285"/>
<stop offset="0.4739" stop-color="#D4C9E9" stop-opacity="0.474"/>
<stop offset="0.6346" stop-color="#CBBAE2" stop-opacity="0.635"/>
<stop offset="0.7795" stop-color="#BFA5D7" stop-opacity="0.78"/>
<stop offset="0.9126" stop-color="#AF8ACA" stop-opacity="0.913"/>
<stop offset="1" stop-color="#A274BF"/>
</linearGradient>
<linearGradient id="paint51_linear_4391_73266" x1="1.61548" y1="9.66185" x2="5.18005" y2="15.9573" gradientUnits="userSpaceOnUse">
<stop stop-color="#DBD5EF" stop-opacity="0"/>
<stop offset="0.2853" stop-color="#D9D2EE" stop-opacity="0.285"/>
<stop offset="0.4739" stop-color="#D4C9E9" stop-opacity="0.474"/>
<stop offset="0.6346" stop-color="#CBBAE2" stop-opacity="0.635"/>
<stop offset="0.7795" stop-color="#BFA5D7" stop-opacity="0.78"/>
<stop offset="0.9126" stop-color="#AF8ACA" stop-opacity="0.913"/>
<stop offset="1" stop-color="#A274BF"/>
</linearGradient>
<linearGradient id="paint52_linear_4391_73266" x1="4.49869" y1="14.5104" x2="6.59086" y2="14.5104" gradientUnits="userSpaceOnUse">
<stop stop-color="#DBD5EF" stop-opacity="0"/>
<stop offset="0.2853" stop-color="#D9D2EE" stop-opacity="0.285"/>
<stop offset="0.4739" stop-color="#D4C9E9" stop-opacity="0.474"/>
<stop offset="0.6346" stop-color="#CBBAE2" stop-opacity="0.635"/>
<stop offset="0.7795" stop-color="#BFA5D7" stop-opacity="0.78"/>
<stop offset="0.9126" stop-color="#AF8ACA" stop-opacity="0.913"/>
<stop offset="1" stop-color="#A274BF"/>
</linearGradient>
<linearGradient id="paint53_linear_4391_73266" x1="4.36077" y1="14.5041" x2="4.36077" y2="15.913" gradientUnits="userSpaceOnUse">
<stop stop-color="#DBD5EF" stop-opacity="0"/>
<stop offset="0.2853" stop-color="#D9D2EE" stop-opacity="0.285"/>
<stop offset="0.4739" stop-color="#D4C9E9" stop-opacity="0.474"/>
<stop offset="0.6346" stop-color="#CBBAE2" stop-opacity="0.635"/>
<stop offset="0.7795" stop-color="#BFA5D7" stop-opacity="0.78"/>
<stop offset="0.9126" stop-color="#AF8ACA" stop-opacity="0.913"/>
<stop offset="1" stop-color="#A274BF"/>
</linearGradient>
<linearGradient id="paint54_linear_4391_73266" x1="6.70923" y1="9.66185" x2="10.2738" y2="15.9573" gradientUnits="userSpaceOnUse">
<stop stop-color="#DBD5EF" stop-opacity="0"/>
<stop offset="0.2853" stop-color="#D9D2EE" stop-opacity="0.285"/>
<stop offset="0.4739" stop-color="#D4C9E9" stop-opacity="0.474"/>
<stop offset="0.6346" stop-color="#CBBAE2" stop-opacity="0.635"/>
<stop offset="0.7795" stop-color="#BFA5D7" stop-opacity="0.78"/>
<stop offset="0.9126" stop-color="#AF8ACA" stop-opacity="0.913"/>
<stop offset="1" stop-color="#A274BF"/>
</linearGradient>
<linearGradient id="paint55_linear_4391_73266" x1="9.59244" y1="14.5104" x2="11.6846" y2="14.5104" gradientUnits="userSpaceOnUse">
<stop stop-color="#DBD5EF" stop-opacity="0"/>
<stop offset="0.2853" stop-color="#D9D2EE" stop-opacity="0.285"/>
<stop offset="0.4739" stop-color="#D4C9E9" stop-opacity="0.474"/>
<stop offset="0.6346" stop-color="#CBBAE2" stop-opacity="0.635"/>
<stop offset="0.7795" stop-color="#BFA5D7" stop-opacity="0.78"/>
<stop offset="0.9126" stop-color="#AF8ACA" stop-opacity="0.913"/>
<stop offset="1" stop-color="#A274BF"/>
</linearGradient>
<linearGradient id="paint56_linear_4391_73266" x1="9.45456" y1="14.5041" x2="9.45456" y2="15.913" gradientUnits="userSpaceOnUse">
<stop stop-color="#DBD5EF" stop-opacity="0"/>
<stop offset="0.2853" stop-color="#D9D2EE" stop-opacity="0.285"/>
<stop offset="0.4739" stop-color="#D4C9E9" stop-opacity="0.474"/>
<stop offset="0.6346" stop-color="#CBBAE2" stop-opacity="0.635"/>
<stop offset="0.7795" stop-color="#BFA5D7" stop-opacity="0.78"/>
<stop offset="0.9126" stop-color="#AF8ACA" stop-opacity="0.913"/>
<stop offset="1" stop-color="#A274BF"/>
</linearGradient>
<linearGradient id="paint57_linear_4391_73266" x1="11.803" y1="9.66185" x2="15.3675" y2="15.9573" gradientUnits="userSpaceOnUse">
<stop stop-color="#DBD5EF" stop-opacity="0"/>
<stop offset="0.2853" stop-color="#D9D2EE" stop-opacity="0.285"/>
<stop offset="0.4739" stop-color="#D4C9E9" stop-opacity="0.474"/>
<stop offset="0.6346" stop-color="#CBBAE2" stop-opacity="0.635"/>
<stop offset="0.7795" stop-color="#BFA5D7" stop-opacity="0.78"/>
<stop offset="0.9126" stop-color="#AF8ACA" stop-opacity="0.913"/>
<stop offset="1" stop-color="#A274BF"/>
</linearGradient>
<linearGradient id="paint58_linear_4391_73266" x1="14.6862" y1="14.5104" x2="16.7784" y2="14.5104" gradientUnits="userSpaceOnUse">
<stop stop-color="#DBD5EF" stop-opacity="0"/>
<stop offset="0.2853" stop-color="#D9D2EE" stop-opacity="0.285"/>
<stop offset="0.4739" stop-color="#D4C9E9" stop-opacity="0.474"/>
<stop offset="0.6346" stop-color="#CBBAE2" stop-opacity="0.635"/>
<stop offset="0.7795" stop-color="#BFA5D7" stop-opacity="0.78"/>
<stop offset="0.9126" stop-color="#AF8ACA" stop-opacity="0.913"/>
<stop offset="1" stop-color="#A274BF"/>
</linearGradient>
<linearGradient id="paint59_linear_4391_73266" x1="14.5483" y1="14.5041" x2="14.5483" y2="15.913" gradientUnits="userSpaceOnUse">
<stop stop-color="#DBD5EF" stop-opacity="0"/>
<stop offset="0.2853" stop-color="#D9D2EE" stop-opacity="0.285"/>
<stop offset="0.4739" stop-color="#D4C9E9" stop-opacity="0.474"/>
<stop offset="0.6346" stop-color="#CBBAE2" stop-opacity="0.635"/>
<stop offset="0.7795" stop-color="#BFA5D7" stop-opacity="0.78"/>
<stop offset="0.9126" stop-color="#AF8ACA" stop-opacity="0.913"/>
<stop offset="1" stop-color="#A274BF"/>
</linearGradient>
<linearGradient id="paint60_linear_4391_73266" x1="16.8928" y1="9.66185" x2="20.4574" y2="15.9573" gradientUnits="userSpaceOnUse">
<stop stop-color="#DBD5EF" stop-opacity="0"/>
<stop offset="0.2853" stop-color="#D9D2EE" stop-opacity="0.285"/>
<stop offset="0.4739" stop-color="#D4C9E9" stop-opacity="0.474"/>
<stop offset="0.6346" stop-color="#CBBAE2" stop-opacity="0.635"/>
<stop offset="0.7795" stop-color="#BFA5D7" stop-opacity="0.78"/>
<stop offset="0.9126" stop-color="#AF8ACA" stop-opacity="0.913"/>
<stop offset="1" stop-color="#A274BF"/>
</linearGradient>
<linearGradient id="paint61_linear_4391_73266" x1="19.776" y1="14.5104" x2="21.8682" y2="14.5104" gradientUnits="userSpaceOnUse">
<stop stop-color="#DBD5EF" stop-opacity="0"/>
<stop offset="0.2853" stop-color="#D9D2EE" stop-opacity="0.285"/>
<stop offset="0.4739" stop-color="#D4C9E9" stop-opacity="0.474"/>
<stop offset="0.6346" stop-color="#CBBAE2" stop-opacity="0.635"/>
<stop offset="0.7795" stop-color="#BFA5D7" stop-opacity="0.78"/>
<stop offset="0.9126" stop-color="#AF8ACA" stop-opacity="0.913"/>
<stop offset="1" stop-color="#A274BF"/>
</linearGradient>
<linearGradient id="paint62_linear_4391_73266" x1="19.6382" y1="14.5041" x2="19.6382" y2="15.913" gradientUnits="userSpaceOnUse">
<stop stop-color="#DBD5EF" stop-opacity="0"/>
<stop offset="0.2853" stop-color="#D9D2EE" stop-opacity="0.285"/>
<stop offset="0.4739" stop-color="#D4C9E9" stop-opacity="0.474"/>
<stop offset="0.6346" stop-color="#CBBAE2" stop-opacity="0.635"/>
<stop offset="0.7795" stop-color="#BFA5D7" stop-opacity="0.78"/>
<stop offset="0.9126" stop-color="#AF8ACA" stop-opacity="0.913"/>
<stop offset="1" stop-color="#A274BF"/>
</linearGradient>
<linearGradient id="paint63_linear_4391_73266" x1="1.61548" y1="13.5486" x2="5.18005" y2="19.844" gradientUnits="userSpaceOnUse">
<stop stop-color="#DBD5EF" stop-opacity="0"/>
<stop offset="0.2853" stop-color="#D9D2EE" stop-opacity="0.285"/>
<stop offset="0.4739" stop-color="#D4C9E9" stop-opacity="0.474"/>
<stop offset="0.6346" stop-color="#CBBAE2" stop-opacity="0.635"/>
<stop offset="0.7795" stop-color="#BFA5D7" stop-opacity="0.78"/>
<stop offset="0.9126" stop-color="#AF8ACA" stop-opacity="0.913"/>
<stop offset="1" stop-color="#A274BF"/>
</linearGradient>
<linearGradient id="paint64_linear_4391_73266" x1="4.49869" y1="18.3971" x2="6.59086" y2="18.3971" gradientUnits="userSpaceOnUse">
<stop stop-color="#DBD5EF" stop-opacity="0"/>
<stop offset="0.2853" stop-color="#D9D2EE" stop-opacity="0.285"/>
<stop offset="0.4739" stop-color="#D4C9E9" stop-opacity="0.474"/>
<stop offset="0.6346" stop-color="#CBBAE2" stop-opacity="0.635"/>
<stop offset="0.7795" stop-color="#BFA5D7" stop-opacity="0.78"/>
<stop offset="0.9126" stop-color="#AF8ACA" stop-opacity="0.913"/>
<stop offset="1" stop-color="#A274BF"/>
</linearGradient>
<linearGradient id="paint65_linear_4391_73266" x1="4.36077" y1="18.3909" x2="4.36077" y2="19.7998" gradientUnits="userSpaceOnUse">
<stop stop-color="#DBD5EF" stop-opacity="0"/>
<stop offset="0.2853" stop-color="#D9D2EE" stop-opacity="0.285"/>
<stop offset="0.4739" stop-color="#D4C9E9" stop-opacity="0.474"/>
<stop offset="0.6346" stop-color="#CBBAE2" stop-opacity="0.635"/>
<stop offset="0.7795" stop-color="#BFA5D7" stop-opacity="0.78"/>
<stop offset="0.9126" stop-color="#AF8ACA" stop-opacity="0.913"/>
<stop offset="1" stop-color="#A274BF"/>
</linearGradient>
<linearGradient id="paint66_linear_4391_73266" x1="6.70923" y1="13.5486" x2="10.2738" y2="19.844" gradientUnits="userSpaceOnUse">
<stop stop-color="#FFA1AE"/>
<stop offset="1" stop-color="#FF4565"/>
</linearGradient>
<linearGradient id="paint67_linear_4391_73266" x1="9.59244" y1="18.3971" x2="11.6846" y2="18.3971" gradientUnits="userSpaceOnUse">
<stop stop-color="#FE0364" stop-opacity="0"/>
<stop offset="0.2343" stop-color="#F90362" stop-opacity="0.234"/>
<stop offset="0.5173" stop-color="#EA035B" stop-opacity="0.517"/>
<stop offset="0.8243" stop-color="#D20250" stop-opacity="0.824"/>
<stop offset="1" stop-color="#C00148"/>
</linearGradient>
<linearGradient id="paint68_linear_4391_73266" x1="9.45456" y1="18.3909" x2="9.45456" y2="19.7998" gradientUnits="userSpaceOnUse">
<stop stop-color="#FE0364" stop-opacity="0"/>
<stop offset="0.2343" stop-color="#F90362" stop-opacity="0.234"/>
<stop offset="0.5173" stop-color="#EA035B" stop-opacity="0.517"/>
<stop offset="0.8243" stop-color="#D20250" stop-opacity="0.824"/>
<stop offset="1" stop-color="#C00148"/>
</linearGradient>
<linearGradient id="paint69_linear_4391_73266" x1="11.803" y1="13.5486" x2="15.3675" y2="19.844" gradientUnits="userSpaceOnUse">
<stop stop-color="#DBD5EF" stop-opacity="0"/>
<stop offset="0.2853" stop-color="#D9D2EE" stop-opacity="0.285"/>
<stop offset="0.4739" stop-color="#D4C9E9" stop-opacity="0.474"/>
<stop offset="0.6346" stop-color="#CBBAE2" stop-opacity="0.635"/>
<stop offset="0.7795" stop-color="#BFA5D7" stop-opacity="0.78"/>
<stop offset="0.9126" stop-color="#AF8ACA" stop-opacity="0.913"/>
<stop offset="1" stop-color="#A274BF"/>
</linearGradient>
<linearGradient id="paint70_linear_4391_73266" x1="14.6862" y1="18.3971" x2="16.7784" y2="18.3971" gradientUnits="userSpaceOnUse">
<stop stop-color="#DBD5EF" stop-opacity="0"/>
<stop offset="0.2853" stop-color="#D9D2EE" stop-opacity="0.285"/>
<stop offset="0.4739" stop-color="#D4C9E9" stop-opacity="0.474"/>
<stop offset="0.6346" stop-color="#CBBAE2" stop-opacity="0.635"/>
<stop offset="0.7795" stop-color="#BFA5D7" stop-opacity="0.78"/>
<stop offset="0.9126" stop-color="#AF8ACA" stop-opacity="0.913"/>
<stop offset="1" stop-color="#A274BF"/>
</linearGradient>
<linearGradient id="paint71_linear_4391_73266" x1="14.5483" y1="18.3909" x2="14.5483" y2="19.7998" gradientUnits="userSpaceOnUse">
<stop stop-color="#DBD5EF" stop-opacity="0"/>
<stop offset="0.2853" stop-color="#D9D2EE" stop-opacity="0.285"/>
<stop offset="0.4739" stop-color="#D4C9E9" stop-opacity="0.474"/>
<stop offset="0.6346" stop-color="#CBBAE2" stop-opacity="0.635"/>
<stop offset="0.7795" stop-color="#BFA5D7" stop-opacity="0.78"/>
<stop offset="0.9126" stop-color="#AF8ACA" stop-opacity="0.913"/>
<stop offset="1" stop-color="#A274BF"/>
</linearGradient>
<linearGradient id="paint72_linear_4391_73266" x1="16.8928" y1="13.5486" x2="20.4574" y2="19.844" gradientUnits="userSpaceOnUse">
<stop stop-color="#DBD5EF" stop-opacity="0"/>
<stop offset="0.2853" stop-color="#D9D2EE" stop-opacity="0.285"/>
<stop offset="0.4739" stop-color="#D4C9E9" stop-opacity="0.474"/>
<stop offset="0.6346" stop-color="#CBBAE2" stop-opacity="0.635"/>
<stop offset="0.7795" stop-color="#BFA5D7" stop-opacity="0.78"/>
<stop offset="0.9126" stop-color="#AF8ACA" stop-opacity="0.913"/>
<stop offset="1" stop-color="#A274BF"/>
</linearGradient>
<linearGradient id="paint73_linear_4391_73266" x1="19.776" y1="18.3971" x2="21.8682" y2="18.3971" gradientUnits="userSpaceOnUse">
<stop stop-color="#DBD5EF" stop-opacity="0"/>
<stop offset="0.2853" stop-color="#D9D2EE" stop-opacity="0.285"/>
<stop offset="0.4739" stop-color="#D4C9E9" stop-opacity="0.474"/>
<stop offset="0.6346" stop-color="#CBBAE2" stop-opacity="0.635"/>
<stop offset="0.7795" stop-color="#BFA5D7" stop-opacity="0.78"/>
<stop offset="0.9126" stop-color="#AF8ACA" stop-opacity="0.913"/>
<stop offset="1" stop-color="#A274BF"/>
</linearGradient>
<linearGradient id="paint74_linear_4391_73266" x1="19.6382" y1="18.3909" x2="19.6382" y2="19.7998" gradientUnits="userSpaceOnUse">
<stop stop-color="#DBD5EF" stop-opacity="0"/>
<stop offset="0.2853" stop-color="#D9D2EE" stop-opacity="0.285"/>
<stop offset="0.4739" stop-color="#D4C9E9" stop-opacity="0.474"/>
<stop offset="0.6346" stop-color="#CBBAE2" stop-opacity="0.635"/>
<stop offset="0.7795" stop-color="#BFA5D7" stop-opacity="0.78"/>
<stop offset="0.9126" stop-color="#AF8ACA" stop-opacity="0.913"/>
<stop offset="1" stop-color="#A274BF"/>
</linearGradient>
<clipPath id="clip0_4391_73266">
<rect width="24" height="24" fill="white"/>
</clipPath>
</defs>
</svg>
