<svg width="30" height="30" viewBox="0 0 30 30" fill="none" xmlns="http://www.w3.org/2000/svg">
<path d="M15.0108 0.227295C8.84216 0.227295 7.03807 0.233659 6.68739 0.262749C5.42148 0.367977 4.63375 0.567295 3.77557 0.994568C3.11421 1.32298 2.59262 1.70366 2.07784 2.23729C1.14034 3.21048 0.572161 4.40775 0.366479 5.83093C0.266479 6.52184 0.237388 6.66275 0.231479 10.1918C0.229206 11.3682 0.231479 12.9164 0.231479 14.993C0.231479 21.1566 0.238297 22.9589 0.267842 23.3089C0.370115 24.5407 0.563297 25.3157 0.972388 26.1634C1.75421 27.7862 3.24739 29.0043 5.00648 29.4589C5.61557 29.6157 6.2883 29.7021 7.15193 29.743C7.51784 29.7589 11.2474 29.7702 14.9792 29.7702C18.711 29.7702 22.4428 29.7657 22.7997 29.7475C23.7997 29.7005 24.3803 29.6225 25.0224 29.4566C26.7928 28.9998 28.2588 27.7998 29.0565 26.1543C29.4576 25.3271 29.661 24.5225 29.7531 23.355C29.7731 23.1005 29.7815 19.0421 29.7815 14.9891C29.7815 10.9355 29.7724 6.88457 29.7524 6.63002C29.6592 5.44366 29.4558 4.64593 29.0417 3.80275C28.7019 3.11252 28.3247 2.59707 27.7769 2.07002C26.7994 1.13639 25.604 0.568204 24.1794 0.362749C23.4892 0.262977 23.3517 0.233431 19.8199 0.227295H15.0108Z" fill="url(#paint0_radial_5761_79994)"/>
<path d="M15.0108 0.227295C8.84216 0.227295 7.03807 0.233659 6.68739 0.262749C5.42148 0.367977 4.63375 0.567295 3.77557 0.994568C3.11421 1.32298 2.59262 1.70366 2.07784 2.23729C1.14034 3.21048 0.572161 4.40775 0.366479 5.83093C0.266479 6.52184 0.237388 6.66275 0.231479 10.1918C0.229206 11.3682 0.231479 12.9164 0.231479 14.993C0.231479 21.1566 0.238297 22.9589 0.267842 23.3089C0.370115 24.5407 0.563297 25.3157 0.972388 26.1634C1.75421 27.7862 3.24739 29.0043 5.00648 29.4589C5.61557 29.6157 6.2883 29.7021 7.15193 29.743C7.51784 29.7589 11.2474 29.7702 14.9792 29.7702C18.711 29.7702 22.4428 29.7657 22.7997 29.7475C23.7997 29.7005 24.3803 29.6225 25.0224 29.4566C26.7928 28.9998 28.2588 27.7998 29.0565 26.1543C29.4576 25.3271 29.661 24.5225 29.7531 23.355C29.7731 23.1005 29.7815 19.0421 29.7815 14.9891C29.7815 10.9355 29.7724 6.88457 29.7524 6.63002C29.6592 5.44366 29.4558 4.64593 29.0417 3.80275C28.7019 3.11252 28.3247 2.59707 27.7769 2.07002C26.7994 1.13639 25.604 0.568204 24.1794 0.362749C23.4892 0.262977 23.3517 0.233431 19.8199 0.227295H15.0108Z" fill="url(#paint1_radial_5761_79994)"/>
<path d="M15.0007 7C12.8281 7 12.5554 7.0095 11.702 7.04833C10.8504 7.08733 10.269 7.22217 9.76036 7.42C9.23419 7.62433 8.78785 7.89767 8.34318 8.3425C7.89818 8.78717 7.62484 9.2335 7.41984 9.7595C7.2215 10.2683 7.0865 10.8498 7.04817 11.7012C7.01 12.5545 7 12.8273 7 15C7 17.1727 7.00967 17.4445 7.04833 18.2978C7.0875 19.1495 7.22234 19.7308 7.42 20.2395C7.62451 20.7657 7.89784 21.212 8.34268 21.6567C8.78719 22.1017 9.23352 22.3757 9.75936 22.58C10.2684 22.7778 10.8499 22.9127 11.7014 22.9517C12.5547 22.9905 12.8272 23 14.9998 23C17.1726 23 17.4444 22.9905 18.2978 22.9517C19.1495 22.9127 19.7315 22.7778 20.2405 22.58C20.7665 22.3757 21.2121 22.1017 21.6567 21.6567C22.1017 21.212 22.375 20.7657 22.58 20.2397C22.7767 19.7308 22.9117 19.1493 22.9517 18.298C22.99 17.4447 23 17.1727 23 15C23 12.8273 22.99 12.5547 22.9517 11.7013C22.9117 10.8497 22.7767 10.2683 22.58 9.75967C22.375 9.2335 22.1017 8.78717 21.6567 8.3425C21.2116 7.8975 20.7666 7.62417 20.24 7.42C19.73 7.22217 19.1483 7.08733 18.2966 7.04833C17.4433 7.0095 17.1716 7 14.9982 7H15.0007ZM14.2831 8.44167C14.4961 8.44133 14.7337 8.44167 15.0007 8.44167C17.1368 8.44167 17.3899 8.44933 18.2335 8.48767C19.0135 8.52333 19.4368 8.65367 19.7188 8.76317C20.0921 8.90817 20.3583 9.0815 20.6381 9.3615C20.9181 9.6415 21.0915 9.90817 21.2368 10.2815C21.3463 10.5632 21.4768 10.9865 21.5123 11.7665C21.5507 12.6098 21.559 12.8632 21.559 14.9982C21.559 17.1332 21.5507 17.3865 21.5123 18.2298C21.4767 19.0098 21.3463 19.4332 21.2368 19.7148C21.0918 20.0882 20.9181 20.354 20.6381 20.6338C20.3581 20.9138 20.0923 21.0872 19.7188 21.2322C19.4371 21.3422 19.0135 21.4722 18.2335 21.5078C17.3901 21.5462 17.1368 21.5545 15.0007 21.5545C12.8646 21.5545 12.6114 21.5462 11.768 21.5078C10.988 21.4718 10.5647 21.3415 10.2825 21.232C9.9092 21.087 9.64253 20.9137 9.36252 20.6337C9.08252 20.3537 8.90919 20.0877 8.76385 19.7142C8.65435 19.4325 8.52385 19.0092 8.48835 18.2292C8.45002 17.3858 8.44235 17.1325 8.44235 14.9962C8.44235 12.8598 8.45002 12.6078 8.48835 11.7645C8.52402 10.9845 8.65435 10.5612 8.76385 10.2792C8.90885 9.90583 9.08252 9.63917 9.36252 9.35917C9.64253 9.07917 9.9092 8.90583 10.2825 8.7605C10.5645 8.6505 10.988 8.5205 11.768 8.48467C12.5061 8.45133 12.7921 8.44133 14.2831 8.43967V8.44167ZM19.2711 9.77C18.7411 9.77 18.3111 10.1995 18.3111 10.7297C18.3111 11.2597 18.7411 11.6897 19.2711 11.6897C19.8011 11.6897 20.2311 11.2597 20.2311 10.7297C20.2311 10.1997 19.8011 9.76967 19.2711 9.76967V9.77ZM15.0007 10.8917C12.7319 10.8917 10.8924 12.7312 10.8924 15C10.8924 17.2688 12.7319 19.1075 15.0007 19.1075C17.2696 19.1075 19.1085 17.2688 19.1085 15C19.1085 12.7312 17.2696 10.8917 15.0007 10.8917ZM15.0007 12.3333C16.4734 12.3333 17.6674 13.5272 17.6674 15C17.6674 16.4727 16.4734 17.6667 15.0007 17.6667C13.5279 17.6667 12.3341 16.4727 12.3341 15C12.3341 13.5272 13.5279 12.3333 15.0007 12.3333Z" fill="white"/>
<defs>
<radialGradient id="paint0_radial_5761_79994" cx="0" cy="0" r="1" gradientUnits="userSpaceOnUse" gradientTransform="translate(8.07999 32.0457) rotate(-90) scale(29.2792 27.2394)">
<stop stop-color="#FFDD55"/>
<stop offset="0.1" stop-color="#FFDD55"/>
<stop offset="0.5" stop-color="#FF543E"/>
<stop offset="1" stop-color="#C837AB"/>
</radialGradient>
<radialGradient id="paint1_radial_5761_79994" cx="0" cy="0" r="1" gradientTransform="matrix(2.56957 12.8334 -52.913 10.5947 -4.71948 2.35552)" gradientUnits="userSpaceOnUse">
<stop stop-color="#3771C8"/>
<stop offset="0.128" stop-color="#3771C8"/>
<stop offset="1" stop-color="#6600FF" stop-opacity="0"/>
</radialGradient>
</defs>
</svg>
