<svg width="31" height="30" viewBox="0 0 31 30" fill="none" xmlns="http://www.w3.org/2000/svg">
<g clip-path="url(#clip0_5761_79999)">
<path fill-rule="evenodd" clip-rule="evenodd" d="M6.80648 0H23.3333C25.1369 0.0051772 26.8652 0.723949 28.1405 1.99929C29.4159 3.27463 30.1346 5.00288 30.1398 6.80648V23.196C30.134 24.9992 29.4149 26.7268 28.1397 28.0016C26.8644 29.2764 25.1365 29.9948 23.3333 30H6.80648C5.0033 29.9948 3.27542 29.2764 2.00015 28.0016C0.724881 26.7268 0.00582392 24.9992 0 23.196V6.80648C0.0051772 5.00288 0.723949 3.27463 1.99929 1.99929C3.27463 0.723949 5.00288 0.0051772 6.80648 0Z" fill="#0A66C2"/>
<path fill-rule="evenodd" clip-rule="evenodd" d="M12.7612 12.4507H15.6018V13.9318H15.642C16.0389 13.2134 17.0047 12.4507 18.4479 12.4507C21.4458 12.4507 22 14.3391 22 16.7958V21.9907H19.0387V17.3734C19.0387 16.3163 19.0167 14.9556 17.4986 14.9556C15.9804 14.9556 15.7207 16.1053 15.7207 17.2975V22H12.7612V12.4507ZM11.0802 9.55885C11.0802 9.86716 10.9899 10.1685 10.8207 10.4249C10.6514 10.6812 10.4109 10.881 10.1295 10.999C9.84807 11.117 9.5384 11.1479 9.23965 11.0877C8.9409 11.0276 8.66648 10.8791 8.45109 10.6611C8.2357 10.4431 8.08902 10.1653 8.02959 9.86296C7.97017 9.56058 8.00067 9.24714 8.11723 8.9623C8.2338 8.67746 8.4312 8.434 8.68447 8.26271C8.93774 8.09142 9.23551 8 9.54011 8C9.94842 8.00049 10.3399 8.16488 10.6286 8.45712C10.9173 8.74935 11.0797 9.14557 11.0802 9.55885ZM8.00366 12.4507H11.0802V21.9907H8.00366V12.4507Z" fill="white"/>
</g>
<defs>
<clipPath id="clip0_5761_79999">
<rect width="30.1398" height="30" rx="15" fill="white"/>
</clipPath>
</defs>
</svg>
