<svg width="466" height="242" viewBox="0 0 466 242" fill="none" xmlns="http://www.w3.org/2000/svg">
<g clip-path="url(#clip0_4823_74015)">
<path d="M-22 200.5L5 196.5L31.5 192C38.6809 190.885 45.2811 185.765 49.3203 180.215L75.4428 144.32C82.3198 134.87 95.4442 131.068 107.005 135.176L131.26 143.794C138.551 146.385 146.723 145.886 153.574 142.431L348.772 44.0039C360.14 38.2717 374.37 40.9437 382.359 50.3103L407.451 79.7338C417.762 91.825 437.597 92.1963 448.439 80.5012L477 49.6942" stroke="#1355FF" stroke-width="1.2"/>
<path d="M129.874 144.817L105.522 136.029C93.9149 131.84 80.7379 135.717 73.8334 145.353L47.6062 181.954C43.5507 187.614 37.1645 191.467 29.9547 192.604L-24 201.109V226.312C-24 239.947 -12.1162 251 2.54305 251H450.457C465.116 251 477 239.947 477 226.312V48.8653L448.325 80.2785C437.439 92.2038 417.525 91.8251 407.172 79.496L381.979 49.4935C373.959 39.9426 359.672 37.218 348.258 43.063L152.278 143.427C145.399 146.95 137.195 147.458 129.874 144.817Z" fill="#1355FF" fill-opacity="0.05"/>
<g filter="url(#filter0_di_4823_74015)">
<path d="M395 68H70C62.8203 68 57 73.3726 57 80V120C57 126.627 62.8203 132 70 132H395C402.18 132 408 126.627 408 120V80C408 73.3726 402.18 68 395 68Z" fill="white"/>
<path d="M128.695 83.5975V95.2382H126.938V83.5975H128.695ZM132.141 90.0585V95.2382H130.453V86.5038H132.094V87.9413H132.211C132.409 87.4673 132.719 87.0923 133.141 86.8163C133.562 86.535 134.104 86.3944 134.766 86.3944C135.359 86.3944 135.878 86.5194 136.32 86.7694C136.768 87.0142 137.115 87.3814 137.359 87.871C137.609 88.3606 137.734 88.9673 137.734 89.6913V95.2382H136.047V89.8944C136.047 89.2642 135.88 88.7694 135.547 88.41C135.214 88.0455 134.76 87.8632 134.188 87.8632C133.797 87.8632 133.445 87.9517 133.133 88.1288C132.826 88.3007 132.583 88.5481 132.406 88.871C132.229 89.1939 132.141 89.5897 132.141 90.0585ZM143.422 86.5038V87.871H138.656V86.5038H143.422ZM139.93 84.4257H141.625V92.6757C141.625 93.0767 141.708 93.371 141.875 93.5585C142.042 93.7408 142.31 93.8319 142.68 93.8319C142.768 93.8319 142.862 93.8267 142.961 93.8163C143.065 93.8059 143.169 93.7902 143.273 93.7694L143.594 95.1757C143.422 95.233 143.234 95.2772 143.031 95.3085C142.828 95.3397 142.625 95.3553 142.422 95.3553C141.667 95.3553 141.062 95.1444 140.609 94.7225C140.156 94.2955 139.93 93.7277 139.93 93.0194V84.4257ZM148.211 95.4178C147.393 95.4178 146.677 95.2303 146.062 94.8553C145.453 94.4803 144.979 93.9543 144.641 93.2772C144.307 92.6001 144.141 91.8137 144.141 90.9178C144.141 90.0116 144.307 89.2199 144.641 88.5428C144.979 87.8606 145.453 87.3319 146.062 86.9569C146.677 86.5819 147.393 86.3944 148.211 86.3944C149.034 86.3944 149.75 86.5819 150.359 86.9569C150.969 87.3319 151.443 87.8606 151.781 88.5428C152.12 89.2199 152.289 90.0116 152.289 90.9178C152.289 91.8137 152.12 92.6001 151.781 93.2772C151.443 93.9543 150.969 94.4803 150.359 94.8553C149.75 95.2303 149.034 95.4178 148.211 95.4178ZM148.211 93.9882C148.747 93.9882 149.19 93.8475 149.539 93.5663C149.888 93.285 150.146 92.9126 150.312 92.4491C150.484 91.9803 150.57 91.4699 150.57 90.9178C150.57 90.3553 150.484 89.8397 150.312 89.371C150.146 88.9022 149.888 88.5272 149.539 88.246C149.19 87.9647 148.747 87.8241 148.211 87.8241C147.68 87.8241 147.24 87.9647 146.891 88.246C146.547 88.5272 146.289 88.9022 146.117 89.371C145.945 89.8397 145.859 90.3553 145.859 90.9178C145.859 91.4699 145.945 91.9803 146.117 92.4491C146.289 92.9126 146.547 93.285 146.891 93.5663C147.24 93.8475 147.68 93.9882 148.211 93.9882ZM154.781 95.3475C154.464 95.3475 154.193 95.2382 153.969 95.0194C153.75 94.8007 153.641 94.5324 153.641 94.2147C153.641 93.897 153.75 93.6288 153.969 93.41C154.193 93.1913 154.464 93.0819 154.781 93.0819C155.099 93.0819 155.367 93.1913 155.586 93.41C155.81 93.6288 155.922 93.897 155.922 94.2147C155.922 94.5324 155.81 94.8007 155.586 95.0194C155.367 95.2382 155.099 95.3475 154.781 95.3475ZM158.789 95.2382H156.922L161.109 83.5975H163.141L167.32 95.2382H165.461L162.164 85.7147H162.07L158.789 95.2382ZM159.102 90.6835H165.141V92.1522H159.102V90.6835ZM168.266 95.2382V86.5038H169.953V95.2382H168.266ZM169.117 85.16C168.82 85.16 168.568 85.0611 168.359 84.8632C168.151 84.6652 168.047 84.4283 168.047 84.1522C168.047 83.871 168.151 83.6314 168.359 83.4335C168.568 83.2356 168.82 83.1366 169.117 83.1366C169.409 83.1366 169.659 83.2356 169.867 83.4335C170.081 83.6314 170.188 83.871 170.188 84.1522C170.188 84.4283 170.081 84.6652 169.867 84.8632C169.659 85.0611 169.409 85.16 169.117 85.16Z" fill="#4C4C4C"/>
<g filter="url(#filter1_di_4823_74015)">
<mask id="mask0_4823_74015" style="mask-type:luminance" maskUnits="userSpaceOnUse" x="69" y="80" width="40" height="40">
<path d="M109 100C109 88.9543 100.046 80 89 80C77.9543 80 69 88.9543 69 100C69 111.046 77.9543 120 89 120C100.046 120 109 111.046 109 100Z" fill="white"/>
</mask>
<g mask="url(#mask0_4823_74015)">
<path d="M109 100C109 88.9543 100.046 80 89 80C77.9543 80 69 88.9543 69 100C69 111.046 77.9543 120 89 120C100.046 120 109 111.046 109 100Z" fill="white"/>
<g filter="url(#filter2_d_4823_74015)">
<path d="M85.7497 97.0359C85.9651 97.8544 86.468 98.6053 87.3301 98.6053C88.1923 98.6053 88.6951 97.8544 88.9106 96.9672C89.198 96.8308 89.3417 96.5579 89.2699 96.2173C89.2699 96.0809 89.198 95.9445 89.0544 95.8758C89.1262 94.9208 88.3359 94.1023 87.3301 94.0336C86.3244 94.17 85.606 94.9885 85.606 95.9445C85.4623 95.9445 85.3186 96.0809 85.3186 96.2851C85.2468 96.5579 85.4623 96.8995 85.7497 97.0359Z" fill="#1355FF"/>
<path d="M90.6388 99.6289C89.9921 99.356 89.3456 99.0832 88.6271 98.879H88.5553C88.5553 99.2883 87.9088 101.676 87.9088 101.676L87.5495 99.7653L87.7651 99.2883L87.4059 99.0155H87.1903L86.903 99.356L87.1185 99.834L86.7593 101.744C86.7593 101.744 86.1845 99.2883 86.1127 98.9467H86.0409C85.3225 99.1519 84.6759 99.356 84.0293 99.6976C83.5983 100.107 83.3828 100.653 83.3828 101.198C83.7419 101.608 84.2448 102.017 84.7477 102.29V101.813C84.7477 101.607 84.8196 101.403 84.9633 101.198V102.426C85.7535 102.835 86.5438 103.04 87.4059 103.04C88.1962 103.04 88.9145 102.904 89.633 102.562V101.267C89.7766 101.471 89.7766 101.608 89.7766 101.88V102.562C90.2795 102.29 90.7824 101.949 91.2135 101.54V101.471C91.2853 100.721 91.0698 100.107 90.6388 99.6289Z" fill="#1355FF"/>
<path d="M96.5272 109.043L92.8632 103.585C96.1679 100.788 96.4553 95.9435 93.438 92.8057C90.4206 89.667 85.3918 89.3941 82.0871 92.1913C78.7824 94.9885 78.4951 99.8331 81.5124 102.971C83.8113 105.427 87.4033 106.178 90.5644 104.949L94.2282 110.408C94.6593 111.022 95.4496 111.158 96.0961 110.818C96.7427 110.408 96.9582 109.589 96.5272 109.043ZM90.5644 102.494C87.9062 104.131 84.3142 103.38 82.6618 100.788C81.0095 98.195 81.7278 94.8521 84.4578 93.2827C87.1878 91.7133 90.708 92.3965 92.3603 94.9885C93.1506 96.2163 93.438 97.718 93.1506 99.0822C92.7196 100.446 91.8575 101.675 90.5644 102.494Z" fill="#1355FF"/>
</g>
</g>
</g>
<path d="M130.346 115.415C129.373 115.415 128.509 115.187 127.754 114.732C126.998 114.276 126.406 113.65 125.976 112.855C125.547 112.054 125.332 111.141 125.332 110.115C125.332 109.08 125.547 108.164 125.976 107.368C126.406 106.568 126.998 105.94 127.754 105.484C128.509 105.029 129.373 104.801 130.346 104.801C131.323 104.801 132.187 105.029 132.938 105.484C133.693 105.94 134.286 106.568 134.715 107.368C135.145 108.164 135.359 109.08 135.359 110.115C135.359 111.072 135.172 111.932 134.797 112.696C134.421 113.455 133.907 114.065 133.256 114.525L134.619 116.215H133.152L132.242 115.07C131.649 115.3 131.017 115.415 130.346 115.415ZM129.775 112.033H131.242L132.471 113.538L132.493 113.572C132.957 113.232 133.328 112.772 133.604 112.192C133.886 111.608 134.027 110.915 134.027 110.115C134.027 109.222 133.859 108.468 133.523 107.851C133.187 107.23 132.74 106.761 132.182 106.443C131.624 106.121 131.012 105.96 130.346 105.96C129.679 105.96 129.067 106.121 128.509 106.443C127.951 106.761 127.504 107.23 127.169 107.851C126.833 108.468 126.665 109.222 126.665 110.115C126.665 111.003 126.833 111.755 127.169 112.371C127.504 112.988 127.951 113.457 128.509 113.779C129.067 114.097 129.679 114.255 130.346 114.255C130.731 114.255 131.101 114.203 131.457 114.097L129.775 112.033ZM139.984 115.387C139.461 115.387 138.98 115.281 138.54 115.07C138.105 114.854 137.758 114.531 137.495 114.104C137.239 113.671 137.111 113.133 137.111 112.489V107.962H138.37V112.406C138.37 113.036 138.532 113.512 138.858 113.834C139.184 114.152 139.638 114.311 140.221 114.311C140.793 114.311 141.28 114.147 141.679 113.821C142.08 113.494 142.279 112.963 142.279 112.226V107.962H143.538V115.249H142.309V114.18C142.038 114.594 141.704 114.899 141.31 115.097C140.92 115.291 140.478 115.387 139.984 115.387ZM147.941 115.36C147.166 115.36 146.516 115.173 145.993 114.801C145.475 114.428 145.215 113.878 145.215 113.151C145.215 112.733 145.302 112.392 145.475 112.13C145.653 111.868 145.887 111.663 146.178 111.516C146.475 111.364 146.808 111.249 147.178 111.171C147.553 111.092 147.937 111.03 148.327 110.984C148.825 110.92 149.217 110.872 149.503 110.839C149.79 110.807 149.993 110.754 150.111 110.681C150.234 110.607 150.296 110.478 150.296 110.294V110.225C150.296 109.83 150.143 109.503 149.837 109.245C149.536 108.988 149.111 108.859 148.563 108.859C148.02 108.859 147.574 108.983 147.223 109.231C146.877 109.475 146.69 109.779 146.659 110.142H145.379C145.404 109.696 145.551 109.3 145.823 108.955C146.095 108.606 146.464 108.33 146.933 108.127C147.403 107.925 147.946 107.824 148.563 107.824C149.476 107.824 150.2 108.045 150.733 108.486C151.271 108.923 151.54 109.503 151.54 110.225V115.249H150.296V114.214H150.267C150.173 114.389 150.034 114.566 149.852 114.745C149.669 114.92 149.422 115.067 149.111 115.187C148.805 115.302 148.415 115.36 147.941 115.36ZM148.119 114.311C148.632 114.311 149.049 114.226 149.37 114.055C149.692 113.88 149.926 113.655 150.074 113.379C150.222 113.103 150.296 112.806 150.296 112.489V111.578C150.202 111.661 149.953 111.737 149.548 111.806C149.143 111.87 148.717 111.932 148.267 111.992C147.966 112.029 147.68 112.093 147.408 112.185C147.141 112.273 146.924 112.399 146.756 112.565C146.588 112.726 146.504 112.944 146.504 113.22C146.504 113.561 146.647 113.828 146.933 114.021C147.225 114.214 147.62 114.311 148.119 114.311ZM154.817 104.967V115.249H153.558V104.967H154.817ZM156.835 115.249V107.962H158.094V115.249H156.835ZM157.465 106.54C157.227 106.54 157.025 106.462 156.857 106.305C156.689 106.149 156.605 105.96 156.605 105.74C156.605 105.519 156.689 105.33 156.857 105.174C157.025 105.017 157.227 104.939 157.465 104.939C157.702 104.939 157.903 105.017 158.071 105.174C158.239 105.33 158.324 105.519 158.324 105.74C158.324 105.96 158.239 106.149 158.071 106.305C157.903 106.462 157.702 106.54 157.465 106.54ZM163.526 107.962V108.969H161.941V115.249H160.682V108.969H159.29V107.962H160.682V106.664C160.682 106.144 160.867 105.733 161.238 105.429C161.607 105.121 162.109 104.967 162.74 104.967H163.526V105.974H162.86C162.528 105.974 162.292 106.041 162.148 106.174C162.01 106.308 161.941 106.531 161.941 106.844V107.962H163.526ZM164.915 115.249V107.962H166.173V115.249H164.915ZM165.544 106.54C165.307 106.54 165.104 106.462 164.936 106.305C164.768 106.149 164.685 105.96 164.685 105.74C164.685 105.519 164.768 105.33 164.936 105.174C165.104 105.017 165.307 104.939 165.544 104.939C165.78 104.939 165.983 105.017 166.151 105.174C166.319 105.33 166.403 105.519 166.403 105.74C166.403 105.96 166.319 106.149 166.151 106.305C165.983 106.462 165.78 106.54 165.544 106.54ZM171.42 115.415C170.654 115.415 170.001 115.252 169.457 114.925C168.919 114.598 168.507 114.15 168.221 113.579C167.934 113.004 167.791 112.351 167.791 111.619C167.791 110.879 167.941 110.221 168.243 109.646C168.544 109.07 168.961 108.62 169.494 108.293C170.028 107.962 170.64 107.796 171.331 107.796C172.057 107.796 172.686 107.957 173.219 108.279C173.752 108.601 174.162 109.05 174.449 109.625C174.74 110.2 174.886 110.865 174.886 111.619V111.944H169.036C169.065 112.657 169.285 113.236 169.694 113.683C170.104 114.129 170.679 114.352 171.42 114.352C171.978 114.352 172.432 114.232 172.783 113.993C173.138 113.754 173.374 113.446 173.494 113.068H174.752C174.654 113.533 174.449 113.943 174.138 114.297C173.826 114.647 173.436 114.92 172.967 115.118C172.503 115.316 171.988 115.415 171.42 115.415ZM169.05 110.936H173.627C173.557 110.297 173.318 109.788 172.909 109.411C172.499 109.034 171.973 108.845 171.331 108.845C170.689 108.845 170.166 109.034 169.76 109.411C169.356 109.788 169.119 110.297 169.05 110.936ZM179.466 115.387C178.789 115.387 178.194 115.229 177.681 114.911C177.173 114.589 176.777 114.145 176.497 113.579C176.215 113.009 176.074 112.351 176.074 111.605C176.074 110.856 176.215 110.198 176.497 109.632C176.777 109.061 177.173 108.617 177.681 108.3C178.194 107.982 178.789 107.824 179.466 107.824C179.974 107.824 180.445 107.925 180.881 108.127C181.315 108.325 181.658 108.629 181.91 109.038H181.924V104.967H183.183V115.249H181.954V114.145H181.939C181.658 114.564 181.302 114.876 180.873 115.084C180.443 115.286 179.974 115.387 179.466 115.387ZM179.659 114.331C180.384 114.331 180.959 114.083 181.383 113.586C181.814 113.089 182.028 112.429 182.028 111.605C182.028 110.782 181.814 110.122 181.383 109.625C180.959 109.123 180.384 108.873 179.659 108.873C178.982 108.873 178.427 109.105 177.992 109.57C177.563 110.034 177.348 110.713 177.348 111.605C177.348 112.498 177.563 113.177 177.992 113.641C178.427 114.101 178.982 114.331 179.659 114.331ZM192.714 115.249H189.308V104.967H192.862C193.934 104.967 194.851 105.171 195.617 105.581C196.388 105.99 196.977 106.579 197.388 107.347C197.797 108.111 198.002 109.024 198.002 110.087C198.002 111.159 197.795 112.082 197.38 112.855C196.965 113.623 196.363 114.214 195.573 114.628C194.788 115.042 193.835 115.249 192.714 115.249ZM190.641 114.145H192.625C193.998 114.145 195.015 113.784 195.676 113.062C196.338 112.335 196.668 111.343 196.668 110.087C196.668 108.845 196.343 107.865 195.691 107.147C195.044 106.43 194.071 106.071 192.774 106.071H190.641V114.145ZM202.982 115.415C202.217 115.415 201.563 115.252 201.019 114.925C200.482 114.598 200.069 114.15 199.783 113.579C199.497 113.004 199.353 112.351 199.353 111.619C199.353 110.879 199.503 110.221 199.804 109.646C200.106 109.07 200.523 108.62 201.057 108.293C201.59 107.962 202.202 107.796 202.893 107.796C203.619 107.796 204.248 107.957 204.781 108.279C205.314 108.601 205.725 109.05 206.011 109.625C206.302 110.2 206.447 110.865 206.447 111.619V111.944H200.597C200.627 112.657 200.847 113.236 201.256 113.683C201.666 114.129 202.241 114.352 202.982 114.352C203.54 114.352 203.994 114.232 204.345 113.993C204.7 113.754 204.937 113.446 205.055 113.068H206.314C206.216 113.533 206.011 113.943 205.7 114.297C205.389 114.647 204.999 114.92 204.53 115.118C204.065 115.316 203.55 115.415 202.982 115.415ZM200.612 110.936H205.189C205.119 110.297 204.88 109.788 204.47 109.411C204.061 109.034 203.534 108.845 202.893 108.845C202.251 108.845 201.727 109.034 201.323 109.411C200.918 109.788 200.681 110.297 200.612 110.936ZM208.036 115.249V107.962H209.265V109.142C209.512 108.714 209.84 108.387 210.25 108.162C210.661 107.936 211.105 107.824 211.584 107.824C212.117 107.824 212.583 107.95 212.983 108.203C213.383 108.456 213.665 108.767 213.827 109.135C214.039 108.762 214.358 108.452 214.783 108.203C215.207 107.95 215.711 107.824 216.293 107.824C216.772 107.824 217.207 107.92 217.597 108.113C217.991 108.307 218.306 108.599 218.537 108.99C218.774 109.381 218.893 109.876 218.893 110.474V115.249H217.634V110.474C217.634 109.908 217.463 109.505 217.123 109.266C216.782 109.022 216.387 108.9 215.937 108.9C215.365 108.9 214.914 109.064 214.582 109.39C214.257 109.712 214.094 110.119 214.094 110.612V115.249H212.835V110.349C212.835 109.912 212.677 109.563 212.361 109.3C212.049 109.034 211.657 108.9 211.184 108.9C210.858 108.9 210.549 108.972 210.258 109.114C209.972 109.257 209.74 109.471 209.562 109.756C209.383 110.037 209.294 110.386 209.294 110.805V115.249H208.036ZM224.139 115.415C223.419 115.415 222.784 115.254 222.236 114.932C221.693 114.605 221.269 114.156 220.962 113.586C220.661 113.016 220.51 112.36 220.51 111.619C220.51 110.874 220.661 110.214 220.962 109.639C221.269 109.064 221.693 108.613 222.236 108.286C222.784 107.959 223.419 107.796 224.139 107.796C224.865 107.796 225.499 107.959 226.043 108.286C226.586 108.613 227.008 109.064 227.309 109.639C227.615 110.214 227.769 110.874 227.769 111.619C227.769 112.36 227.615 113.016 227.309 113.586C227.008 114.156 226.586 114.605 226.043 114.932C225.499 115.254 224.865 115.415 224.139 115.415ZM224.139 114.352C224.88 114.352 225.458 114.104 225.873 113.607C226.287 113.105 226.495 112.443 226.495 111.619C226.495 110.786 226.284 110.119 225.865 109.618C225.45 109.112 224.875 108.859 224.139 108.859C223.404 108.859 222.826 109.11 222.406 109.611C221.992 110.113 221.784 110.782 221.784 111.619C221.784 112.447 221.992 113.11 222.406 113.607C222.821 114.104 223.398 114.352 224.139 114.352Z" fill="#4D5670"/>
<path d="M378.165 83.954H345.665C336.092 83.954 328.332 91.1856 328.332 100.106C328.332 109.027 336.092 116.259 345.665 116.259H378.165C387.738 116.259 395.499 109.027 395.499 100.106C395.499 91.1856 387.738 83.954 378.165 83.954Z" fill="#EAF4E5"/>
<path d="M343.247 103.532V100.799H340.352V99.3433H343.247V96.6105H344.883V99.3433H347.771V100.799H344.883V103.532H343.247ZM353.185 106.679V105.292C352.03 105.186 351.129 104.83 350.482 104.222C349.835 103.61 349.512 102.803 349.512 101.8H351.43C351.439 102.32 351.595 102.745 351.897 103.077C352.203 103.408 352.632 103.622 353.185 103.719V100.634L352.949 100.586C351.847 100.351 351.035 100.004 350.512 99.5435C349.989 99.0833 349.727 98.4922 349.727 97.7698C349.727 96.9279 350.04 96.2356 350.667 95.6926C351.294 95.1452 352.134 94.8255 353.185 94.7334V93.3463H354.511V94.7472C355.528 94.8577 356.33 95.1981 356.918 95.7686C357.51 96.3345 357.821 97.0752 357.851 97.9907H355.992C355.957 97.5582 355.81 97.1994 355.547 96.9142C355.291 96.6289 354.945 96.4333 354.511 96.3275V99.2398L354.814 99.3088C355.96 99.5435 356.799 99.8931 357.333 100.358C357.866 100.822 358.132 101.432 358.132 102.187C358.132 103.065 357.808 103.781 357.162 104.333C356.515 104.885 355.632 105.205 354.511 105.292V106.679H353.185ZM354.511 103.739C355.024 103.661 355.432 103.495 355.733 103.242C356.034 102.989 356.185 102.674 356.185 102.297C356.185 101.966 356.053 101.692 355.792 101.476C355.536 101.259 355.108 101.075 354.511 100.924V103.739ZM353.185 98.943V96.3C352.736 96.3782 352.373 96.5415 352.097 96.7899C351.825 97.0338 351.69 97.3305 351.69 97.6802C351.69 97.9792 351.806 98.23 352.037 98.4324C352.269 98.6302 352.652 98.8005 353.185 98.943ZM363.531 94.8714V105.154H361.642V96.5967H361.627L358.984 98.1908V96.5208L361.724 94.8714H363.531ZM369.285 105.32C368.396 105.32 367.631 105.103 366.99 104.671C366.347 104.238 365.851 103.627 365.501 102.835C365.156 102.044 364.982 101.105 364.982 100.02C364.982 98.9293 365.156 97.9884 365.501 97.1971C365.851 96.4011 366.347 95.7869 366.99 95.3546C367.631 94.9221 368.396 94.7058 369.285 94.7058C370.174 94.7058 370.938 94.9221 371.581 95.3546C372.228 95.7869 372.724 96.4011 373.069 97.1971C373.415 97.9884 373.587 98.9293 373.587 100.02C373.587 101.105 373.415 102.046 373.069 102.842C372.724 103.633 372.228 104.245 371.581 104.678C370.938 105.106 370.174 105.32 369.285 105.32ZM369.285 103.815C370.046 103.815 370.643 103.477 371.077 102.801C371.517 102.124 371.736 101.197 371.736 100.02C371.736 98.8327 371.517 97.901 371.077 97.2247C370.643 96.5484 370.046 96.2102 369.285 96.2102C368.525 96.2102 367.925 96.5484 367.486 97.2247C367.051 97.901 366.834 98.8327 366.834 100.02C366.834 101.197 367.051 102.124 367.486 102.801C367.925 103.477 368.525 103.815 369.285 103.815ZM378.956 105.32C378.068 105.32 377.303 105.103 376.661 104.671C376.019 104.238 375.523 103.627 375.172 102.835C374.826 102.044 374.654 101.105 374.654 100.02C374.654 98.9293 374.826 97.9884 375.172 97.1971C375.523 96.4011 376.019 95.7869 376.661 95.3546C377.303 94.9221 378.068 94.7058 378.956 94.7058C379.846 94.7058 380.61 94.9221 381.253 95.3546C381.9 95.7869 382.396 96.4011 382.741 97.1971C383.087 97.9884 383.259 98.9293 383.259 100.02C383.259 101.105 383.087 102.046 382.741 102.842C382.396 103.633 381.9 104.245 381.253 104.678C380.61 105.106 379.846 105.32 378.956 105.32ZM378.956 103.815C379.717 103.815 380.315 103.477 380.749 102.801C381.188 102.124 381.408 101.197 381.408 100.02C381.408 98.8327 381.188 97.901 380.749 97.2247C380.315 96.5484 379.717 96.2102 378.956 96.2102C378.197 96.2102 377.597 96.5484 377.157 97.2247C376.722 97.901 376.506 98.8327 376.506 100.02C376.506 101.197 376.722 102.124 377.157 102.801C377.597 103.477 378.197 103.815 378.956 103.815Z" fill="#388412"/>
</g>
<g filter="url(#filter3_di_4823_74015)">
<path d="M395 138H70C62.8203 138 57 143.373 57 150V190C57 196.627 62.8203 202 70 202H395C402.18 202 408 196.627 408 190V150C408 143.373 402.18 138 395 138Z" fill="white"/>
<path d="M128.695 153.255V164.895H126.938V153.255H128.695ZM132.141 159.716V164.895H130.453V156.161H132.094V157.598H132.211C132.409 157.124 132.719 156.749 133.141 156.473C133.562 156.192 134.104 156.052 134.766 156.052C135.359 156.052 135.878 156.177 136.32 156.427C136.768 156.671 137.115 157.038 137.359 157.528C137.609 158.018 137.734 158.624 137.734 159.348V164.895H136.047V159.552C136.047 158.921 135.88 158.427 135.547 158.067C135.214 157.703 134.76 157.52 134.188 157.52C133.797 157.52 133.445 157.609 133.133 157.786C132.826 157.958 132.583 158.205 132.406 158.528C132.229 158.851 132.141 159.247 132.141 159.716ZM143.422 156.161V157.528H138.656V156.161H143.422ZM139.93 154.083H141.625V162.333C141.625 162.734 141.708 163.028 141.875 163.216C142.042 163.398 142.31 163.489 142.68 163.489C142.768 163.489 142.862 163.484 142.961 163.473C143.065 163.463 143.169 163.447 143.273 163.427L143.594 164.833C143.422 164.89 143.234 164.934 143.031 164.966C142.828 164.997 142.625 165.012 142.422 165.012C141.667 165.012 141.062 164.802 140.609 164.38C140.156 163.953 139.93 163.385 139.93 162.677V154.083ZM148.211 165.075C147.393 165.075 146.677 164.887 146.062 164.512C145.453 164.137 144.979 163.611 144.641 162.934C144.307 162.257 144.141 161.471 144.141 160.575C144.141 159.669 144.307 158.877 144.641 158.2C144.979 157.518 145.453 156.989 146.062 156.614C146.677 156.239 147.393 156.052 148.211 156.052C149.034 156.052 149.75 156.239 150.359 156.614C150.969 156.989 151.443 157.518 151.781 158.2C152.12 158.877 152.289 159.669 152.289 160.575C152.289 161.471 152.12 162.257 151.781 162.934C151.443 163.611 150.969 164.137 150.359 164.512C149.75 164.887 149.034 165.075 148.211 165.075ZM148.211 163.645C148.747 163.645 149.19 163.505 149.539 163.223C149.888 162.942 150.146 162.57 150.312 162.106C150.484 161.637 150.57 161.127 150.57 160.575C150.57 160.012 150.484 159.497 150.312 159.028C150.146 158.559 149.888 158.184 149.539 157.903C149.19 157.622 148.747 157.481 148.211 157.481C147.68 157.481 147.24 157.622 146.891 157.903C146.547 158.184 146.289 158.559 146.117 159.028C145.945 159.497 145.859 160.012 145.859 160.575C145.859 161.127 145.945 161.637 146.117 162.106C146.289 162.57 146.547 162.942 146.891 163.223C147.24 163.505 147.68 163.645 148.211 163.645ZM154.781 165.005C154.464 165.005 154.193 164.895 153.969 164.677C153.75 164.458 153.641 164.19 153.641 163.872C153.641 163.554 153.75 163.286 153.969 163.067C154.193 162.848 154.464 162.739 154.781 162.739C155.099 162.739 155.367 162.848 155.586 163.067C155.81 163.286 155.922 163.554 155.922 163.872C155.922 164.19 155.81 164.458 155.586 164.677C155.367 164.895 155.099 165.005 154.781 165.005ZM158.789 164.895H156.922L161.109 153.255H163.141L167.32 164.895H165.461L162.164 155.372H162.07L158.789 164.895ZM159.102 160.341H165.141V161.809H159.102V160.341ZM168.266 164.895V156.161H169.953V164.895H168.266ZM169.117 154.817C168.82 154.817 168.568 154.718 168.359 154.52C168.151 154.322 168.047 154.085 168.047 153.809C168.047 153.528 168.151 153.288 168.359 153.091C168.568 152.893 168.82 152.794 169.117 152.794C169.409 152.794 169.659 152.893 169.867 153.091C170.081 153.288 170.188 153.528 170.188 153.809C170.188 154.085 170.081 154.322 169.867 154.52C169.659 154.718 169.409 154.817 169.117 154.817Z" fill="#4C4C4C"/>
<g filter="url(#filter4_di_4823_74015)">
<mask id="mask1_4823_74015" style="mask-type:luminance" maskUnits="userSpaceOnUse" x="69" y="150" width="40" height="40">
<path d="M109 170C109 158.954 100.046 150 89 150C77.9543 150 69 158.954 69 170C69 181.046 77.9543 190 89 190C100.046 190 109 181.046 109 170Z" fill="white"/>
</mask>
<g mask="url(#mask1_4823_74015)">
<path d="M109 170C109 158.954 100.046 150 89 150C77.9543 150 69 158.954 69 170C69 181.046 77.9543 190 89 190C100.046 190 109 181.046 109 170Z" fill="white"/>
<g filter="url(#filter5_d_4823_74015)">
<path d="M85.7497 167.036C85.9651 167.854 86.468 168.605 87.3301 168.605C88.1923 168.605 88.6951 167.854 88.9106 166.967C89.198 166.831 89.3417 166.558 89.2699 166.217C89.2699 166.081 89.198 165.945 89.0544 165.876C89.1262 164.921 88.3359 164.102 87.3301 164.034C86.3244 164.17 85.606 164.989 85.606 165.945C85.4623 165.945 85.3186 166.081 85.3186 166.285C85.2468 166.558 85.4623 166.899 85.7497 167.036Z" fill="#1355FF"/>
<path d="M90.6388 169.629C89.9921 169.356 89.3456 169.083 88.6271 168.879H88.5553C88.5553 169.288 87.9088 171.676 87.9088 171.676L87.5495 169.765L87.7651 169.288L87.4059 169.015H87.1903L86.903 169.356L87.1185 169.834L86.7593 171.744C86.7593 171.744 86.1845 169.288 86.1127 168.947H86.0409C85.3225 169.152 84.6759 169.356 84.0293 169.698C83.5983 170.107 83.3828 170.653 83.3828 171.198C83.7419 171.608 84.2448 172.017 84.7477 172.29V171.813C84.7477 171.607 84.8196 171.403 84.9633 171.198V172.426C85.7535 172.835 86.5438 173.04 87.4059 173.04C88.1962 173.04 88.9145 172.904 89.633 172.562V171.267C89.7766 171.471 89.7766 171.608 89.7766 171.88V172.562C90.2795 172.29 90.7824 171.949 91.2135 171.54V171.471C91.2853 170.721 91.0698 170.107 90.6388 169.629Z" fill="#1355FF"/>
<path d="M96.5272 179.043L92.8632 173.585C96.1679 170.788 96.4553 165.943 93.438 162.806C90.4206 159.667 85.3918 159.394 82.0871 162.191C78.7824 164.989 78.4951 169.833 81.5124 172.971C83.8113 175.427 87.4033 176.178 90.5644 174.949L94.2282 180.408C94.6593 181.022 95.4496 181.158 96.0961 180.818C96.7427 180.408 96.9582 179.589 96.5272 179.043ZM90.5644 172.494C87.9062 174.131 84.3142 173.38 82.6618 170.788C81.0095 168.195 81.7278 164.852 84.4578 163.283C87.1878 161.713 90.708 162.396 92.3603 164.989C93.1506 166.216 93.438 167.718 93.1506 169.082C92.7196 170.446 91.8575 171.675 90.5644 172.494Z" fill="#1355FF"/>
</g>
</g>
</g>
<path d="M125.762 185.915V175.633H129.857C131.007 175.633 131.918 175.914 132.59 176.475C133.266 177.032 133.604 177.791 133.604 178.753C133.604 179.484 133.392 180.103 132.967 180.609C132.548 181.115 131.977 181.472 131.257 181.678L133.738 185.915H132.182L129.857 181.878C129.822 181.878 129.788 181.878 129.753 181.878H127.095V185.915H125.762ZM127.095 180.775H129.827C130.593 180.775 131.192 180.595 131.627 180.236C132.066 179.872 132.286 179.378 132.286 178.753C132.286 178.127 132.064 177.634 131.62 177.276C131.18 176.917 130.578 176.738 129.813 176.738H127.095V180.775ZM138.281 186.081C137.515 186.081 136.862 185.918 136.318 185.591C135.78 185.265 135.368 184.816 135.082 184.246C134.795 183.67 134.652 183.017 134.652 182.286C134.652 181.545 134.802 180.887 135.104 180.313C135.405 179.737 135.822 179.286 136.355 178.96C136.889 178.629 137.501 178.463 138.192 178.463C138.918 178.463 139.547 178.624 140.08 178.946C140.613 179.268 141.023 179.716 141.31 180.291C141.601 180.867 141.747 181.531 141.747 182.286V182.61H135.897C135.926 183.323 136.146 183.903 136.555 184.35C136.965 184.796 137.54 185.019 138.281 185.019C138.839 185.019 139.293 184.899 139.644 184.66C139.999 184.42 140.235 184.112 140.355 183.735H141.613C141.515 184.2 141.31 184.609 140.999 184.963C140.687 185.313 140.297 185.587 139.828 185.785C139.364 185.982 138.849 186.081 138.281 186.081ZM135.911 181.603H140.488C140.418 180.963 140.179 180.455 139.77 180.077C139.36 179.7 138.834 179.512 138.192 179.512C137.55 179.512 137.027 179.7 136.621 180.077C136.217 180.455 135.98 180.963 135.911 181.603ZM146.748 178.629V179.636H145.165V185.915H143.905V179.636H142.513V178.629H143.905V177.33C143.905 176.812 144.09 176.4 144.46 176.096C144.831 175.788 145.332 175.633 145.964 175.633H146.748V176.641H146.082C145.752 176.641 145.514 176.708 145.371 176.841C145.233 176.974 145.165 177.197 145.165 177.51V178.629H146.748ZM151.218 186.081C150.452 186.081 149.799 185.918 149.255 185.591C148.718 185.265 148.305 184.816 148.019 184.246C147.732 183.67 147.589 183.017 147.589 182.286C147.589 181.545 147.74 180.887 148.041 180.313C148.342 179.737 148.759 179.286 149.293 178.96C149.826 178.629 150.438 178.463 151.129 178.463C151.855 178.463 152.485 178.624 153.018 178.946C153.551 179.268 153.96 179.716 154.247 180.291C154.539 180.867 154.684 181.531 154.684 182.286V182.61H148.834C148.863 183.323 149.083 183.903 149.492 184.35C149.902 184.796 150.477 185.019 151.218 185.019C151.776 185.019 152.23 184.899 152.581 184.66C152.936 184.42 153.174 184.112 153.292 183.735H154.551C154.452 184.2 154.247 184.609 153.936 184.963C153.625 185.313 153.234 185.587 152.766 185.785C152.302 185.982 151.786 186.081 151.218 186.081ZM148.848 181.603H153.425C153.356 180.963 153.116 180.455 152.707 180.077C152.297 179.7 151.771 179.512 151.129 179.512C150.487 179.512 149.964 179.7 149.56 180.077C149.154 180.455 148.917 180.963 148.848 181.603ZM156.272 185.915V178.629H157.472V179.774H157.502C157.645 179.397 157.872 179.093 158.183 178.863C158.494 178.633 158.894 178.518 159.382 178.518C159.496 178.518 159.6 178.523 159.693 178.532C159.793 178.541 159.866 178.55 159.916 178.559V179.732C159.866 179.719 159.77 179.703 159.627 179.685C159.488 179.661 159.328 179.649 159.146 179.649C158.712 179.649 158.334 179.793 158.013 180.077C157.691 180.363 157.531 180.813 157.531 181.43V185.915H156.272ZM161.312 185.915V178.629H162.511V179.774H162.541C162.684 179.397 162.912 179.093 163.223 178.863C163.534 178.633 163.933 178.518 164.422 178.518C164.536 178.518 164.64 178.523 164.733 178.532C164.831 178.541 164.906 178.55 164.955 178.559V179.732C164.906 179.719 164.81 179.703 164.667 179.685C164.528 179.661 164.368 179.649 164.185 179.649C163.75 179.649 163.373 179.793 163.051 180.077C162.731 180.363 162.57 180.813 162.57 181.43V185.915H161.312ZM168.498 186.027C167.724 186.027 167.074 185.84 166.551 185.467C166.033 185.095 165.773 184.545 165.773 183.818C165.773 183.4 165.859 183.058 166.033 182.797C166.21 182.535 166.444 182.33 166.736 182.182C167.033 182.031 167.365 181.916 167.736 181.837C168.111 181.759 168.494 181.697 168.884 181.651C169.382 181.587 169.775 181.538 170.061 181.506C170.348 181.474 170.55 181.421 170.668 181.347C170.792 181.274 170.854 181.144 170.854 180.961V180.892C170.854 180.496 170.701 180.169 170.394 179.912C170.093 179.654 169.668 179.525 169.12 179.525C168.578 179.525 168.131 179.649 167.78 179.898C167.435 180.142 167.247 180.446 167.217 180.809H165.936C165.961 180.363 166.109 179.967 166.381 179.622C166.652 179.273 167.022 178.996 167.491 178.794C167.96 178.591 168.504 178.49 169.12 178.49C170.034 178.49 170.757 178.711 171.29 179.153C171.829 179.59 172.097 180.169 172.097 180.892V185.915H170.854V184.881H170.824C170.73 185.055 170.591 185.233 170.409 185.412C170.226 185.587 169.979 185.734 169.668 185.854C169.363 185.969 168.973 186.027 168.498 186.027ZM168.676 184.978C169.19 184.978 169.607 184.892 169.927 184.722C170.249 184.548 170.483 184.321 170.632 184.046C170.78 183.769 170.854 183.472 170.854 183.155V182.245C170.759 182.328 170.51 182.403 170.105 182.472C169.701 182.537 169.274 182.599 168.825 182.659C168.523 182.695 168.237 182.76 167.965 182.852C167.699 182.939 167.481 183.066 167.313 183.231C167.145 183.393 167.062 183.611 167.062 183.887C167.062 184.228 167.205 184.494 167.491 184.688C167.782 184.881 168.178 184.978 168.676 184.978ZM175.374 175.633V185.915H174.116V175.633H175.374ZM186.172 186.081C185.155 186.081 184.263 185.856 183.498 185.406C182.732 184.949 182.135 184.324 181.706 183.528C181.282 182.727 181.069 181.812 181.069 180.781C181.069 179.742 181.282 178.824 181.706 178.028C182.131 177.227 182.726 176.602 183.491 176.151C184.261 175.695 185.155 175.468 186.172 175.468C186.942 175.468 187.645 175.61 188.282 175.896C188.919 176.177 189.45 176.578 189.875 177.103C190.304 177.623 190.585 178.242 190.719 178.96H189.356C189.178 178.21 188.803 177.634 188.23 177.235C187.663 176.83 186.976 176.627 186.172 176.627C185.396 176.627 184.728 176.804 184.165 177.159C183.602 177.508 183.168 177.996 182.861 178.622C182.555 179.242 182.402 179.962 182.402 180.781C182.402 181.596 182.555 182.313 182.861 182.934C183.168 183.555 183.602 184.044 184.165 184.397C184.728 184.747 185.396 184.922 186.172 184.922C186.966 184.922 187.651 184.722 188.223 184.321C188.796 183.922 189.176 183.348 189.363 182.603H190.719C190.585 183.317 190.306 183.933 189.881 184.453C189.458 184.973 188.924 185.375 188.282 185.66C187.645 185.941 186.942 186.081 186.172 186.081ZM195.676 186.081C194.956 186.081 194.321 185.92 193.774 185.598C193.23 185.271 192.805 184.823 192.5 184.253C192.199 183.682 192.048 183.026 192.048 182.286C192.048 181.54 192.199 180.88 192.5 180.306C192.805 179.73 193.23 179.279 193.774 178.953C194.321 178.626 194.956 178.463 195.676 178.463C196.402 178.463 197.037 178.626 197.579 178.953C198.123 179.279 198.545 179.73 198.846 180.306C199.152 180.88 199.305 181.54 199.305 182.286C199.305 183.026 199.152 183.682 198.846 184.253C198.545 184.823 198.123 185.271 197.579 185.598C197.037 185.92 196.402 186.081 195.676 186.081ZM195.676 185.019C196.417 185.019 196.994 184.771 197.409 184.273C197.824 183.772 198.031 183.109 198.031 182.286C198.031 181.453 197.822 180.786 197.402 180.284C196.987 179.779 196.412 179.525 195.676 179.525C194.94 179.525 194.363 179.777 193.944 180.277C193.529 180.779 193.322 181.448 193.322 182.286C193.322 183.114 193.529 183.776 193.944 184.273C194.359 184.771 194.936 185.019 195.676 185.019ZM202.183 181.651V185.915H200.924V178.629H202.152V179.698C202.424 179.284 202.755 178.98 203.145 178.787C203.54 178.589 203.984 178.49 204.478 178.49C205.006 178.49 205.488 178.598 205.922 178.814C206.357 179.026 206.702 179.346 206.959 179.774C207.22 180.202 207.351 180.74 207.351 181.389V185.915H206.092V181.472C206.092 180.842 205.93 180.367 205.604 180.05C205.283 179.728 204.828 179.567 204.241 179.567C203.673 179.567 203.187 179.73 202.782 180.057C202.382 180.383 202.183 180.915 202.183 181.651ZM211.31 185.915L208.288 178.629H209.651L211.339 182.824C211.453 183.105 211.561 183.386 211.665 183.666C211.769 183.942 211.87 184.22 211.968 184.501C212.072 184.22 212.176 183.942 212.279 183.666C212.383 183.386 212.489 183.105 212.598 182.824L214.264 178.629H215.605L212.584 185.915H211.31ZM219.844 186.081C219.079 186.081 218.425 185.918 217.882 185.591C217.344 185.265 216.931 184.816 216.645 184.246C216.359 183.67 216.215 183.017 216.215 182.286C216.215 181.545 216.366 180.887 216.667 180.313C216.968 179.737 217.386 179.286 217.919 178.96C218.452 178.629 219.064 178.463 219.755 178.463C220.481 178.463 221.111 178.624 221.644 178.946C222.177 179.268 222.587 179.716 222.873 180.291C223.165 180.867 223.31 181.531 223.31 182.286V182.61H217.46C217.489 183.323 217.709 183.903 218.118 184.35C218.529 184.796 219.104 185.019 219.844 185.019C220.402 185.019 220.856 184.899 221.207 184.66C221.562 184.42 221.8 184.112 221.918 183.735H223.176C223.078 184.2 222.873 184.609 222.562 184.963C222.251 185.313 221.861 185.587 221.392 185.785C220.927 185.982 220.412 186.081 219.844 186.081ZM217.475 181.603H222.051C221.982 180.963 221.742 180.455 221.333 180.077C220.923 179.7 220.398 179.512 219.755 179.512C219.114 179.512 218.591 179.7 218.186 180.077C217.78 180.455 217.543 180.963 217.475 181.603ZM224.898 185.915V178.629H226.098V179.774H226.127C226.27 179.397 226.498 179.093 226.809 178.863C227.12 178.633 227.52 178.518 228.009 178.518C228.122 178.518 228.226 178.523 228.32 178.532C228.419 178.541 228.492 178.55 228.542 178.559V179.732C228.492 179.719 228.396 179.703 228.253 179.685C228.115 179.661 227.954 179.649 227.772 179.649C227.338 179.649 226.959 179.793 226.639 180.077C226.318 180.363 226.158 180.813 226.158 181.43V185.915H224.898ZM233.588 178.629V179.636H232.003V184.149C232.003 184.429 232.065 184.627 232.189 184.742C232.318 184.853 232.542 184.908 232.863 184.908H233.588V185.915H232.744C231.412 185.915 230.745 185.368 230.745 184.273V179.636H229.353V178.629H230.745V176.641H232.003V178.629H233.588ZM238.132 186.081C237.367 186.081 236.713 185.918 236.17 185.591C235.632 185.265 235.219 184.816 234.933 184.246C234.647 183.67 234.503 183.017 234.503 182.286C234.503 181.545 234.653 180.887 234.954 180.313C235.256 179.737 235.674 179.286 236.207 178.96C236.74 178.629 237.352 178.463 238.043 178.463C238.769 178.463 239.398 178.624 239.931 178.946C240.464 179.268 240.875 179.716 241.161 180.291C241.452 180.867 241.597 181.531 241.597 182.286V182.61H235.747C235.777 183.323 235.997 183.903 236.406 184.35C236.817 184.796 237.391 185.019 238.132 185.019C238.69 185.019 239.144 184.899 239.495 184.66C239.85 184.42 240.087 184.112 240.205 183.735H241.464C241.366 184.2 241.161 184.609 240.85 184.963C240.539 185.313 240.149 185.587 239.68 185.785C239.215 185.982 238.7 186.081 238.132 186.081ZM235.763 181.603H240.339C240.269 180.963 240.03 180.455 239.62 180.077C239.211 179.7 238.684 179.512 238.043 179.512C237.402 179.512 236.877 179.7 236.473 180.077C236.068 180.455 235.831 180.963 235.763 181.603ZM246.178 186.054C245.502 186.054 244.907 185.895 244.394 185.577C243.884 185.255 243.49 184.812 243.208 184.246C242.927 183.675 242.786 183.017 242.786 182.272C242.786 181.522 242.927 180.864 243.208 180.298C243.49 179.728 243.884 179.284 244.394 178.967C244.907 178.649 245.502 178.49 246.178 178.49C246.687 178.49 247.158 178.591 247.593 178.794C248.027 178.992 248.37 179.295 248.622 179.705H248.637V175.633H249.896V185.915H248.666V184.812H248.651C248.37 185.23 248.014 185.543 247.585 185.75C247.155 185.953 246.687 186.054 246.178 186.054ZM246.371 184.998C247.096 184.998 247.672 184.749 248.096 184.253C248.525 183.756 248.74 183.096 248.74 182.272C248.74 181.448 248.525 180.788 248.096 180.291C247.672 179.79 247.096 179.539 246.371 179.539C245.695 179.539 245.139 179.771 244.704 180.236C244.274 180.701 244.06 181.38 244.06 182.272C244.06 183.164 244.274 183.843 244.704 184.308C245.139 184.768 245.695 184.998 246.371 184.998Z" fill="#4D5670"/>
<path d="M378.165 154.62H342.415C332.842 154.62 325.082 161.852 325.082 170.773C325.082 179.693 332.842 186.925 342.415 186.925H378.165C387.738 186.925 395.499 179.693 395.499 170.773C395.499 161.852 387.738 154.62 378.165 154.62Z" fill="#EAF4E5"/>
<path d="M339.997 174.199V171.466H337.102V170.01H339.997V167.277H341.633V170.01H344.521V171.466H341.633V174.199H339.997ZM349.935 177.346V175.959C348.78 175.853 347.879 175.496 347.232 174.889C346.585 174.277 346.262 173.47 346.262 172.467H348.18C348.189 172.986 348.345 173.412 348.647 173.744C348.953 174.075 349.382 174.289 349.935 174.386V171.301L349.699 171.252C348.597 171.018 347.785 170.67 347.262 170.21C346.739 169.75 346.477 169.158 346.477 168.437C346.477 167.595 346.79 166.902 347.417 166.359C348.044 165.812 348.884 165.492 349.935 165.4V164.013H351.261V165.414C352.278 165.524 353.08 165.864 353.668 166.436C354.26 167.001 354.571 167.742 354.601 168.658H352.742C352.707 168.225 352.56 167.866 352.297 167.58C352.041 167.296 351.695 167.1 351.261 166.994V169.906L351.564 169.975C352.71 170.21 353.549 170.56 354.083 171.024C354.616 171.489 354.882 172.099 354.882 172.853C354.882 173.731 354.558 174.447 353.912 174.999C353.265 175.552 352.382 175.872 351.261 175.959V177.346H349.935ZM351.261 174.406C351.774 174.328 352.182 174.162 352.483 173.909C352.784 173.656 352.935 173.341 352.935 172.963C352.935 172.632 352.803 172.359 352.542 172.143C352.286 171.926 351.858 171.742 351.261 171.59V174.406ZM349.935 169.61V166.967C349.486 167.044 349.123 167.208 348.847 167.456C348.575 167.701 348.44 167.997 348.44 168.347C348.44 168.646 348.556 168.897 348.787 169.099C349.019 169.297 349.402 169.467 349.935 169.61ZM359.904 175.966C359.143 175.966 358.466 175.83 357.874 175.559C357.286 175.282 356.817 174.901 356.467 174.413C356.122 173.925 355.931 173.362 355.896 172.722H357.778C357.813 173.237 358.029 173.663 358.429 173.999C358.829 174.334 359.323 174.503 359.91 174.503C360.533 174.503 361.033 174.309 361.414 173.923C361.799 173.532 361.991 173.033 361.991 172.425C361.991 171.818 361.804 171.319 361.429 170.928C361.058 170.536 360.574 170.342 359.977 170.342C359.449 170.342 358.997 170.442 358.622 170.644C358.251 170.842 357.997 171.128 357.859 171.5H356.045L356.392 165.538H363.228V167.049H358.133L357.911 169.782H357.925C358.533 169.189 359.323 168.892 360.296 168.892C360.962 168.892 361.564 169.043 362.103 169.347C362.641 169.651 363.068 170.067 363.383 170.597C363.7 171.121 363.858 171.716 363.858 172.384C363.858 173.083 363.692 173.704 363.362 174.247C363.035 174.785 362.576 175.206 361.984 175.51C361.392 175.814 360.698 175.966 359.904 175.966ZM369.234 175.986C368.346 175.986 367.58 175.77 366.939 175.338C366.296 174.905 365.8 174.293 365.45 173.502C365.105 172.711 364.931 171.772 364.931 170.686C364.931 169.595 365.105 168.655 365.45 167.864C365.8 167.068 366.296 166.454 366.939 166.021C367.58 165.589 368.346 165.373 369.234 165.373C370.123 165.373 370.889 165.589 371.53 166.021C372.177 166.454 372.673 167.068 373.018 167.864C373.364 168.655 373.537 169.595 373.537 170.686C373.537 171.772 373.364 172.713 373.018 173.508C372.673 174.3 372.177 174.912 371.53 175.345C370.889 175.773 370.123 175.986 369.234 175.986ZM369.234 174.482C369.995 174.482 370.592 174.143 371.026 173.467C371.466 172.791 371.686 171.864 371.686 170.686C371.686 169.5 371.466 168.568 371.026 167.891C370.592 167.215 369.995 166.877 369.234 166.877C368.474 166.877 367.874 167.215 367.435 167.891C367 168.568 366.783 169.5 366.783 170.686C366.783 171.864 367 172.791 367.435 173.467C367.874 174.143 368.474 174.482 369.234 174.482ZM378.906 175.986C378.017 175.986 377.252 175.77 376.61 175.338C375.968 174.905 375.472 174.293 375.121 173.502C374.776 172.711 374.603 171.772 374.603 170.686C374.603 169.595 374.776 168.655 375.121 167.864C375.472 167.068 375.968 166.454 376.61 166.021C377.252 165.589 378.017 165.373 378.906 165.373C379.795 165.373 380.559 165.589 381.202 166.021C381.849 166.454 382.345 167.068 382.69 167.864C383.036 168.655 383.208 169.595 383.208 170.686C383.208 171.772 383.036 172.713 382.69 173.508C382.345 174.3 381.849 174.912 381.202 175.345C380.559 175.773 379.795 175.986 378.906 175.986ZM378.906 174.482C379.666 174.482 380.264 174.143 380.698 173.467C381.138 172.791 381.357 171.864 381.357 170.686C381.357 169.5 381.138 168.568 380.698 167.891C380.264 167.215 379.666 166.877 378.906 166.877C378.146 166.877 377.546 167.215 377.106 167.891C376.671 168.568 376.455 169.5 376.455 170.686C376.455 171.864 376.671 172.791 377.106 173.467C377.546 174.143 378.146 174.482 378.906 174.482Z" fill="#388412"/>
</g>
<g filter="url(#filter6_di_4823_74015)">
<path d="M395 209H70C62.8203 209 57 214.373 57 221V261C57 267.627 62.8203 273 70 273H395C402.18 273 408 267.627 408 261V221C408 214.373 402.18 209 395 209Z" fill="white"/>
<path d="M128.695 226.912V238.552H126.938V226.912H128.695ZM132.141 233.373V238.552H130.453V229.818H132.094V231.255H132.211C132.409 230.782 132.719 230.407 133.141 230.13C133.562 229.849 134.104 229.709 134.766 229.709C135.359 229.709 135.878 229.834 136.32 230.084C136.768 230.328 137.115 230.696 137.359 231.185C137.609 231.675 137.734 232.282 137.734 233.005V238.552H136.047V233.209C136.047 232.578 135.88 232.084 135.547 231.724C135.214 231.36 134.76 231.177 134.188 231.177C133.797 231.177 133.445 231.266 133.133 231.443C132.826 231.615 132.583 231.862 132.406 232.185C132.229 232.508 132.141 232.904 132.141 233.373ZM143.422 229.818V231.185H138.656V229.818H143.422ZM139.93 227.74H141.625V235.99C141.625 236.391 141.708 236.685 141.875 236.873C142.042 237.055 142.31 237.146 142.68 237.146C142.768 237.146 142.862 237.141 142.961 237.13C143.065 237.12 143.169 237.104 143.273 237.084L143.594 238.49C143.422 238.547 143.234 238.591 143.031 238.623C142.828 238.654 142.625 238.67 142.422 238.67C141.667 238.67 141.062 238.459 140.609 238.037C140.156 237.61 139.93 237.042 139.93 236.334V227.74ZM148.211 238.732C147.393 238.732 146.677 238.545 146.062 238.17C145.453 237.795 144.979 237.269 144.641 236.591C144.307 235.914 144.141 235.128 144.141 234.232C144.141 233.326 144.307 232.534 144.641 231.857C144.979 231.175 145.453 230.646 146.062 230.271C146.677 229.896 147.393 229.709 148.211 229.709C149.034 229.709 149.75 229.896 150.359 230.271C150.969 230.646 151.443 231.175 151.781 231.857C152.12 232.534 152.289 233.326 152.289 234.232C152.289 235.128 152.12 235.914 151.781 236.591C151.443 237.269 150.969 237.795 150.359 238.17C149.75 238.545 149.034 238.732 148.211 238.732ZM148.211 237.302C148.747 237.302 149.19 237.162 149.539 236.88C149.888 236.599 150.146 236.227 150.312 235.763C150.484 235.295 150.57 234.784 150.57 234.232C150.57 233.67 150.484 233.154 150.312 232.685C150.146 232.216 149.888 231.841 149.539 231.56C149.19 231.279 148.747 231.138 148.211 231.138C147.68 231.138 147.24 231.279 146.891 231.56C146.547 231.841 146.289 232.216 146.117 232.685C145.945 233.154 145.859 233.67 145.859 234.232C145.859 234.784 145.945 235.295 146.117 235.763C146.289 236.227 146.547 236.599 146.891 236.88C147.24 237.162 147.68 237.302 148.211 237.302ZM154.781 238.662C154.464 238.662 154.193 238.552 153.969 238.334C153.75 238.115 153.641 237.847 153.641 237.529C153.641 237.211 153.75 236.943 153.969 236.724C154.193 236.505 154.464 236.396 154.781 236.396C155.099 236.396 155.367 236.505 155.586 236.724C155.81 236.943 155.922 237.211 155.922 237.529C155.922 237.847 155.81 238.115 155.586 238.334C155.367 238.552 155.099 238.662 154.781 238.662ZM158.789 238.552H156.922L161.109 226.912H163.141L167.32 238.552H165.461L162.164 229.029H162.07L158.789 238.552ZM159.102 233.998H165.141V235.466H159.102V233.998ZM168.266 238.552V229.818H169.953V238.552H168.266ZM169.117 228.474C168.82 228.474 168.568 228.375 168.359 228.177C168.151 227.979 168.047 227.742 168.047 227.466C168.047 227.185 168.151 226.946 168.359 226.748C168.568 226.55 168.82 226.451 169.117 226.451C169.409 226.451 169.659 226.55 169.867 226.748C170.081 226.946 170.188 227.185 170.188 227.466C170.188 227.742 170.081 227.979 169.867 228.177C169.659 228.375 169.409 228.474 169.117 228.474Z" fill="#4C4C4C"/>
<g filter="url(#filter7_di_4823_74015)">
<mask id="mask2_4823_74015" style="mask-type:luminance" maskUnits="userSpaceOnUse" x="69" y="221" width="40" height="40">
<path d="M109 241C109 229.954 100.046 221 89 221C77.9543 221 69 229.954 69 241C69 252.046 77.9543 261 89 261C100.046 261 109 252.046 109 241Z" fill="white"/>
</mask>
<g mask="url(#mask2_4823_74015)">
<path d="M109 241C109 229.954 100.046 221 89 221C77.9543 221 69 229.954 69 241C69 252.046 77.9543 261 89 261C100.046 261 109 252.046 109 241Z" fill="white"/>
<g filter="url(#filter8_d_4823_74015)">
<path d="M85.7497 237.986C85.9651 238.816 86.468 239.577 87.3301 239.577C88.1923 239.577 88.6951 238.816 88.9106 237.917C89.198 237.778 89.3417 237.502 89.2699 237.157C89.2699 237.018 89.198 236.88 89.0544 236.81C89.1262 235.842 88.3359 235.012 87.3301 234.943C86.3244 235.081 85.606 235.911 85.606 236.88C85.4623 236.88 85.3186 237.018 85.3186 237.225C85.2468 237.502 85.4623 237.848 85.7497 237.986Z" fill="#1355FF"/>
<path d="M96.5272 250.159L92.8632 244.626C96.1679 241.79 96.4553 236.879 93.438 233.698C90.4206 230.516 85.3918 230.239 82.0871 233.075C78.7824 235.911 78.4951 240.822 81.5124 244.003C83.8113 246.494 87.4033 247.255 90.5644 246.009L94.2282 251.543C94.6593 252.165 95.4496 252.303 96.0961 251.958C96.7427 251.543 96.9582 250.712 96.5272 250.159ZM90.5644 243.52C87.9062 245.179 84.3142 244.418 82.6618 241.79C81.0095 239.161 81.7278 235.772 84.4578 234.181C87.1878 232.59 90.708 233.283 92.3603 235.911C93.1506 237.155 93.438 238.678 93.1506 240.061C92.7196 241.444 91.8575 242.69 90.5644 243.52Z" fill="#1355FF"/>
</g>
</g>
</g>
<path d="M378.167 225.287H331.583C322.01 225.287 314.25 232.519 314.25 241.439C314.25 250.36 322.01 257.592 331.583 257.592H378.167C387.74 257.592 395.5 250.36 395.5 241.439C395.5 232.519 387.74 225.287 378.167 225.287Z" fill="#EAF4E5"/>
<path d="M329.165 244.866V242.133H326.27V240.677H329.165V237.943H330.801V240.677H333.689V242.133H330.801V244.866H329.165ZM339.103 248.012V246.625C337.948 246.519 337.047 246.163 336.4 245.556C335.753 244.943 335.43 244.137 335.43 243.133H337.348C337.357 243.653 337.513 244.079 337.815 244.41C338.121 244.741 338.55 244.956 339.103 245.052V241.967L338.867 241.919C337.765 241.685 336.953 241.336 336.43 240.877C335.907 240.417 335.645 239.825 335.645 239.103C335.645 238.261 335.958 237.569 336.585 237.026C337.212 236.479 338.052 236.159 339.103 236.067V234.68H340.429V236.081C341.446 236.191 342.248 236.531 342.836 237.102C343.428 237.668 343.739 238.409 343.769 239.324H341.91C341.875 238.891 341.728 238.533 341.465 238.247C341.209 237.963 340.863 237.767 340.429 237.661V240.573L340.732 240.642C341.878 240.877 342.717 241.226 343.251 241.691C343.784 242.156 344.05 242.766 344.05 243.52C344.05 244.398 343.726 245.114 343.08 245.666C342.433 246.218 341.55 246.538 340.429 246.625V248.012H339.103ZM340.429 245.073C340.942 244.995 341.35 244.828 341.651 244.576C341.952 244.323 342.102 244.008 342.102 243.63C342.102 243.299 341.971 243.025 341.71 242.809C341.454 242.593 341.026 242.408 340.429 242.257V245.073ZM339.103 240.276V237.633C338.654 237.711 338.291 237.875 338.015 238.123C337.743 238.367 337.608 238.664 337.608 239.013C337.608 239.312 337.724 239.564 337.955 239.766C338.187 239.963 338.57 240.134 339.103 240.276ZM345.191 246.487V245.1L349.197 241.836C349.755 241.372 350.194 240.958 350.516 240.593C350.836 240.23 350.997 239.798 350.997 239.296C350.997 238.758 350.821 238.333 350.471 238.02C350.126 237.702 349.653 237.544 349.056 237.544C348.41 237.544 347.904 237.734 347.539 238.116C347.178 238.494 346.998 239.011 346.998 239.669H345.183C345.183 238.947 345.342 238.314 345.657 237.772C345.973 237.224 346.42 236.799 346.998 236.495C347.58 236.191 348.267 236.039 349.056 236.039C349.787 236.039 350.437 236.173 351.004 236.439C351.576 236.702 352.024 237.072 352.344 237.551C352.67 238.024 352.833 238.578 352.833 239.213C352.833 239.913 352.624 240.537 352.203 241.084C351.789 241.631 351.189 242.225 350.404 242.865L347.857 244.969V244.983H352.885V246.487H345.191ZM357.958 246.632C357.198 246.632 356.522 246.497 355.929 246.225C355.341 245.949 354.872 245.567 354.522 245.08C354.176 244.592 353.986 244.029 353.951 243.389H355.833C355.867 243.904 356.084 244.33 356.484 244.666C356.885 245.001 357.377 245.17 357.966 245.17C358.588 245.17 359.088 244.976 359.468 244.59C359.854 244.198 360.046 243.7 360.046 243.092C360.046 242.485 359.858 241.985 359.483 241.595C359.113 241.203 358.63 241.008 358.032 241.008C357.503 241.008 357.051 241.109 356.677 241.311C356.306 241.509 356.053 241.795 355.914 242.167H354.099L354.447 236.205H361.283V237.716H356.188L355.966 240.449H355.981C356.588 239.855 357.377 239.559 358.35 239.559C359.017 239.559 359.619 239.71 360.157 240.014C360.696 240.318 361.123 240.734 361.439 241.264C361.754 241.788 361.912 242.383 361.912 243.051C361.912 243.75 361.747 244.371 361.416 244.914C361.09 245.452 360.631 245.873 360.039 246.177C359.447 246.481 358.752 246.632 357.958 246.632ZM362.482 248.572L363.068 244.893H364.912L363.808 248.572H362.482ZM370.029 246.632C369.268 246.632 368.592 246.497 368 246.225C367.412 245.949 366.943 245.567 366.592 245.08C366.247 244.592 366.057 244.029 366.022 243.389H367.903C367.938 243.904 368.156 244.33 368.555 244.666C368.955 245.001 369.449 245.17 370.036 245.17C370.658 245.17 371.16 244.976 371.54 244.59C371.924 244.198 372.117 243.7 372.117 243.092C372.117 242.485 371.93 241.985 371.555 241.595C371.185 241.203 370.7 241.008 370.103 241.008C369.575 241.008 369.123 241.109 368.748 241.311C368.378 241.509 368.123 241.795 367.985 242.167H366.171L366.519 236.205H373.354V237.716H368.26L368.036 240.449H368.052C368.659 239.855 369.449 239.559 370.422 239.559C371.088 239.559 371.69 239.71 372.229 240.014C372.766 240.318 373.194 240.734 373.509 241.264C373.826 241.788 373.984 242.383 373.984 243.051C373.984 243.75 373.818 244.371 373.488 244.914C373.162 245.452 372.702 245.873 372.11 246.177C371.517 246.481 370.824 246.632 370.029 246.632ZM379.36 246.653C378.471 246.653 377.706 246.436 377.064 246.004C376.422 245.571 375.926 244.96 375.575 244.169C375.23 243.378 375.057 242.439 375.057 241.353C375.057 240.262 375.23 239.321 375.575 238.531C375.926 237.734 376.422 237.121 377.064 236.688C377.706 236.255 378.471 236.039 379.36 236.039C380.249 236.039 381.014 236.255 381.656 236.688C382.303 237.121 382.799 237.734 383.145 238.531C383.49 239.321 383.662 240.262 383.662 241.353C383.662 242.439 383.49 243.38 383.145 244.175C382.799 244.967 382.303 245.578 381.656 246.011C381.014 246.439 380.249 246.653 379.36 246.653ZM379.36 245.148C380.12 245.148 380.718 244.81 381.152 244.134C381.591 243.457 381.811 242.531 381.811 241.353C381.811 240.166 381.591 239.235 381.152 238.558C380.718 237.882 380.12 237.544 379.36 237.544C378.6 237.544 378 237.882 377.56 238.558C377.126 239.235 376.909 240.166 376.909 241.353C376.909 242.531 377.126 243.457 377.56 244.134C378 244.81 378.6 245.148 379.36 245.148Z" fill="#388412"/>
</g>
</g>
<defs>
<filter id="filter0_di_4823_74015" x="55.56" y="67.28" width="353.88" height="66.88" filterUnits="userSpaceOnUse" color-interpolation-filters="sRGB">
<feFlood flood-opacity="0" result="BackgroundImageFix"/>
<feColorMatrix in="SourceAlpha" type="matrix" values="0 0 0 0 0 0 0 0 0 0 0 0 0 0 0 0 0 0 127 0" result="hardAlpha"/>
<feOffset dy="0.72"/>
<feGaussianBlur stdDeviation="0.72"/>
<feComposite in2="hardAlpha" operator="out"/>
<feColorMatrix type="matrix" values="0 0 0 0 0.643275 0 0 0 0 0.672823 0 0 0 0 0.725353 0 0 0 0.24 0"/>
<feBlend mode="normal" in2="BackgroundImageFix" result="effect1_dropShadow_4823_74015"/>
<feBlend mode="normal" in="SourceGraphic" in2="effect1_dropShadow_4823_74015" result="shape"/>
<feColorMatrix in="SourceAlpha" type="matrix" values="0 0 0 0 0 0 0 0 0 0 0 0 0 0 0 0 0 0 127 0" result="hardAlpha"/>
<feOffset/>
<feGaussianBlur stdDeviation="2"/>
<feComposite in2="hardAlpha" operator="arithmetic" k2="-1" k3="1"/>
<feColorMatrix type="matrix" values="0 0 0 0 0.0696 0 0 0 0 0.215657 0 0 0 0 0.4104 0 0 0 0.08 0"/>
<feBlend mode="normal" in2="shape" result="effect2_innerShadow_4823_74015"/>
</filter>
<filter id="filter1_di_4823_74015" x="67.56" y="79.28" width="42.88" height="42.88" filterUnits="userSpaceOnUse" color-interpolation-filters="sRGB">
<feFlood flood-opacity="0" result="BackgroundImageFix"/>
<feColorMatrix in="SourceAlpha" type="matrix" values="0 0 0 0 0 0 0 0 0 0 0 0 0 0 0 0 0 0 127 0" result="hardAlpha"/>
<feOffset dy="0.72"/>
<feGaussianBlur stdDeviation="0.72"/>
<feComposite in2="hardAlpha" operator="out"/>
<feColorMatrix type="matrix" values="0 0 0 0 0.643275 0 0 0 0 0.672823 0 0 0 0 0.725353 0 0 0 0.24 0"/>
<feBlend mode="normal" in2="BackgroundImageFix" result="effect1_dropShadow_4823_74015"/>
<feBlend mode="normal" in="SourceGraphic" in2="effect1_dropShadow_4823_74015" result="shape"/>
<feColorMatrix in="SourceAlpha" type="matrix" values="0 0 0 0 0 0 0 0 0 0 0 0 0 0 0 0 0 0 127 0" result="hardAlpha"/>
<feOffset/>
<feGaussianBlur stdDeviation="2"/>
<feComposite in2="hardAlpha" operator="arithmetic" k2="-1" k3="1"/>
<feColorMatrix type="matrix" values="0 0 0 0 0.0696 0 0 0 0 0.215657 0 0 0 0 0.4104 0 0 0 0.08 0"/>
<feBlend mode="normal" in2="shape" result="effect2_innerShadow_4823_74015"/>
</filter>
<filter id="filter2_d_4823_74015" x="68.7513" y="84.9268" width="38.6654" height="42.0732" filterUnits="userSpaceOnUse" color-interpolation-filters="sRGB">
<feFlood flood-opacity="0" result="BackgroundImageFix"/>
<feColorMatrix in="SourceAlpha" type="matrix" values="0 0 0 0 0 0 0 0 0 0 0 0 0 0 0 0 0 0 127 0" result="hardAlpha"/>
<feOffset dy="5.33333"/>
<feGaussianBlur stdDeviation="5.33333"/>
<feComposite in2="hardAlpha" operator="out"/>
<feColorMatrix type="matrix" values="0 0 0 0 0 0 0 0 0 0 0 0 0 0 0 0 0 0 0.25 0"/>
<feBlend mode="normal" in2="BackgroundImageFix" result="effect1_dropShadow_4823_74015"/>
<feBlend mode="normal" in="SourceGraphic" in2="effect1_dropShadow_4823_74015" result="shape"/>
</filter>
<filter id="filter3_di_4823_74015" x="55.56" y="137.28" width="353.88" height="66.88" filterUnits="userSpaceOnUse" color-interpolation-filters="sRGB">
<feFlood flood-opacity="0" result="BackgroundImageFix"/>
<feColorMatrix in="SourceAlpha" type="matrix" values="0 0 0 0 0 0 0 0 0 0 0 0 0 0 0 0 0 0 127 0" result="hardAlpha"/>
<feOffset dy="0.72"/>
<feGaussianBlur stdDeviation="0.72"/>
<feComposite in2="hardAlpha" operator="out"/>
<feColorMatrix type="matrix" values="0 0 0 0 0.643275 0 0 0 0 0.672823 0 0 0 0 0.725353 0 0 0 0.24 0"/>
<feBlend mode="normal" in2="BackgroundImageFix" result="effect1_dropShadow_4823_74015"/>
<feBlend mode="normal" in="SourceGraphic" in2="effect1_dropShadow_4823_74015" result="shape"/>
<feColorMatrix in="SourceAlpha" type="matrix" values="0 0 0 0 0 0 0 0 0 0 0 0 0 0 0 0 0 0 127 0" result="hardAlpha"/>
<feOffset/>
<feGaussianBlur stdDeviation="2"/>
<feComposite in2="hardAlpha" operator="arithmetic" k2="-1" k3="1"/>
<feColorMatrix type="matrix" values="0 0 0 0 0.0696 0 0 0 0 0.215657 0 0 0 0 0.4104 0 0 0 0.08 0"/>
<feBlend mode="normal" in2="shape" result="effect2_innerShadow_4823_74015"/>
</filter>
<filter id="filter4_di_4823_74015" x="67.56" y="149.28" width="42.88" height="42.88" filterUnits="userSpaceOnUse" color-interpolation-filters="sRGB">
<feFlood flood-opacity="0" result="BackgroundImageFix"/>
<feColorMatrix in="SourceAlpha" type="matrix" values="0 0 0 0 0 0 0 0 0 0 0 0 0 0 0 0 0 0 127 0" result="hardAlpha"/>
<feOffset dy="0.72"/>
<feGaussianBlur stdDeviation="0.72"/>
<feComposite in2="hardAlpha" operator="out"/>
<feColorMatrix type="matrix" values="0 0 0 0 0.643275 0 0 0 0 0.672823 0 0 0 0 0.725353 0 0 0 0.24 0"/>
<feBlend mode="normal" in2="BackgroundImageFix" result="effect1_dropShadow_4823_74015"/>
<feBlend mode="normal" in="SourceGraphic" in2="effect1_dropShadow_4823_74015" result="shape"/>
<feColorMatrix in="SourceAlpha" type="matrix" values="0 0 0 0 0 0 0 0 0 0 0 0 0 0 0 0 0 0 127 0" result="hardAlpha"/>
<feOffset/>
<feGaussianBlur stdDeviation="2"/>
<feComposite in2="hardAlpha" operator="arithmetic" k2="-1" k3="1"/>
<feColorMatrix type="matrix" values="0 0 0 0 0.0696 0 0 0 0 0.215657 0 0 0 0 0.4104 0 0 0 0.08 0"/>
<feBlend mode="normal" in2="shape" result="effect2_innerShadow_4823_74015"/>
</filter>
<filter id="filter5_d_4823_74015" x="68.7513" y="154.927" width="38.6654" height="42.0732" filterUnits="userSpaceOnUse" color-interpolation-filters="sRGB">
<feFlood flood-opacity="0" result="BackgroundImageFix"/>
<feColorMatrix in="SourceAlpha" type="matrix" values="0 0 0 0 0 0 0 0 0 0 0 0 0 0 0 0 0 0 127 0" result="hardAlpha"/>
<feOffset dy="5.33333"/>
<feGaussianBlur stdDeviation="5.33333"/>
<feComposite in2="hardAlpha" operator="out"/>
<feColorMatrix type="matrix" values="0 0 0 0 0 0 0 0 0 0 0 0 0 0 0 0 0 0 0.25 0"/>
<feBlend mode="normal" in2="BackgroundImageFix" result="effect1_dropShadow_4823_74015"/>
<feBlend mode="normal" in="SourceGraphic" in2="effect1_dropShadow_4823_74015" result="shape"/>
</filter>
<filter id="filter6_di_4823_74015" x="55.56" y="208.28" width="353.88" height="66.88" filterUnits="userSpaceOnUse" color-interpolation-filters="sRGB">
<feFlood flood-opacity="0" result="BackgroundImageFix"/>
<feColorMatrix in="SourceAlpha" type="matrix" values="0 0 0 0 0 0 0 0 0 0 0 0 0 0 0 0 0 0 127 0" result="hardAlpha"/>
<feOffset dy="0.72"/>
<feGaussianBlur stdDeviation="0.72"/>
<feComposite in2="hardAlpha" operator="out"/>
<feColorMatrix type="matrix" values="0 0 0 0 0.643275 0 0 0 0 0.672823 0 0 0 0 0.725353 0 0 0 0.24 0"/>
<feBlend mode="normal" in2="BackgroundImageFix" result="effect1_dropShadow_4823_74015"/>
<feBlend mode="normal" in="SourceGraphic" in2="effect1_dropShadow_4823_74015" result="shape"/>
<feColorMatrix in="SourceAlpha" type="matrix" values="0 0 0 0 0 0 0 0 0 0 0 0 0 0 0 0 0 0 127 0" result="hardAlpha"/>
<feOffset/>
<feGaussianBlur stdDeviation="2"/>
<feComposite in2="hardAlpha" operator="arithmetic" k2="-1" k3="1"/>
<feColorMatrix type="matrix" values="0 0 0 0 0.0696 0 0 0 0 0.215657 0 0 0 0 0.4104 0 0 0 0.08 0"/>
<feBlend mode="normal" in2="shape" result="effect2_innerShadow_4823_74015"/>
</filter>
<filter id="filter7_di_4823_74015" x="67.56" y="220.28" width="42.88" height="42.88" filterUnits="userSpaceOnUse" color-interpolation-filters="sRGB">
<feFlood flood-opacity="0" result="BackgroundImageFix"/>
<feColorMatrix in="SourceAlpha" type="matrix" values="0 0 0 0 0 0 0 0 0 0 0 0 0 0 0 0 0 0 127 0" result="hardAlpha"/>
<feOffset dy="0.72"/>
<feGaussianBlur stdDeviation="0.72"/>
<feComposite in2="hardAlpha" operator="out"/>
<feColorMatrix type="matrix" values="0 0 0 0 0.643275 0 0 0 0 0.672823 0 0 0 0 0.725353 0 0 0 0.24 0"/>
<feBlend mode="normal" in2="BackgroundImageFix" result="effect1_dropShadow_4823_74015"/>
<feBlend mode="normal" in="SourceGraphic" in2="effect1_dropShadow_4823_74015" result="shape"/>
<feColorMatrix in="SourceAlpha" type="matrix" values="0 0 0 0 0 0 0 0 0 0 0 0 0 0 0 0 0 0 127 0" result="hardAlpha"/>
<feOffset/>
<feGaussianBlur stdDeviation="2"/>
<feComposite in2="hardAlpha" operator="arithmetic" k2="-1" k3="1"/>
<feColorMatrix type="matrix" values="0 0 0 0 0.0696 0 0 0 0 0.215657 0 0 0 0 0.4104 0 0 0 0.08 0"/>
<feBlend mode="normal" in2="shape" result="effect2_innerShadow_4823_74015"/>
</filter>
<filter id="filter8_d_4823_74015" x="68.7513" y="225.784" width="38.6654" height="42.3592" filterUnits="userSpaceOnUse" color-interpolation-filters="sRGB">
<feFlood flood-opacity="0" result="BackgroundImageFix"/>
<feColorMatrix in="SourceAlpha" type="matrix" values="0 0 0 0 0 0 0 0 0 0 0 0 0 0 0 0 0 0 127 0" result="hardAlpha"/>
<feOffset dy="5.33333"/>
<feGaussianBlur stdDeviation="5.33333"/>
<feComposite in2="hardAlpha" operator="out"/>
<feColorMatrix type="matrix" values="0 0 0 0 0 0 0 0 0 0 0 0 0 0 0 0 0 0 0.25 0"/>
<feBlend mode="normal" in2="BackgroundImageFix" result="effect1_dropShadow_4823_74015"/>
<feBlend mode="normal" in="SourceGraphic" in2="effect1_dropShadow_4823_74015" result="shape"/>
</filter>
<clipPath id="clip0_4823_74015">
<rect width="466" height="242" fill="white"/>
</clipPath>
</defs>
</svg>
