<svg width="16" height="16" viewBox="0 0 16 16" fill="none" xmlns="http://www.w3.org/2000/svg">
<path d="M10.0013 1.33325H4.0013C3.64768 1.33325 3.30854 1.47373 3.05849 1.72378C2.80844 1.97382 2.66797 2.31296 2.66797 2.66659V13.3333C2.66797 13.6869 2.80844 14.026 3.05849 14.2761C3.30854 14.5261 3.64768 14.6666 4.0013 14.6666H12.0013C12.3549 14.6666 12.6941 14.5261 12.9441 14.2761C13.1942 14.026 13.3346 13.6869 13.3346 13.3333V4.66659L10.0013 1.33325Z" stroke="#4A5565" stroke-width="1.16667" stroke-linecap="round" stroke-linejoin="round"/>
<path d="M9.33203 1.33325V3.99992C9.33203 4.35354 9.47251 4.69268 9.72256 4.94273C9.9726 5.19278 10.3117 5.33325 10.6654 5.33325H13.332" stroke="#4A5565" stroke-width="1.16667" stroke-linecap="round" stroke-linejoin="round"/>
<path d="M6.66536 6H5.33203" stroke="#4A5565" stroke-width="1.16667" stroke-linecap="round" stroke-linejoin="round"/>
<path d="M10.6654 8.66675H5.33203" stroke="#4A5565" stroke-width="1.16667" stroke-linecap="round" stroke-linejoin="round"/>
<path d="M10.6654 11.3333H5.33203" stroke="#4A5565" stroke-width="1.16667" stroke-linecap="round" stroke-linejoin="round"/>
</svg>
