<svg width="1032" height="233" viewBox="0 0 1032 233" fill="none" xmlns="http://www.w3.org/2000/svg">
<g clip-path="url(#clip0_2846_77868)">
<path d="M87.797 0H41.6074V232.994H87.797V0Z" fill="#E6E7E8"/>
<path d="M263.533 75.9886C257.41 69.1045 249.874 63.6228 241.438 59.9177C233.196 56.3468 224.303 54.5203 215.32 54.5532C205.375 54.5206 195.564 56.8583 186.702 61.3725C177.672 66.0343 170.004 72.9577 164.448 81.4668V57.2354H119.918V232.992H164.448V139.59C164.308 132.503 165.322 125.44 167.449 118.678C169.197 113.27 172.001 108.263 175.7 103.948C179.021 100.144 183.133 97.1103 187.748 95.06C192.35 93.0799 197.308 92.0587 202.318 92.0587C207.329 92.0587 212.286 93.0799 216.889 95.06C221.5 97.116 225.611 100.148 228.936 103.948C232.594 108.273 235.36 113.279 237.074 118.678C239.201 125.44 240.214 132.503 240.075 139.59V232.992H284.605V140.931C284.851 128.039 282.922 115.198 278.899 102.948C275.642 93.0197 270.415 83.8506 263.533 75.9886Z" fill="#E6E7E8"/>
<path d="M359.62 187.801C356.741 185.346 355.301 180.55 355.301 173.413V8.70312H310.748V176.754C310.748 196.454 316.105 210.737 326.819 219.602C337.533 228.467 351.816 232.93 369.667 232.991H407.583V191.484H375.759C367.909 191.484 362.529 190.256 359.62 187.801Z" fill="#E6E7E8"/>
<path d="M363.973 79.334L407.503 102.111V51.5566L363.973 74.3105V79.334Z" fill="#E6E7E8"/>
<path d="M580.052 76.1455C571.804 67.7115 561.96 61.0043 551.093 56.4149C539.592 51.5436 527.212 49.0908 514.723 49.2092C502.576 49.1027 490.53 51.4315 479.298 56.0579C468.066 60.6843 457.874 67.5147 449.326 76.1455C432.25 93.5045 422.744 116.92 422.889 141.27C422.795 153.504 425.184 165.629 429.913 176.912C434.476 187.77 441.064 197.66 449.326 206.054C462.463 218.994 479.128 227.769 497.231 231.279C515.335 234.789 534.071 232.877 551.093 225.784C561.96 221.195 571.804 214.488 580.052 206.054C588.228 197.623 594.758 187.74 599.305 176.912C604.034 165.629 606.424 153.504 606.329 141.27C606.415 128.978 604.026 116.795 599.305 105.446C594.788 94.555 588.256 84.6143 580.052 76.1455ZM556.957 160.023C554.706 165.664 551.413 170.83 547.251 175.253C543.075 179.618 538.097 183.137 532.59 185.618C526.902 188.152 520.745 189.461 514.518 189.461C508.292 189.461 502.135 188.152 496.447 185.618C491.007 183.159 486.114 179.635 482.058 175.253C473.569 165.981 468.9 153.841 468.988 141.27C468.948 134.799 470.144 128.38 472.511 122.358C474.712 116.674 477.95 111.448 482.058 106.946C486.114 102.565 491.007 99.04 496.447 96.5808C502.131 94.0335 508.29 92.7167 514.518 92.7167C520.747 92.7167 526.906 94.0335 532.59 96.5808C538.065 99.0718 543.011 102.591 547.16 106.946C551.349 111.417 554.644 116.648 556.866 122.358C559.234 128.38 560.429 134.799 560.39 141.27C560.464 147.684 559.299 154.052 556.957 160.023Z" fill="#E6E7E8"/>
<path d="M652.901 232.999C664.551 232.999 673.996 223.555 673.996 211.905C673.996 200.255 664.551 190.811 652.901 190.811C641.251 190.811 631.807 200.255 631.807 211.905C631.807 223.555 641.251 232.999 652.901 232.999Z" fill="#E6E7E8"/>
<path d="M87.797 0H41.6074V232.994H87.797V0Z" fill="url(#paint0_linear_2846_77868)"/>
<path d="M263.533 75.9886C257.41 69.1045 249.874 63.6228 241.438 59.9177C233.196 56.3468 224.303 54.5203 215.32 54.5532C205.375 54.5206 195.564 56.8583 186.702 61.3725C177.672 66.0343 170.004 72.9577 164.448 81.4668V57.2354H119.918V232.992H164.448V139.59C164.308 132.503 165.322 125.44 167.449 118.678C169.197 113.27 172.001 108.263 175.7 103.948C179.021 100.144 183.133 97.1103 187.748 95.06C192.35 93.0799 197.308 92.0587 202.318 92.0587C207.329 92.0587 212.286 93.0799 216.889 95.06C221.5 97.116 225.611 100.148 228.936 103.948C232.594 108.273 235.36 113.279 237.074 118.678C239.201 125.44 240.214 132.503 240.075 139.59V232.992H284.605V140.931C284.851 128.039 282.922 115.198 278.899 102.948C275.642 93.0197 270.415 83.8506 263.533 75.9886Z" fill="url(#paint1_linear_2846_77868)"/>
<path d="M359.62 187.801C356.741 185.346 355.301 180.55 355.301 173.413V8.70312H310.748V176.754C310.748 196.454 316.105 210.737 326.819 219.602C337.533 228.467 351.816 232.93 369.667 232.991H407.583V191.484H375.759C367.909 191.484 362.529 190.256 359.62 187.801Z" fill="url(#paint2_linear_2846_77868)"/>
<path d="M363.973 79.334L407.503 102.111V51.5566L363.973 74.3105V79.334Z" fill="url(#paint3_linear_2846_77868)"/>
<path d="M580.052 76.1455C571.804 67.7115 561.96 61.0043 551.093 56.4149C539.592 51.5436 527.212 49.0908 514.723 49.2092C502.576 49.1027 490.53 51.4315 479.298 56.0579C468.066 60.6843 457.874 67.5147 449.326 76.1455C432.25 93.5045 422.744 116.92 422.889 141.27C422.795 153.504 425.184 165.629 429.913 176.912C434.476 187.77 441.064 197.66 449.326 206.054C462.463 218.994 479.128 227.769 497.231 231.279C515.335 234.789 534.071 232.877 551.093 225.784C561.96 221.195 571.804 214.488 580.052 206.054C588.228 197.623 594.758 187.74 599.305 176.912C604.034 165.629 606.424 153.504 606.329 141.27C606.415 128.978 604.026 116.795 599.305 105.446C594.788 94.555 588.256 84.6143 580.052 76.1455ZM556.957 160.023C554.706 165.664 551.413 170.83 547.251 175.253C543.075 179.618 538.097 183.137 532.59 185.618C526.902 188.152 520.745 189.461 514.518 189.461C508.292 189.461 502.135 188.152 496.447 185.618C491.007 183.159 486.114 179.635 482.058 175.253C473.569 165.981 468.9 153.841 468.988 141.27C468.948 134.799 470.144 128.38 472.511 122.358C474.712 116.674 477.95 111.448 482.058 106.946C486.114 102.565 491.007 99.04 496.447 96.5808C502.131 94.0335 508.29 92.7167 514.518 92.7167C520.747 92.7167 526.906 94.0335 532.59 96.5808C538.065 99.0718 543.011 102.591 547.16 106.946C551.349 111.417 554.644 116.648 556.866 122.358C559.234 128.38 560.429 134.799 560.39 141.27C560.464 147.684 559.299 154.052 556.957 160.023Z" fill="url(#paint4_linear_2846_77868)"/>
<path d="M652.901 232.999C664.551 232.999 673.996 223.555 673.996 211.905C673.996 200.255 664.551 190.811 652.901 190.811C641.251 190.811 631.807 200.255 631.807 211.905C631.807 223.555 641.251 232.999 652.901 232.999Z" fill="url(#paint5_linear_2846_77868)"/>
<path d="M957.019 47.1898L989.865 33.8011V0H943.857V232.994H990.047V47.1898H957.019Z" fill="#E6E7E8"/>
<path d="M813.498 4.68359L698.342 232.995H742.19L759.261 199.512H802.382V160.346H779.014L813.157 92.3802L846.98 160.346H823.977V199.512H866.734L883.123 232.995H926.994L813.498 4.68359Z" fill="#231F20"/>
<path d="M957.019 47.1898L989.865 33.8011V0H943.857V232.994H990.047V47.1898H957.019Z" fill="url(#paint6_linear_2846_77868)"/>
<path d="M813.498 4.68359L698.342 232.995H742.19L759.261 199.512H802.382V160.346H779.014L813.157 92.3802L846.98 160.346H823.977V199.512H866.734L883.123 232.995H926.994L813.498 4.68359Z" fill="url(#paint7_linear_2846_77868)"/>
</g>
<defs>
<linearGradient id="paint0_linear_2846_77868" x1="41.6074" y1="116.497" x2="673.986" y2="116.497" gradientUnits="userSpaceOnUse">
<stop stop-color="#35A1DA"/>
<stop offset="0.52" stop-color="#D4549F"/>
<stop offset="1" stop-color="#F15A22"/>
</linearGradient>
<linearGradient id="paint1_linear_2846_77868" x1="41.5866" y1="116.495" x2="673.966" y2="116.495" gradientUnits="userSpaceOnUse">
<stop stop-color="#35A1DA"/>
<stop offset="0.52" stop-color="#D4549F"/>
<stop offset="1" stop-color="#F15A22"/>
</linearGradient>
<linearGradient id="paint2_linear_2846_77868" x1="41.6119" y1="116.494" x2="673.991" y2="116.494" gradientUnits="userSpaceOnUse">
<stop stop-color="#35A1DA"/>
<stop offset="0.52" stop-color="#D4549F"/>
<stop offset="1" stop-color="#F15A22"/>
</linearGradient>
<linearGradient id="paint3_linear_2846_77868" x1="41.6004" y1="116.499" x2="673.979" y2="116.499" gradientUnits="userSpaceOnUse">
<stop stop-color="#35A1DA"/>
<stop offset="0.52" stop-color="#D4549F"/>
<stop offset="1" stop-color="#F15A22"/>
</linearGradient>
<linearGradient id="paint4_linear_2846_77868" x1="41.5981" y1="116.493" x2="673.977" y2="116.493" gradientUnits="userSpaceOnUse">
<stop stop-color="#35A1DA"/>
<stop offset="0.52" stop-color="#D4549F"/>
<stop offset="1" stop-color="#F15A22"/>
</linearGradient>
<linearGradient id="paint5_linear_2846_77868" x1="41.6166" y1="116.503" x2="673.996" y2="116.503" gradientUnits="userSpaceOnUse">
<stop stop-color="#35A1DA"/>
<stop offset="0.52" stop-color="#D4549F"/>
<stop offset="1" stop-color="#F15A22"/>
</linearGradient>
<linearGradient id="paint6_linear_2846_77868" x1="685.768" y1="214.877" x2="1038.12" y2="58.2143" gradientUnits="userSpaceOnUse">
<stop stop-color="#3A4E9E"/>
<stop offset="0.65" stop-color="#D4549F"/>
<stop offset="1" stop-color="#BC368E"/>
</linearGradient>
<linearGradient id="paint7_linear_2846_77868" x1="685.749" y1="214.878" x2="1038.1" y2="58.2153" gradientUnits="userSpaceOnUse">
<stop stop-color="#3A4E9E"/>
<stop offset="0.65" stop-color="#D4549F"/>
<stop offset="1" stop-color="#BC368E"/>
</linearGradient>
<clipPath id="clip0_2846_77868">
<rect width="1031.65" height="232.999" fill="white"/>
</clipPath>
</defs>
</svg>
