<svg width="30" height="30" viewBox="0 0 30 30" fill="none" xmlns="http://www.w3.org/2000/svg">
<rect width="30" height="30" rx="15" fill="#DED8D3"/>
<g clip-path="url(#clip0_5761_80003)">
<path d="M14.0721 19.4255C13.1458 20.3861 11.6371 20.4748 10.6047 19.6292C9.98986 19.0968 9.67579 18.2964 9.76456 17.4879C9.84144 16.8919 10.12 16.3401 10.554 15.9243L12.232 14.2452C12.5736 13.9034 12.5736 13.3494 12.232 13.0077C11.8902 12.6661 11.3362 12.6661 10.9945 13.0077L9.35209 14.6507C8.60344 15.3726 8.13132 16.3339 8.01774 17.3677C7.80559 19.6962 9.52116 21.7557 11.8496 21.9679C13.1 22.0818 14.3365 21.6348 15.225 20.7476L16.98 18.9932C17.3216 18.6515 17.3216 18.0975 16.98 17.7557C16.6382 17.4141 16.0843 17.4141 15.7425 17.7557L14.0721 19.4255Z" fill="#808080"/>
<path d="M20.3429 8.85581C18.6006 7.57572 16.1812 7.7764 14.6736 9.32607L13.0219 10.9784C12.6802 11.3201 12.6802 11.8741 13.0219 12.2159C13.3636 12.5575 13.9176 12.5575 14.2593 12.2159L15.9373 10.5396C16.8435 9.60246 18.3095 9.49689 19.3405 10.2946C20.4018 11.1648 20.5566 12.7305 19.6865 13.7917C19.6355 13.8538 19.5816 13.9134 19.5249 13.9703L17.7699 15.7253C17.4283 16.067 17.4283 16.621 17.7699 16.9628C18.1116 17.3044 18.6656 17.3044 19.0074 16.9628L20.7624 15.2077C22.4146 13.5502 22.4103 10.8672 20.7528 9.21495C20.6241 9.08658 20.4871 8.96663 20.3429 8.85581Z" fill="#808080"/>
<path d="M13.022 15.7267L15.7411 13.0076C16.0829 12.6658 16.637 12.6658 16.9788 13.0076C17.3206 13.3493 17.3206 13.9034 16.9788 14.2452L14.2596 16.9644C13.9179 17.3062 13.3637 17.3062 13.022 16.9644C12.6802 16.6226 12.6802 16.0685 13.022 15.7267Z" fill="#808080"/>
</g>
<defs>
<clipPath id="clip0_5761_80003">
<rect width="14" height="14" fill="white" transform="translate(8 8)"/>
</clipPath>
</defs>
</svg>
