<svg width="49" height="48" viewBox="0 0 49 48" fill="none" xmlns="http://www.w3.org/2000/svg">
<g clip-path="url(#clip0_2673_77764)">
<path d="M37.25 0H11.75C5.5368 0 0.5 5.0368 0.5 11.25V36.75C0.5 42.9632 5.5368 48 11.75 48H37.25C43.4632 48 48.5 42.9632 48.5 36.75V11.25C48.5 5.0368 43.4632 0 37.25 0Z" fill="white"/>
<path d="M37.25 0H11.75C5.5368 0 0.5 5.0368 0.5 11.25V36.75C0.5 42.9632 5.5368 48 11.75 48H37.25C43.4632 48 48.5 42.9632 48.5 36.75V11.25C48.5 5.0368 43.4632 0 37.25 0Z" fill="#0A66C2"/>
<path d="M35.1341 40.8159H40.6222C40.8211 40.8159 41.0118 40.7369 41.1525 40.5963C41.2931 40.4557 41.3721 40.265 41.3722 40.0661L41.375 28.4707C41.375 22.4102 40.0691 17.7518 32.9866 17.7518C30.2943 17.6516 27.7554 19.0395 26.3853 21.357C26.3786 21.3683 26.3684 21.377 26.3563 21.3819C26.3441 21.3869 26.3307 21.3877 26.3181 21.3842C26.3054 21.3808 26.2943 21.3734 26.2863 21.363C26.2782 21.3526 26.2739 21.3399 26.2738 21.3268V19.0613C26.2738 18.8623 26.1947 18.6716 26.0541 18.5309C25.9134 18.3903 25.7227 18.3113 25.5238 18.3113H20.3156C20.1166 18.3113 19.9259 18.3903 19.7852 18.5309C19.6446 18.6716 19.5656 18.8623 19.5656 19.0613V40.065C19.5656 40.2639 19.6446 40.4547 19.7852 40.5953C19.9259 40.736 20.1166 40.815 20.3156 40.815H25.8033C26.0022 40.815 26.193 40.736 26.3336 40.5953C26.4743 40.4547 26.5533 40.2639 26.5533 40.065V29.6826C26.5533 26.7469 27.1102 23.9038 30.7498 23.9038C34.3376 23.9038 34.3841 27.2631 34.3841 29.8727V40.0659C34.3841 40.2648 34.4631 40.4556 34.6037 40.5963C34.7444 40.7369 34.9351 40.8159 35.1341 40.8159ZM7.625 11.1802C7.625 13.4047 9.45631 15.2351 11.681 15.2351C13.9051 15.2349 15.7353 13.4034 15.7353 11.1793C15.7349 8.95519 13.9046 7.125 11.6802 7.125C9.45537 7.125 7.625 8.95575 7.625 11.1802ZM8.92981 40.8159H14.4249C14.6238 40.8159 14.8146 40.7369 14.9552 40.5963C15.0959 40.4556 15.1749 40.2648 15.1749 40.0659V19.0613C15.1749 18.8623 15.0959 18.6716 14.9552 18.5309C14.8146 18.3903 14.6238 18.3113 14.4249 18.3113H8.92981C8.7309 18.3113 8.54013 18.3903 8.39948 18.5309C8.25883 18.6716 8.17981 18.8623 8.17981 19.0613V40.0659C8.17981 40.2648 8.25883 40.4556 8.39948 40.5963C8.54013 40.7369 8.7309 40.8159 8.92981 40.8159Z" fill="white"/>
</g>
<defs>
<clipPath id="clip0_2673_77764">
<rect width="48" height="48" fill="white" transform="translate(0.5)"/>
</clipPath>
</defs>
</svg>
