<svg width="78" height="78" viewBox="0 0 78 78" fill="none" xmlns="http://www.w3.org/2000/svg">
<circle cx="39" cy="39" r="39" fill="white"/>
<path d="M10.1168 31H7V46.722H10.1168V31Z" fill="#E6E7E8"/>
<path d="M21.976 36.1276C21.5629 35.6631 21.0543 35.2932 20.4851 35.0432C19.9289 34.8022 19.3289 34.679 18.7227 34.6812C18.0516 34.679 17.3896 34.8367 16.7916 35.1413C16.1823 35.4559 15.6649 35.9231 15.29 36.4973V34.8622H12.2852V46.7219H15.29V40.4193C15.2805 39.9411 15.3489 39.4645 15.4924 39.0082C15.6104 38.6433 15.7997 38.3054 16.0492 38.0142C16.2733 37.7575 16.5508 37.5529 16.8622 37.4145C17.1727 37.2809 17.5073 37.212 17.8454 37.212C18.1835 37.212 18.518 37.2809 18.8286 37.4145C19.1398 37.5532 19.4171 37.7579 19.6415 38.0142C19.8884 38.3061 20.075 38.6439 20.1906 39.0082C20.3342 39.4645 20.4025 39.9411 20.3931 40.4193V46.7219H23.3979V40.5098C23.4145 39.6399 23.2843 38.7734 23.0129 37.9468C22.7931 37.2768 22.4404 36.6581 21.976 36.1276Z" fill="#E6E7E8"/>
<path d="M28.4579 43.6726C28.2637 43.507 28.1665 43.1833 28.1665 42.7017V31.5874H25.1602V42.9272C25.1602 44.2565 25.5216 45.2203 26.2446 45.8185C26.9675 46.4167 27.9313 46.7178 29.1359 46.7219H31.6944V43.9211H29.547C29.0173 43.9211 28.6543 43.8383 28.4579 43.6726Z" fill="#E6E7E8"/>
<path d="M28.7539 36.3534L31.6912 37.8903V34.479L28.7539 36.0144V36.3534Z" fill="#E6E7E8"/>
<path d="M43.3338 36.1382C42.7772 35.5691 42.1129 35.1165 41.3796 34.8068C40.6036 34.4781 39.7682 34.3126 38.9255 34.3206C38.1058 34.3134 37.293 34.4705 36.535 34.7827C35.7771 35.0949 35.0894 35.5558 34.5126 36.1382C33.3603 37.3096 32.7189 38.8896 32.7287 40.5327C32.7223 41.3582 32.8836 42.1764 33.2027 42.9378C33.5105 43.6704 33.9551 44.3378 34.5126 44.9042C35.3991 45.7774 36.5236 46.3695 37.7451 46.6063C38.9667 46.8432 40.231 46.7142 41.3796 46.2356C42.1129 45.9259 42.7772 45.4733 43.3338 44.9042C43.8855 44.3353 44.3261 43.6684 44.6329 42.9378C44.952 42.1764 45.1133 41.3582 45.1069 40.5327C45.1126 39.7033 44.9515 38.8812 44.6329 38.1153C44.3281 37.3804 43.8873 36.7097 43.3338 36.1382ZM41.7754 41.7981C41.6234 42.1787 41.4012 42.5273 41.1204 42.8258C40.8386 43.1203 40.5027 43.3578 40.1311 43.5252C39.7473 43.6962 39.3318 43.7845 38.9117 43.7845C38.4915 43.7845 38.076 43.6962 37.6922 43.5252C37.3251 43.3593 36.995 43.1215 36.7213 42.8258C36.1484 42.2001 35.8334 41.381 35.8394 40.5327C35.8367 40.0961 35.9174 39.6629 36.0771 39.2565C36.2256 38.873 36.4441 38.5204 36.7213 38.2166C36.995 37.9209 37.3251 37.6831 37.6922 37.5171C38.0758 37.3453 38.4914 37.2564 38.9117 37.2564C39.332 37.2564 39.7475 37.3453 40.1311 37.5171C40.5005 37.6852 40.8343 37.9227 41.1143 38.2166C41.3969 38.5183 41.6193 38.8713 41.7692 39.2565C41.929 39.6629 42.0096 40.0961 42.007 40.5327C42.012 40.9655 41.9334 41.3952 41.7754 41.7981Z" fill="#E6E7E8"/>
<path d="M48.2476 46.7218C49.0338 46.7218 49.671 46.0845 49.671 45.2984C49.671 44.5123 49.0338 43.875 48.2476 43.875C47.4615 43.875 46.8242 44.5123 46.8242 45.2984C46.8242 46.0845 47.4615 46.7218 48.2476 46.7218Z" fill="#E6E7E8"/>
<path d="M10.1168 31H7V46.722H10.1168V31Z" fill="url(#paint0_linear_2673_77824)"/>
<path d="M21.976 36.1276C21.5629 35.6631 21.0543 35.2932 20.4851 35.0432C19.9289 34.8022 19.3289 34.679 18.7227 34.6812C18.0516 34.679 17.3896 34.8367 16.7916 35.1413C16.1823 35.4559 15.6649 35.9231 15.29 36.4973V34.8622H12.2852V46.7219H15.29V40.4193C15.2805 39.9411 15.3489 39.4645 15.4924 39.0082C15.6104 38.6433 15.7997 38.3054 16.0492 38.0142C16.2733 37.7575 16.5508 37.5529 16.8622 37.4145C17.1727 37.2809 17.5073 37.212 17.8454 37.212C18.1835 37.212 18.518 37.2809 18.8286 37.4145C19.1398 37.5532 19.4171 37.7579 19.6415 38.0142C19.8884 38.3061 20.075 38.6439 20.1906 39.0082C20.3342 39.4645 20.4025 39.9411 20.3931 40.4193V46.7219H23.3979V40.5098C23.4145 39.6399 23.2843 38.7734 23.0129 37.9468C22.7931 37.2768 22.4404 36.6581 21.976 36.1276Z" fill="url(#paint1_linear_2673_77824)"/>
<path d="M28.4579 43.6726C28.2637 43.507 28.1665 43.1833 28.1665 42.7017V31.5874H25.1602V42.9272C25.1602 44.2565 25.5216 45.2203 26.2446 45.8185C26.9675 46.4167 27.9313 46.7178 29.1359 46.7219H31.6944V43.9211H29.547C29.0173 43.9211 28.6543 43.8383 28.4579 43.6726Z" fill="url(#paint2_linear_2673_77824)"/>
<path d="M28.7539 36.3534L31.6912 37.8903V34.479L28.7539 36.0144V36.3534Z" fill="url(#paint3_linear_2673_77824)"/>
<path d="M43.3338 36.1382C42.7772 35.5691 42.1129 35.1165 41.3796 34.8068C40.6036 34.4781 39.7682 34.3126 38.9255 34.3206C38.1058 34.3134 37.293 34.4705 36.535 34.7827C35.7771 35.0949 35.0894 35.5558 34.5126 36.1382C33.3603 37.3096 32.7189 38.8896 32.7287 40.5327C32.7223 41.3582 32.8836 42.1764 33.2027 42.9378C33.5105 43.6704 33.9551 44.3378 34.5126 44.9042C35.3991 45.7774 36.5236 46.3695 37.7451 46.6063C38.9667 46.8432 40.231 46.7142 41.3796 46.2356C42.1129 45.9259 42.7772 45.4733 43.3338 44.9042C43.8855 44.3353 44.3261 43.6684 44.6329 42.9378C44.952 42.1764 45.1133 41.3582 45.1069 40.5327C45.1126 39.7033 44.9515 38.8812 44.6329 38.1153C44.3281 37.3804 43.8873 36.7097 43.3338 36.1382ZM41.7754 41.7981C41.6234 42.1787 41.4012 42.5273 41.1204 42.8258C40.8386 43.1203 40.5027 43.3578 40.1311 43.5252C39.7473 43.6962 39.3318 43.7845 38.9117 43.7845C38.4915 43.7845 38.076 43.6962 37.6922 43.5252C37.3251 43.3593 36.995 43.1215 36.7213 42.8258C36.1484 42.2001 35.8334 41.381 35.8394 40.5327C35.8367 40.0961 35.9174 39.6629 36.0771 39.2565C36.2256 38.873 36.4441 38.5204 36.7213 38.2166C36.995 37.9209 37.3251 37.6831 37.6922 37.5171C38.0758 37.3453 38.4914 37.2564 38.9117 37.2564C39.332 37.2564 39.7475 37.3453 40.1311 37.5171C40.5005 37.6852 40.8343 37.9227 41.1143 38.2166C41.3969 38.5183 41.6193 38.8713 41.7692 39.2565C41.929 39.6629 42.0096 40.0961 42.007 40.5327C42.012 40.9655 41.9334 41.3952 41.7754 41.7981Z" fill="url(#paint4_linear_2673_77824)"/>
<path d="M48.2476 46.7218C49.0338 46.7218 49.671 46.0845 49.671 45.2984C49.671 44.5123 49.0338 43.875 48.2476 43.875C47.4615 43.875 46.8242 44.5123 46.8242 45.2984C46.8242 46.0845 47.4615 46.7218 48.2476 46.7218Z" fill="url(#paint5_linear_2673_77824)"/>
<path d="M68.7709 34.1843L70.9873 33.2808V31H67.8828V46.722H70.9996V34.1843H68.7709Z" fill="#E6E7E8"/>
<path d="M59.0889 31.3159L51.3184 46.7219H54.2772L55.4291 44.4626H58.3388V41.8197H56.762L59.0659 37.2335L61.3482 41.8197H59.796V44.4626H62.6811L63.787 46.7219H66.7474L59.0889 31.3159Z" fill="#231F20"/>
<path d="M68.7709 34.1843L70.9873 33.2808V31H67.8828V46.722H70.9996V34.1843H68.7709Z" fill="url(#paint6_linear_2673_77824)"/>
<path d="M59.0889 31.3159L51.3184 46.7219H54.2772L55.4291 44.4626H58.3388V41.8197H56.762L59.0659 37.2335L61.3482 41.8197H59.796V44.4626H62.6811L63.787 46.7219H66.7474L59.0889 31.3159Z" fill="url(#paint7_linear_2673_77824)"/>
<defs>
<linearGradient id="paint0_linear_2673_77824" x1="7" y1="38.861" x2="49.6718" y2="38.861" gradientUnits="userSpaceOnUse">
<stop stop-color="#35A1DA"/>
<stop offset="0.52" stop-color="#D4549F"/>
<stop offset="1" stop-color="#F15A22"/>
</linearGradient>
<linearGradient id="paint1_linear_2673_77824" x1="6.9995" y1="38.8609" x2="49.6713" y2="38.8609" gradientUnits="userSpaceOnUse">
<stop stop-color="#35A1DA"/>
<stop offset="0.52" stop-color="#D4549F"/>
<stop offset="1" stop-color="#F15A22"/>
</linearGradient>
<linearGradient id="paint2_linear_2673_77824" x1="6.99934" y1="38.8609" x2="49.6711" y2="38.8609" gradientUnits="userSpaceOnUse">
<stop stop-color="#35A1DA"/>
<stop offset="0.52" stop-color="#D4549F"/>
<stop offset="1" stop-color="#F15A22"/>
</linearGradient>
<linearGradient id="paint3_linear_2673_77824" x1="7.00082" y1="38.8612" x2="49.6726" y2="38.8612" gradientUnits="userSpaceOnUse">
<stop stop-color="#35A1DA"/>
<stop offset="0.52" stop-color="#D4549F"/>
<stop offset="1" stop-color="#F15A22"/>
</linearGradient>
<linearGradient id="paint4_linear_2673_77824" x1="6.99985" y1="38.8608" x2="49.6716" y2="38.8608" gradientUnits="userSpaceOnUse">
<stop stop-color="#35A1DA"/>
<stop offset="0.52" stop-color="#D4549F"/>
<stop offset="1" stop-color="#F15A22"/>
</linearGradient>
<linearGradient id="paint5_linear_2673_77824" x1="6.99927" y1="38.8608" x2="49.671" y2="38.8608" gradientUnits="userSpaceOnUse">
<stop stop-color="#35A1DA"/>
<stop offset="0.52" stop-color="#D4549F"/>
<stop offset="1" stop-color="#F15A22"/>
</linearGradient>
<linearGradient id="paint6_linear_2673_77824" x1="50.4674" y1="45.4995" x2="74.2437" y2="34.9282" gradientUnits="userSpaceOnUse">
<stop stop-color="#3A4E9E"/>
<stop offset="0.65" stop-color="#D4549F"/>
<stop offset="1" stop-color="#BC368E"/>
</linearGradient>
<linearGradient id="paint7_linear_2673_77824" x1="50.4686" y1="45.4995" x2="74.2449" y2="34.9281" gradientUnits="userSpaceOnUse">
<stop stop-color="#3A4E9E"/>
<stop offset="0.65" stop-color="#D4549F"/>
<stop offset="1" stop-color="#BC368E"/>
</linearGradient>
</defs>
</svg>
