<svg width="46" height="44" viewBox="0 0 46 44" fill="none" xmlns="http://www.w3.org/2000/svg">
<path d="M25.6326 22.116C23.993 22.116 22.665 20.788 22.665 19.1484V13.688H2.96759C1.328 13.688 0 15.016 0 16.6556V36.2269C0 37.8665 1.328 39.1945 2.96759 39.1945H6.49903V43.0672L11.9891 39.1945H32.2503C33.8899 39.1945 35.2179 37.8665 35.2179 36.2269V22.116H25.6326Z" fill="#4F7CE7"/>
<path d="M11.4737 30.0174C10.6354 30.0174 9.85639 29.7577 9.21094 29.32V30.4329C9.21094 31.6792 10.2199 32.6956 11.4737 32.6956C12.7201 32.6956 13.7365 31.6867 13.7365 30.4329V29.32C13.0911 29.7577 12.3121 30.0174 11.4737 30.0174Z" fill="#E6D9C0"/>
<path d="M19.5351 36.212C19.5351 35.8708 19.5351 35.4405 19.5277 34.9137C19.5203 32.9625 18.1255 31.2858 16.204 30.9371C15.4473 30.7962 14.6089 30.6107 13.7335 30.3733V30.4326C13.7335 31.679 12.7245 32.6954 11.4707 32.6954C10.2169 32.6954 9.2079 31.6865 9.2079 30.4326V30.3733C8.33246 30.6181 7.48669 30.7962 6.73738 30.9371C4.81586 31.2932 3.42109 32.9625 3.41367 34.9137C3.41367 35.433 3.41367 35.8633 3.40625 36.212H19.5351Z" fill="#C3B8C3"/>
<path d="M7.78709 23.7852C7.86128 23.0655 7.91321 22.2791 7.89837 21.5372C7.89837 21.5372 11.1182 22.5685 14.4197 20.5505C14.4197 20.5505 14.7609 22.5462 15.3174 23.0655C15.3174 23.0655 15.3025 23.3623 15.3025 23.7778H16.2744C17.7063 18.2209 13.9968 17.8648 13.9968 17.8648C13.3958 17.1674 12.0753 16.4997 9.22637 17.3826C6.18458 18.3174 6.26619 21.5298 6.74843 23.7852H7.78709Z" fill="#0E4B5C"/>
<path d="M16.3669 23.3182C16.3298 23.474 16.3075 23.6223 16.263 23.7855H15.2911C15.2985 23.3701 15.306 23.0733 15.306 23.0733C14.7495 22.5466 14.4083 20.5583 14.4083 20.5583C11.1068 22.5763 7.88697 21.545 7.88697 21.545C7.90181 22.2795 7.84987 23.0733 7.77568 23.793H6.73703C6.69993 23.6223 6.67026 23.4443 6.64058 23.2662C5.95803 23.6817 5.62418 24.6165 6.18802 25.5216C6.44769 25.9371 6.93734 26.1522 7.42699 26.1003H7.43441C7.50118 28.274 9.28174 30.0175 11.4703 30.0175C13.6589 30.0175 15.4395 28.274 15.5063 26.1003H15.5137C15.9959 26.1448 16.493 25.9371 16.7527 25.529C17.3017 24.6387 17.0049 23.7485 16.3669 23.3182Z" fill="#E6D9C0"/>
<path d="M24.1752 0H10.4871C8.84753 0 7.51953 1.328 7.51953 2.9676V5.82391C7.51953 7.4635 8.84753 8.7915 10.4871 8.7915H11.7854V11.1804L15.0498 8.7915H24.1677C25.8073 8.7915 27.1353 7.4635 27.1353 5.82391V2.9676C27.1428 1.328 25.8148 0 24.1752 0Z" fill="#85CDA2"/>
<path d="M43.0331 6.26142H27.0971C26.882 7.68587 25.6652 8.78388 24.174 8.78388H22.7125C22.6902 8.93226 22.668 9.07322 22.668 9.22902V19.1408C22.668 20.7804 23.996 22.1084 25.6356 22.1084H37.7285L41.7348 25.2392V22.1084H43.0331C44.6727 22.1084 46.0007 20.7804 46.0007 19.1408V7.74522C46.0007 6.10562 44.6727 6.26142 43.0331 6.26142Z" fill="#FFC040"/>
<path d="M41.9306 11.7294H26.7439C26.4397 11.7294 26.1875 11.4772 26.1875 11.173C26.1875 10.8688 26.4397 10.6166 26.7439 10.6166H41.9306C42.2348 10.6166 42.487 10.8688 42.487 11.173C42.487 11.4772 42.2348 11.7294 41.9306 11.7294Z" fill="white"/>
<path d="M41.9306 14.7418H26.7439C26.4397 14.7418 26.1875 14.4895 26.1875 14.1853C26.1875 13.8812 26.4397 13.6289 26.7439 13.6289H41.9306C42.2348 13.6289 42.487 13.8812 42.487 14.1853C42.487 14.4895 42.2348 14.7418 41.9306 14.7418Z" fill="white"/>
<path d="M36.4702 17.7538H26.7439C26.4397 17.7538 26.1875 17.5016 26.1875 17.1974C26.1875 16.8932 26.4397 16.641 26.7439 16.641H36.4702C36.7744 16.641 37.0266 16.8932 37.0266 17.1974C37.0266 17.5016 36.7744 17.7538 36.4702 17.7538Z" fill="white"/>
<path d="M31.8221 26.5453H20.8494C20.5452 26.5453 20.293 26.3005 20.293 25.9889C20.293 25.6847 20.5452 25.4324 20.8494 25.4324H31.8221C32.1263 25.4324 32.3785 25.6847 32.3785 25.9889C32.3785 26.293 32.1337 26.5453 31.8221 26.5453Z" fill="white"/>
<path d="M31.8221 29.6761H20.8494C20.5452 29.6761 20.293 29.4239 20.293 29.1197C20.293 28.8155 20.5452 28.5633 20.8494 28.5633H31.8221C32.1263 28.5633 32.3785 28.8155 32.3785 29.1197C32.3785 29.4239 32.1337 29.6761 31.8221 29.6761Z" fill="white"/>
<path d="M31.8235 32.8067H24.5603C24.2562 32.8067 24.0039 32.5545 24.0039 32.2503C24.0039 31.9461 24.2562 31.6938 24.5603 31.6938H31.8235C32.1277 31.6938 32.3799 31.9461 32.3799 32.2503C32.3799 32.5545 32.1351 32.8067 31.8235 32.8067Z" fill="white"/>
<path d="M11.4729 27.4429C10.961 27.4429 10.4417 27.25 10.0559 26.8568C9.84074 26.6417 9.84074 26.2856 10.0559 26.0704C10.271 25.8553 10.6272 25.8553 10.8423 26.0704C11.191 26.4191 11.7623 26.4191 12.111 26.0704C12.3261 25.8553 12.6822 25.8553 12.8974 26.0704C13.1125 26.2856 13.1125 26.6417 12.8974 26.8568C12.5042 27.25 11.9922 27.4429 11.4729 27.4429Z" fill="white"/>
<path d="M23.0723 3.27166H11.5877C11.2835 3.27166 11.0312 3.01942 11.0312 2.71524C11.0312 2.41106 11.2835 2.15881 11.5877 2.15881H23.0649C23.369 2.15881 23.6213 2.41106 23.6213 2.71524C23.6287 3.02684 23.3764 3.27166 23.0723 3.27166Z" fill="white"/>
<path d="M20.1047 5.99444H11.5877C11.2835 5.99444 11.0312 5.74219 11.0312 5.43802C11.0312 5.13384 11.2835 4.88159 11.5877 4.88159H20.0973C20.4014 4.88159 20.6537 5.13384 20.6537 5.43802C20.6537 5.74219 20.4088 5.99444 20.1047 5.99444Z" fill="white"/>
<path d="M10.2752 24.8981C10.5825 24.8981 10.8316 24.649 10.8316 24.3417C10.8316 24.0344 10.5825 23.7853 10.2752 23.7853C9.96787 23.7853 9.71875 24.0344 9.71875 24.3417C9.71875 24.649 9.96787 24.8981 10.2752 24.8981Z" fill="#0D4353"/>
<path d="M12.6814 24.8981C12.9887 24.8981 13.2378 24.649 13.2378 24.3417C13.2378 24.0344 12.9887 23.7853 12.6814 23.7853C12.3741 23.7853 12.125 24.0344 12.125 24.3417C12.125 24.649 12.3741 24.8981 12.6814 24.8981Z" fill="#0D4353"/>
<path opacity="0.1" d="M13.6401 31.0483C13.692 30.8554 13.7365 30.6477 13.7365 30.4399V29.3271C13.0911 29.7648 12.3121 30.0245 11.4737 30.0245C10.6354 30.0245 9.85639 29.7648 9.21094 29.3271V30.4325C9.21094 30.6477 9.24803 30.848 9.30738 31.0409C9.97509 31.3228 10.7022 31.4934 11.4737 31.4934C12.2527 31.5009 12.9724 31.3302 13.6401 31.0483Z" fill="black"/>
<path opacity="0.1" d="M22.6674 19.1484V13.688H21.1836V19.1484C21.1836 21.604 23.1793 23.5998 25.635 23.5998H35.2203V22.116H25.635C23.9954 22.116 22.6674 20.788 22.6674 19.1484Z" fill="black"/>
<path opacity="0.1" d="M24.174 10.2752C26.4813 10.2752 28.3806 8.51687 28.6032 6.26892H27.0971C26.882 7.69337 25.6652 8.79138 24.174 8.79138H22.7125C22.6902 8.93976 22.668 9.08072 22.668 9.23652V10.2752H24.174Z" fill="black"/>
</svg>
