<svg width="100" height="100" viewBox="0 0 100 100" fill="none" xmlns="http://www.w3.org/2000/svg">
<g clip-path="url(#clip0_2843_78007)">
<path fill-rule="evenodd" clip-rule="evenodd" d="M50 0C21.8334 0 0 20.632 0 48.5C0 63.0768 5.97402 75.6729 15.7027 84.373C16.5195 85.1041 17.0125 86.1281 17.0459 87.224L17.3182 96.118C17.4051 98.9551 20.3355 100.801 22.9316 99.6549L32.8559 95.2738C33.6971 94.9027 34.6398 94.8338 35.5264 95.0777C40.0869 96.3318 44.9406 96.9998 49.9998 96.9998C78.1662 96.9998 99.9998 76.3678 99.9998 48.4998C99.9998 20.6318 78.1664 0 50 0Z" fill="url(#paint0_radial_2843_78007)"/>
<path fill-rule="evenodd" clip-rule="evenodd" d="M19.9759 62.6833L34.6634 39.3814C36.9997 35.6743 42.0026 34.7513 45.5081 37.3804L57.1897 46.1417C58.2616 46.9458 59.7362 46.9413 60.8036 46.1314L76.5804 34.1579C78.6862 32.5599 81.4349 35.08 80.0257 37.3163L65.3382 60.6185C63.0017 64.3253 57.9987 65.2485 54.4935 62.6193L42.8114 53.8577C41.7397 53.054 40.2649 53.0583 39.1978 53.8683L23.421 65.8417C21.3151 67.4396 18.5663 64.9196 19.9759 62.6833Z" fill="white"/>
</g>
<defs>
<radialGradient id="paint0_radial_2843_78007" cx="0" cy="0" r="1" gradientUnits="userSpaceOnUse" gradientTransform="translate(19.2578 98.7859) scale(108.906 108.906)">
<stop stop-color="#0099FF"/>
<stop offset="0.6098" stop-color="#A033FF"/>
<stop offset="0.9348" stop-color="#FF5280"/>
<stop offset="1" stop-color="#FF7061"/>
</radialGradient>
<clipPath id="clip0_2843_78007">
<rect width="100" height="100" fill="white"/>
</clipPath>
</defs>
</svg>
