<svg width="100" height="100" viewBox="0 0 100 100" fill="none" xmlns="http://www.w3.org/2000/svg">
<g clip-path="url(#clip0_2843_78018)">
<path d="M19.4249 58.0998C19.4249 61.0724 20.0788 63.3546 20.9331 64.7352C22.0535 66.5436 23.7241 67.3096 25.4276 67.3096C27.6247 67.3096 29.6347 66.7653 33.5079 61.4187C36.6111 57.1334 40.2677 51.1178 42.7277 47.3468L46.8943 40.9578C49.7885 36.5207 53.1383 31.5884 56.9795 28.2448C60.1144 25.5159 63.497 24 66.901 24C72.6163 24 78.0602 27.3055 82.2268 33.5051C86.7864 40.2945 89 48.8466 89 57.672C89 62.9185 87.9641 66.7735 86.2008 69.8193C84.4973 72.7647 81.1771 75.7075 75.5922 75.7075V67.3096C80.3743 67.3096 81.5678 62.924 81.5678 57.9049C81.5678 50.7526 79.8969 42.8149 76.2162 37.1435C73.6038 33.1204 70.2188 30.6624 66.4946 30.6624C62.4666 30.6624 59.225 33.6942 55.5822 39.101C53.6456 41.9731 51.6572 45.4736 49.4251 49.4231L46.9674 53.7683C42.0306 62.5043 40.7802 64.494 38.3119 67.7779C33.9853 73.5283 30.2913 75.7075 25.4276 75.7075C19.6583 75.7075 16.0097 73.2139 13.7504 69.4565C11.9058 66.3946 11 62.3772 11 57.7994L19.4249 58.0998Z" fill="#0081FB"/>
<path d="M17.6426 34.0977C21.5054 28.1557 27.0794 24 33.4726 24C37.1755 24 40.8561 25.0938 44.6997 28.226C48.9038 31.6504 53.3849 37.2895 58.9753 46.5835L60.9801 49.9185C65.8189 57.9645 68.572 62.1035 70.1832 64.0558C72.2557 66.5625 73.7069 67.3096 75.592 67.3096C80.3741 67.3096 81.5675 62.924 81.5675 57.9049L88.9998 57.672C88.9998 62.9185 87.9639 66.7735 86.2006 69.8193C84.4971 72.7647 81.1769 75.7075 75.592 75.7075C72.1201 75.7075 69.0443 74.9548 65.6427 71.7521C63.0279 69.2941 59.971 64.9273 57.6191 61.0018L50.6235 49.3392C47.1138 43.4863 43.8938 39.1226 42.0307 37.146C40.0264 35.021 37.4494 32.4544 33.3373 32.4544C30.0092 32.4544 27.1826 34.7856 24.8174 38.3508L17.6426 34.0977Z" fill="url(#paint0_linear_2843_78018)"/>
<path d="M33.3372 32.4544C30.0091 32.4544 27.1826 34.7856 24.8173 38.3508C21.473 43.389 19.4249 50.8931 19.4249 58.0998C19.4249 61.0724 20.0788 63.3546 20.9331 64.7352L13.7504 69.4565C11.9058 66.3946 11 62.3772 11 57.7994C11 49.4745 13.2894 40.7981 17.6428 34.0977C21.5056 28.1557 27.0796 24 33.4728 24L33.3372 32.4544Z" fill="url(#paint1_linear_2843_78018)"/>
</g>
<defs>
<linearGradient id="paint0_linear_2843_78018" x1="1007.94" y1="2916.21" x2="6372.19" y2="3187.66" gradientUnits="userSpaceOnUse">
<stop stop-color="#0064E1"/>
<stop offset="0.4" stop-color="#0064E1"/>
<stop offset="0.83" stop-color="#0073EE"/>
<stop offset="1" stop-color="#0082FB"/>
</linearGradient>
<linearGradient id="paint1_linear_2843_78018" x1="1231.61" y1="3786.98" x2="1231.61" y2="1810.76" gradientUnits="userSpaceOnUse">
<stop stop-color="#0082FB"/>
<stop offset="1" stop-color="#0064E0"/>
</linearGradient>
<clipPath id="clip0_2843_78018">
<rect width="78" height="52" fill="white" transform="translate(11 24)"/>
</clipPath>
</defs>
</svg>
