<svg width="90" height="90" viewBox="0 0 90 90" fill="none" xmlns="http://www.w3.org/2000/svg">
<path d="M45.0167 0.130859C20.5112 0.130859 0.572266 20.0698 0.572266 44.5753C0.572266 52.3309 2.63338 59.9975 6.47227 66.6364C7.79449 69.1142 5.94449 77.7586 1.79449 81.9086C1.2257 82.4779 0.833937 83.1997 0.666536 83.9869C0.499135 84.774 0.563259 85.5928 0.85116 86.3443C1.13906 87.0958 1.63842 87.7478 2.2889 88.2216C2.93938 88.6954 3.71315 88.9707 4.51671 89.0142C4.9556 89.0364 5.4056 89.0475 5.8556 89.0475C12.2167 89.0475 19.9389 86.7864 24.9667 84.2086C31.1761 87.3738 38.0471 89.0225 45.0167 89.0198C69.5223 89.0198 89.4612 69.0809 89.4612 44.5753C89.4612 20.0698 69.5223 0.130859 45.0167 0.130859ZM42.2389 54.2975C42.2389 55.4026 41.7999 56.4624 41.0185 57.2438C40.2371 58.0252 39.1773 58.4642 38.0723 58.4642H26.9612C25.8561 58.4642 24.7963 58.0252 24.0149 57.2438C23.2335 56.4624 22.7945 55.4026 22.7945 54.2975V45.9642C22.7945 35.1142 26.5945 28.5864 34.75 25.4142C35.7657 25.0765 36.8723 25.1421 37.841 25.5974C38.8097 26.0527 39.5664 26.8628 39.9545 27.8603C40.3427 28.8578 40.3326 29.9663 39.9265 30.9566C39.5203 31.9469 38.7491 32.7432 37.7723 33.1809C34.9778 34.2642 32.2389 35.8753 31.3945 41.7975H38.0723C39.1773 41.7975 40.2371 42.2365 41.0185 43.0179C41.7999 43.7993 42.2389 44.8591 42.2389 45.9642V54.2975ZM67.2389 54.2975C67.2389 55.4026 66.7999 56.4624 66.0185 57.2438C65.2371 58.0252 64.1773 58.4642 63.0723 58.4642H51.9612C50.8561 58.4642 49.7963 58.0252 49.0149 57.2438C48.2335 56.4624 47.7945 55.4026 47.7945 54.2975V45.9642C47.7945 35.1142 51.5945 28.5864 59.75 25.4142C60.7657 25.0765 61.8723 25.1421 62.841 25.5974C63.8097 26.0527 64.5664 26.8628 64.9545 27.8603C65.3427 28.8578 65.3326 29.9663 64.9265 30.9566C64.5203 31.9469 63.7491 32.7432 62.7723 33.1809C59.9778 34.2642 57.2389 35.8753 56.3945 41.7975H63.0723C64.1773 41.7975 65.2371 42.2365 66.0185 43.0179C66.7999 43.7993 67.2389 44.8591 67.2389 45.9642V54.2975Z" fill="#111111"/>
</svg>
