<svg width="19" height="14" viewBox="0 0 19 14" fill="none" xmlns="http://www.w3.org/2000/svg">
<path d="M1.93164 8.85059L2.29199 6.69727H13.1377C13.5537 6.69141 13.9492 6.58887 14.3242 6.38965C14.6992 6.18457 15.0156 5.91211 15.2734 5.57227C15.5371 5.22656 15.7012 4.8457 15.7656 4.42969C15.8359 4.00781 15.7979 3.62695 15.6514 3.28711C15.5049 2.94141 15.2764 2.66602 14.9658 2.46094C14.6611 2.25586 14.2979 2.15332 13.876 2.15332H13.041L13.3926 0H14.2363C15.0508 0 15.7598 0.199219 16.3633 0.597656C16.9668 0.996094 17.4121 1.53223 17.6992 2.20605C17.9863 2.87402 18.0625 3.61523 17.9277 4.42969C17.8281 5.03906 17.6172 5.61035 17.2949 6.14355C16.9785 6.67676 16.583 7.14844 16.1084 7.55859C15.6396 7.96289 15.1182 8.2793 14.5439 8.50781C13.9697 8.73633 13.375 8.85059 12.7598 8.85059H1.93164ZM4.98145 13.7461L-0.00195312 7.76953L6.96777 1.79297L8.20703 3.27832L2.95117 7.76953L6.7041 12.2607L4.98145 13.7461Z" fill="url(#paint0_linear_4175_79600)"/>
<defs>
<linearGradient id="paint0_linear_4175_79600" x1="-1.56363" y1="9.425" x2="20.6649" y2="9.38958" gradientUnits="userSpaceOnUse">
<stop stop-color="#35A1DA"/>
<stop offset="0.25" stop-color="#857BBD"/>
<stop offset="0.5" stop-color="#E8584B"/>
<stop offset="0.75" stop-color="#584F9E"/>
<stop offset="1" stop-color="#CE4C9B"/>
</linearGradient>
</defs>
</svg>
