<svg width="40" height="40" viewBox="0 0 40 40" fill="none" xmlns="http://www.w3.org/2000/svg">
<g clip-path="url(#clip0_3544_79238)">
<path d="M12.0006 36.6172C14.485 34.1329 14.3756 30.0391 11.6803 27.6954C9.3834 25.7032 5.90684 25.7266 3.6334 27.7579C2.32872 28.9219 1.65684 30.5001 1.60216 32.1016C1.56309 33.3829 1.19591 34.625 0.625593 35.7657C-0.140032 37.3047 -0.233782 38.7266 0.516218 39.4766C1.26622 40.2266 2.68809 40.1329 4.22715 39.3672C5.37559 38.7969 6.62559 38.4375 7.90684 38.3907C9.39903 38.3438 10.8678 37.7579 12.0006 36.6172Z" fill="url(#paint0_linear_3544_79238)"/>
<path d="M12.0006 36.6172C14.485 34.1329 14.3756 30.0391 11.6803 27.6954C9.3834 25.7032 5.90684 25.7266 3.6334 27.7579C2.32872 28.9219 1.65684 30.5001 1.60216 32.1016C1.56309 33.3829 1.19591 34.625 0.625593 35.7657C-0.140032 37.3047 -0.233782 38.7266 0.516218 39.4766C1.26622 40.2266 2.68809 40.1329 4.22715 39.3672C5.37559 38.7969 6.62559 38.4375 7.90684 38.3907C9.39903 38.3438 10.8678 37.7579 12.0006 36.6172Z" fill="url(#paint1_linear_3544_79238)"/>
<path d="M12.0006 36.6172C14.485 34.1329 14.3756 30.0391 11.6803 27.6954C9.3834 25.7032 5.90684 25.7266 3.6334 27.7579C2.32872 28.9219 1.65684 30.5001 1.60216 32.1016C1.56309 33.3829 1.19591 34.625 0.625593 35.7657C-0.140032 37.3047 -0.233782 38.7266 0.516218 39.4766C1.26622 40.2266 2.68809 40.1329 4.22715 39.3672C5.37559 38.7969 6.62559 38.4375 7.90684 38.3907C9.39903 38.3438 10.8678 37.7579 12.0006 36.6172Z" fill="url(#paint2_linear_3544_79238)"/>
<path d="M10.518 34.578C11.9868 33.1092 11.9243 30.6952 10.3305 29.3124C8.97116 28.1327 6.91647 28.1483 5.58053 29.3514C4.81491 30.0389 4.40866 30.9764 4.37741 31.9139C4.35397 32.6717 4.13522 33.4061 3.79928 34.078C3.34616 34.9921 3.29147 35.828 3.73678 36.2733C4.18209 36.7186 5.01803 36.6561 5.93209 36.2108C6.61178 35.8749 7.34616 35.6639 8.10397 35.6327C8.97897 35.5936 9.84616 35.2421 10.518 34.578Z" fill="url(#paint3_linear_3544_79238)"/>
<path d="M17.9951 12.2656H3.15131C1.71381 12.2656 0.995061 14.0078 2.01069 15.0234L9.29975 22.3125L17.9951 12.2656Z" fill="url(#paint4_linear_3544_79238)"/>
<path d="M17.9951 12.2656H3.15131C1.71381 12.2656 0.995061 14.0078 2.01069 15.0234L9.29975 22.3125L17.9951 12.2656Z" fill="url(#paint5_linear_3544_79238)"/>
<path d="M27.7383 22.0079V36.8439C27.7383 38.2814 25.9961 39.0001 24.9805 37.9845L17.6914 30.7032L27.7383 22.0079Z" fill="url(#paint6_linear_3544_79238)"/>
<path d="M27.7383 22.0079V36.8439C27.7383 38.2814 25.9961 39.0001 24.9805 37.9845L17.6914 30.7032L27.7383 22.0079Z" fill="url(#paint7_linear_3544_79238)"/>
<path d="M27.7383 22.0079V36.8439C27.7383 38.2814 25.9961 39.0001 24.9805 37.9845L17.6914 30.7032L27.7383 22.0079Z" fill="url(#paint8_linear_3544_79238)"/>
<path d="M27.7383 22.0079V36.8439C27.7383 38.2814 25.9961 39.0001 24.9805 37.9845L17.6914 30.7032L27.7383 22.0079Z" fill="url(#paint9_linear_3544_79238)"/>
<path d="M12.3978 36.0236L3.97592 27.6017C3.70248 27.3282 3.82748 26.8751 4.19467 26.7657L8.7181 25.4845L14.5228 31.2892L13.2415 35.8126C13.1322 36.1798 12.6712 36.297 12.3978 36.0236Z" fill="url(#paint10_linear_3544_79238)"/>
<path d="M12.3978 36.0236L3.97592 27.6017C3.70248 27.3282 3.82748 26.8751 4.19467 26.7657L8.7181 25.4845L14.5228 31.2892L13.2415 35.8126C13.1322 36.1798 12.6712 36.297 12.3978 36.0236Z" fill="url(#paint11_linear_3544_79238)"/>
<path d="M12.3978 36.0236L3.97592 27.6017C3.70248 27.3282 3.82748 26.8751 4.19467 26.7657L8.7181 25.4845L14.5228 31.2892L13.2415 35.8126C13.1322 36.1798 12.6712 36.297 12.3978 36.0236Z" fill="url(#paint12_linear_3544_79238)"/>
<path d="M12.3978 36.0236L3.97592 27.6017C3.70248 27.3282 3.82748 26.8751 4.19467 26.7657L8.7181 25.4845L14.5228 31.2892L13.2415 35.8126C13.1322 36.1798 12.6712 36.297 12.3978 36.0236Z" fill="url(#paint13_linear_3544_79238)"/>
<path d="M11.2344 34.8591L5.14062 28.7654L9.78125 26.5466L13.4531 30.2185L11.2344 34.8591Z" fill="url(#paint14_linear_3544_79238)"/>
<path d="M9.17578 32.797L7.20703 30.8282L11.0273 27.7892L12.2148 28.9767L9.17578 32.797Z" fill="url(#paint15_linear_3544_79238)"/>
<path d="M9.66211 22.7578L17.2559 30.3516C17.5918 30.6875 17.5918 31.2422 17.2559 31.5781L15.7168 33.1172C15.3809 33.4531 14.8262 33.4531 14.4902 33.1172L6.89648 25.5234C6.56055 25.1875 6.56055 24.6328 6.89648 24.2969L8.43555 22.7578C8.77149 22.4141 9.32617 22.4141 9.66211 22.7578Z" fill="url(#paint16_linear_3544_79238)"/>
<path d="M9.66211 22.7578L17.2559 30.3516C17.5918 30.6875 17.5918 31.2422 17.2559 31.5781L15.7168 33.1172C15.3809 33.4531 14.8262 33.4531 14.4902 33.1172L6.89648 25.5234C6.56055 25.1875 6.56055 24.6328 6.89648 24.2969L8.43555 22.7578C8.77149 22.4141 9.32617 22.4141 9.66211 22.7578Z" fill="url(#paint17_linear_3544_79238)"/>
<path d="M9.66211 22.7578L17.2559 30.3516C17.5918 30.6875 17.5918 31.2422 17.2559 31.5781L15.7168 33.1172C15.3809 33.4531 14.8262 33.4531 14.4902 33.1172L6.89648 25.5234C6.56055 25.1875 6.56055 24.6328 6.89648 24.2969L8.43555 22.7578C8.77149 22.4141 9.32617 22.4141 9.66211 22.7578Z" fill="url(#paint18_linear_3544_79238)"/>
<path d="M15.7695 33.0547L17.1914 31.6328C17.5586 31.2656 17.5586 30.6641 17.1914 30.2969L13.1133 26.2188L10.6758 28.3437V29.3125L14.418 33.0547C14.8008 33.4219 15.4023 33.4219 15.7695 33.0547Z" fill="url(#paint19_linear_3544_79238)"/>
<path d="M17.1875 30.2891L13.7266 26.8281L10.9609 29.5937L14.4219 33.0547C14.7891 33.4219 15.3906 33.4219 15.7578 33.0547L17.1797 31.6328C17.5625 31.2578 17.5625 30.6563 17.1875 30.2891Z" fill="url(#paint20_linear_3544_79238)"/>
<path d="M31.5586 20.9686C30.9257 21.6014 30.2695 22.1874 29.5976 22.7343L18.3789 31.7343C17.9257 32.0936 17.2773 32.0624 16.8632 31.6483L8.34761 23.1327C7.94136 22.7264 7.9023 22.0702 8.26168 21.6171L17.2695 10.3983C20.0429 6.96082 23.9804 4.06238 28.8711 2.07019L35.7851 4.21863L37.9336 11.1327C36.332 15.0624 34.1445 18.3749 31.5586 20.9686Z" fill="url(#paint21_linear_3544_79238)"/>
<path d="M37.9336 11.1249L35.7852 4.21863L32.3711 3.15613L10.3711 25.1561L16.8633 31.6483C17.2695 32.0546 17.9258 32.0936 18.3789 31.7343L29.5977 22.7264C30.2773 22.1796 30.9336 21.5936 31.5586 20.9608C34.1445 18.3749 36.332 15.0624 37.9336 11.1249Z" fill="url(#paint22_linear_3544_79238)"/>
<path d="M37.9336 11.1249L35.7852 4.21863L32.3711 3.15613L10.3711 25.1561L16.8633 31.6483C17.2695 32.0546 17.9258 32.0936 18.3789 31.7343L29.5977 22.7264C30.2773 22.1796 30.9336 21.5936 31.5586 20.9608C34.1445 18.3749 36.332 15.0624 37.9336 11.1249Z" fill="url(#paint23_linear_3544_79238)"/>
<path d="M20.7539 13.4141V29.8281L29.5898 22.7344C30.2695 22.1875 30.9258 21.6016 31.5508 20.9688C31.8945 20.625 32.2305 20.2656 32.5664 19.8906V13.3984L20.7539 13.4141Z" fill="url(#paint24_linear_3544_79238)"/>
<path d="M37.9336 11.1329C36.6289 9.64075 35.1523 8.06262 33.5508 6.45325C31.9492 4.84387 30.3633 3.37512 28.8711 2.07043C30.8945 1.25012 33.082 0.578246 35.418 0.0860581C36.7617 -0.195192 38.0273 0.257933 38.8867 1.11731C39.7461 1.97668 40.1992 3.24231 39.918 4.58606C39.4258 6.922 38.7539 9.1095 37.9336 11.1329Z" fill="url(#paint25_linear_3544_79238)"/>
<path d="M37.9297 11.1328C36.625 9.6406 35.1484 8.06248 33.5469 6.4531C32.7813 5.68748 32.0234 4.9531 31.2734 4.24998L35.4453 0.0781008C36.7734 -0.187524 38.0313 0.265601 38.8828 1.11716C39.7422 1.97654 40.1953 3.24216 39.9141 4.58591C39.4219 6.92185 38.75 9.10935 37.9297 11.1328Z" fill="url(#paint26_linear_3544_79238)"/>
<path d="M12.7292 16.0704L8.26827 21.6329C7.90889 22.0861 7.94014 22.7345 8.3542 23.1407L16.8698 31.6564C17.2761 32.0626 17.9323 32.1017 18.3776 31.7423L23.9401 27.2814L12.7292 16.0704Z" fill="url(#paint27_linear_3544_79238)"/>
<path d="M26.6602 19.25C29.9221 19.25 32.5664 16.6057 32.5664 13.3438C32.5664 10.0818 29.9221 7.4375 26.6602 7.4375C23.3982 7.4375 20.7539 10.0818 20.7539 13.3438C20.7539 16.6057 23.3982 19.25 26.6602 19.25Z" fill="url(#paint28_linear_3544_79238)"/>
<path d="M26.6602 18.6013C29.564 18.6013 31.918 16.2473 31.918 13.3435C31.918 10.4397 29.564 8.08569 26.6602 8.08569C23.7563 8.08569 21.4023 10.4397 21.4023 13.3435C21.4023 16.2473 23.7563 18.6013 26.6602 18.6013Z" fill="url(#paint29_linear_3544_79238)"/>
<path d="M22.4902 9.16394C20.1855 11.4686 20.1855 15.2108 22.4902 17.5233C24.7949 19.8358 28.5371 19.828 30.8496 17.5233C31.2637 17.1093 31.6074 16.6405 31.873 16.1483L23.8574 8.1405C23.3652 8.40613 22.9043 8.74207 22.4902 9.16394Z" fill="url(#paint30_linear_3544_79238)"/>
<path d="M30.8438 9.16382C30.3672 8.68726 29.8281 8.31226 29.2578 8.03101L21.3516 15.9294C21.6328 16.4998 22.0078 17.0388 22.4844 17.5154C24.7891 19.8201 28.5312 19.8201 30.8438 17.5154C33.1562 15.2107 33.1562 11.4685 30.8438 9.16382Z" fill="url(#paint31_linear_3544_79238)"/>
<path d="M26.6641 17.8047C29.1278 17.8047 31.125 15.8075 31.125 13.3438C31.125 10.88 29.1278 8.88281 26.6641 8.88281C24.2004 8.88281 22.2031 10.88 22.2031 13.3438C22.2031 15.8075 24.2004 17.8047 26.6641 17.8047Z" fill="url(#paint32_linear_3544_79238)"/>
<path d="M26.6641 17.8047C29.1278 17.8047 31.125 15.8075 31.125 13.3438C31.125 10.88 29.1278 8.88281 26.6641 8.88281C24.2004 8.88281 22.2031 10.88 22.2031 13.3438C22.2031 15.8075 24.2004 17.8047 26.6641 17.8047Z" fill="url(#paint33_linear_3544_79238)"/>
<path d="M26.6641 17.8047C29.1278 17.8047 31.125 15.8075 31.125 13.3438C31.125 10.88 29.1278 8.88281 26.6641 8.88281C24.2004 8.88281 22.2031 10.88 22.2031 13.3438C22.2031 15.8075 24.2004 17.8047 26.6641 17.8047Z" fill="url(#paint34_linear_3544_79238)"/>
<path d="M26.6641 17.8047C29.1278 17.8047 31.125 15.8075 31.125 13.3438C31.125 10.88 29.1278 8.88281 26.6641 8.88281C24.2004 8.88281 22.2031 10.88 22.2031 13.3438C22.2031 15.8075 24.2004 17.8047 26.6641 17.8047Z" fill="url(#paint35_linear_3544_79238)"/>
<path d="M17.8496 17.6874L22.3184 22.1561C22.5762 22.4139 22.5762 22.828 22.3184 23.078L19.0215 26.3749C18.7637 26.6327 18.3496 26.6327 18.0996 26.3749L13.6309 21.9061C13.373 21.6483 13.373 21.2343 13.6309 20.9843L16.9277 17.6874C17.1777 17.4296 17.5918 17.4296 17.8496 17.6874Z" fill="url(#paint36_linear_3544_79238)"/>
<path d="M17.8496 17.6874L22.3184 22.1561C22.5762 22.4139 22.5762 22.828 22.3184 23.078L19.0215 26.3749C18.7637 26.6327 18.3496 26.6327 18.0996 26.3749L13.6309 21.9061C13.373 21.6483 13.373 21.2343 13.6309 20.9843L16.9277 17.6874C17.1777 17.4296 17.5918 17.4296 17.8496 17.6874Z" fill="url(#paint37_linear_3544_79238)"/>
<path d="M17.8496 17.6874L22.3184 22.1561C22.5762 22.4139 22.5762 22.828 22.3184 23.078L19.0215 26.3749C18.7637 26.6327 18.3496 26.6327 18.0996 26.3749L13.6309 21.9061C13.373 21.6483 13.373 21.2343 13.6309 20.9843L16.9277 17.6874C17.1777 17.4296 17.5918 17.4296 17.8496 17.6874Z" fill="url(#paint38_linear_3544_79238)"/>
<path d="M20.1289 30.328V20.1014L12.207 26.9999L16.8555 31.6483C17.2617 32.0546 17.918 32.0936 18.3711 31.7343L20.1289 30.328Z" fill="url(#paint39_linear_3544_79238)"/>
<path d="M18.742 22.3049C19.1561 21.7502 19.5545 21.1799 19.9217 20.5939C20.1327 20.258 20.1717 20.0236 20.078 19.9221C19.9764 19.8205 19.742 19.8596 19.4061 20.0783C18.8202 20.4533 18.2499 20.8439 17.6952 21.258C16.3592 22.258 15.1405 23.3518 14.1249 24.4455L10.828 28.0002C10.6952 28.1408 10.6327 28.2893 10.6795 28.3361L11.6639 29.3205C11.7108 29.3674 11.8592 29.3049 11.9999 29.1721L15.5545 25.8752C15.7655 25.6799 15.9842 25.4689 16.1952 25.258C17.0702 24.3752 17.9374 23.3752 18.742 22.3049Z" fill="url(#paint40_linear_3544_79238)"/>
<path d="M13.3827 25.2502L10.828 28.0002C10.6952 28.1409 10.6327 28.2893 10.6795 28.3362L11.6639 29.3206C11.7108 29.3674 11.8592 29.3049 11.9999 29.1721L14.7499 26.6174L13.3827 25.2502Z" fill="url(#paint41_linear_3544_79238)"/>
</g>
<defs>
<linearGradient id="paint0_linear_3544_79238" x1="4.65843" y1="28.0866" x2="8.3946" y2="39.4943" gradientUnits="userSpaceOnUse">
<stop stop-color="#FEF48B"/>
<stop offset="0.1646" stop-color="#FDF286"/>
<stop offset="0.3352" stop-color="#FDEE7A"/>
<stop offset="0.5086" stop-color="#FCE765"/>
<stop offset="0.6839" stop-color="#FCDE48"/>
<stop offset="0.8589" stop-color="#FBD123"/>
<stop offset="1" stop-color="#FAC600"/>
</linearGradient>
<linearGradient id="paint1_linear_3544_79238" x1="5.51716" y1="34.4793" x2="8.2728" y2="31.7237" gradientUnits="userSpaceOnUse">
<stop stop-color="#FE9738" stop-opacity="0"/>
<stop offset="0.1207" stop-color="#FE9738" stop-opacity="0.016"/>
<stop offset="0.2459" stop-color="#FE9738" stop-opacity="0.065"/>
<stop offset="0.3731" stop-color="#FE9738" stop-opacity="0.147"/>
<stop offset="0.5018" stop-color="#FE9738" stop-opacity="0.262"/>
<stop offset="0.6317" stop-color="#FE9738" stop-opacity="0.41"/>
<stop offset="0.7625" stop-color="#FE9738" stop-opacity="0.59"/>
<stop offset="0.8916" stop-color="#FE9738" stop-opacity="0.8"/>
<stop offset="1" stop-color="#FE9738"/>
</linearGradient>
<linearGradient id="paint2_linear_3544_79238" x1="7.04969" y1="35.7234" x2="7.72223" y2="38.787" gradientUnits="userSpaceOnUse">
<stop stop-color="#FE9738" stop-opacity="0"/>
<stop offset="0.1207" stop-color="#FE9738" stop-opacity="0.016"/>
<stop offset="0.2459" stop-color="#FE9738" stop-opacity="0.065"/>
<stop offset="0.3731" stop-color="#FE9738" stop-opacity="0.147"/>
<stop offset="0.5018" stop-color="#FE9738" stop-opacity="0.262"/>
<stop offset="0.6317" stop-color="#FE9738" stop-opacity="0.41"/>
<stop offset="0.7625" stop-color="#FE9738" stop-opacity="0.59"/>
<stop offset="0.8916" stop-color="#FE9738" stop-opacity="0.8"/>
<stop offset="1" stop-color="#FE9738"/>
</linearGradient>
<linearGradient id="paint3_linear_3544_79238" x1="5.92533" y1="27.2624" x2="8.54063" y2="37.7984" gradientUnits="userSpaceOnUse">
<stop stop-color="#C41926" stop-opacity="0"/>
<stop offset="0.1379" stop-color="#C41926" stop-opacity="0.021"/>
<stop offset="0.2809" stop-color="#C41926" stop-opacity="0.085"/>
<stop offset="0.4263" stop-color="#C41926" stop-opacity="0.191"/>
<stop offset="0.5732" stop-color="#C41926" stop-opacity="0.339"/>
<stop offset="0.7215" stop-color="#C41926" stop-opacity="0.53"/>
<stop offset="0.8686" stop-color="#C41926" stop-opacity="0.761"/>
<stop offset="1" stop-color="#C41926"/>
</linearGradient>
<linearGradient id="paint4_linear_3544_79238" x1="10.2327" y1="11.0378" x2="7.7108" y2="21.4463" gradientUnits="userSpaceOnUse">
<stop stop-color="#60B7FF"/>
<stop offset="0.1892" stop-color="#5EB2FC"/>
<stop offset="0.3853" stop-color="#58A6F6"/>
<stop offset="0.5845" stop-color="#4F91EB"/>
<stop offset="0.7859" stop-color="#4274DD"/>
<stop offset="0.9873" stop-color="#324FCA"/>
<stop offset="1" stop-color="#314DC9"/>
</linearGradient>
<linearGradient id="paint5_linear_3544_79238" x1="6.20423" y1="16.9739" x2="4.67457" y2="18.5036" gradientUnits="userSpaceOnUse">
<stop stop-color="#192A7D" stop-opacity="0"/>
<stop offset="0.1738" stop-color="#192A7D" stop-opacity="0.033"/>
<stop offset="0.354" stop-color="#192A7D" stop-opacity="0.133"/>
<stop offset="0.537" stop-color="#192A7D" stop-opacity="0.299"/>
<stop offset="0.7221" stop-color="#192A7D" stop-opacity="0.531"/>
<stop offset="0.907" stop-color="#192A7D" stop-opacity="0.827"/>
<stop offset="1" stop-color="#192A7D"/>
</linearGradient>
<linearGradient id="paint6_linear_3544_79238" x1="28.9474" y1="29.7516" x2="18.539" y2="32.2735" gradientUnits="userSpaceOnUse">
<stop stop-color="#60B7FF"/>
<stop offset="0.1892" stop-color="#5EB2FC"/>
<stop offset="0.3853" stop-color="#58A6F6"/>
<stop offset="0.5845" stop-color="#4F91EB"/>
<stop offset="0.7859" stop-color="#4274DD"/>
<stop offset="0.9873" stop-color="#324FCA"/>
<stop offset="1" stop-color="#314DC9"/>
</linearGradient>
<linearGradient id="paint7_linear_3544_79238" x1="25.4696" y1="30.0376" x2="22.9018" y2="26.614" gradientUnits="userSpaceOnUse">
<stop stop-color="#192A7D" stop-opacity="0"/>
<stop offset="0.1738" stop-color="#192A7D" stop-opacity="0.033"/>
<stop offset="0.354" stop-color="#192A7D" stop-opacity="0.133"/>
<stop offset="0.537" stop-color="#192A7D" stop-opacity="0.299"/>
<stop offset="0.7221" stop-color="#192A7D" stop-opacity="0.531"/>
<stop offset="0.907" stop-color="#192A7D" stop-opacity="0.827"/>
<stop offset="1" stop-color="#192A7D"/>
</linearGradient>
<linearGradient id="paint8_linear_3544_79238" x1="25.0026" y1="30.0199" x2="29.221" y2="30.509" gradientUnits="userSpaceOnUse">
<stop stop-color="#192A7D" stop-opacity="0"/>
<stop offset="0.1738" stop-color="#192A7D" stop-opacity="0.033"/>
<stop offset="0.354" stop-color="#192A7D" stop-opacity="0.133"/>
<stop offset="0.537" stop-color="#192A7D" stop-opacity="0.299"/>
<stop offset="0.7221" stop-color="#192A7D" stop-opacity="0.531"/>
<stop offset="0.907" stop-color="#192A7D" stop-opacity="0.827"/>
<stop offset="1" stop-color="#192A7D"/>
</linearGradient>
<linearGradient id="paint9_linear_3544_79238" x1="23.0242" y1="33.793" x2="21.4946" y2="35.3227" gradientUnits="userSpaceOnUse">
<stop stop-color="#192A7D" stop-opacity="0"/>
<stop offset="0.1738" stop-color="#192A7D" stop-opacity="0.033"/>
<stop offset="0.354" stop-color="#192A7D" stop-opacity="0.133"/>
<stop offset="0.537" stop-color="#192A7D" stop-opacity="0.299"/>
<stop offset="0.7221" stop-color="#192A7D" stop-opacity="0.531"/>
<stop offset="0.907" stop-color="#192A7D" stop-opacity="0.827"/>
<stop offset="1" stop-color="#192A7D"/>
</linearGradient>
<linearGradient id="paint10_linear_3544_79238" x1="6.44844" y1="26.6504" x2="12.4639" y2="32.6659" gradientUnits="userSpaceOnUse">
<stop stop-color="#7B7179"/>
<stop offset="0.2651" stop-color="#766D74"/>
<stop offset="0.5398" stop-color="#6A6369"/>
<stop offset="0.8179" stop-color="#555255"/>
<stop offset="1" stop-color="#444444"/>
</linearGradient>
<linearGradient id="paint11_linear_3544_79238" x1="9.16442" y1="30.8293" x2="11.0596" y2="28.9342" gradientUnits="userSpaceOnUse">
<stop stop-color="#444444" stop-opacity="0"/>
<stop offset="0.3899" stop-color="#3D3D3D" stop-opacity="0.16"/>
<stop offset="0.7931" stop-color="#292929" stop-opacity="0.637"/>
<stop offset="1" stop-color="#1A1A1A"/>
</linearGradient>
<linearGradient id="paint12_linear_3544_79238" x1="10.5495" y1="30.773" x2="14.5876" y2="32.4798" gradientUnits="userSpaceOnUse">
<stop stop-color="#444444" stop-opacity="0"/>
<stop offset="0.3899" stop-color="#3D3D3D" stop-opacity="0.16"/>
<stop offset="0.7931" stop-color="#292929" stop-opacity="0.637"/>
<stop offset="1" stop-color="#1A1A1A"/>
</linearGradient>
<linearGradient id="paint13_linear_3544_79238" x1="9.49743" y1="30.4963" x2="8.01947" y2="31.9743" gradientUnits="userSpaceOnUse">
<stop stop-color="#444444" stop-opacity="0"/>
<stop offset="0.3899" stop-color="#3D3D3D" stop-opacity="0.16"/>
<stop offset="0.7931" stop-color="#292929" stop-opacity="0.637"/>
<stop offset="1" stop-color="#1A1A1A"/>
</linearGradient>
<linearGradient id="paint14_linear_3544_79238" x1="11.9447" y1="26.3663" x2="7.19905" y2="33.2352" gradientUnits="userSpaceOnUse">
<stop stop-color="#444444" stop-opacity="0"/>
<stop offset="0.3899" stop-color="#3D3D3D" stop-opacity="0.16"/>
<stop offset="0.7931" stop-color="#292929" stop-opacity="0.637"/>
<stop offset="1" stop-color="#1A1A1A"/>
</linearGradient>
<linearGradient id="paint15_linear_3544_79238" x1="11.7935" y1="26.8782" x2="7.71101" y2="32.7873" gradientUnits="userSpaceOnUse">
<stop stop-color="#444444" stop-opacity="0"/>
<stop offset="0.3899" stop-color="#3D3D3D" stop-opacity="0.16"/>
<stop offset="0.7931" stop-color="#292929" stop-opacity="0.637"/>
<stop offset="1" stop-color="#1A1A1A"/>
</linearGradient>
<linearGradient id="paint16_linear_3544_79238" x1="13.5945" y1="26.4056" x2="10.4571" y2="29.543" gradientUnits="userSpaceOnUse">
<stop stop-color="#FE646F"/>
<stop offset="0.236" stop-color="#FC5F6B"/>
<stop offset="0.4805" stop-color="#F7535F"/>
<stop offset="0.7289" stop-color="#EF3E4B"/>
<stop offset="0.9785" stop-color="#E5212F"/>
<stop offset="1" stop-color="#E41F2D"/>
</linearGradient>
<linearGradient id="paint17_linear_3544_79238" x1="11.3764" y1="28.6237" x2="12.845" y2="27.1551" gradientUnits="userSpaceOnUse">
<stop stop-color="#C41926" stop-opacity="0"/>
<stop offset="0.1865" stop-color="#C01926" stop-opacity="0.038"/>
<stop offset="0.3798" stop-color="#B61C26" stop-opacity="0.152"/>
<stop offset="0.5761" stop-color="#A62126" stop-opacity="0.343"/>
<stop offset="0.7747" stop-color="#8F2826" stop-opacity="0.609"/>
<stop offset="0.9732" stop-color="#713126" stop-opacity="0.949"/>
<stop offset="1" stop-color="#6D3326"/>
</linearGradient>
<linearGradient id="paint18_linear_3544_79238" x1="11.6516" y1="28.3486" x2="10.641" y2="29.3591" gradientUnits="userSpaceOnUse">
<stop stop-color="#C41926" stop-opacity="0"/>
<stop offset="0.1865" stop-color="#C01926" stop-opacity="0.038"/>
<stop offset="0.3798" stop-color="#B61C26" stop-opacity="0.152"/>
<stop offset="0.5761" stop-color="#A62126" stop-opacity="0.343"/>
<stop offset="0.7747" stop-color="#8F2826" stop-opacity="0.609"/>
<stop offset="0.9732" stop-color="#713126" stop-opacity="0.949"/>
<stop offset="1" stop-color="#6D3326"/>
</linearGradient>
<linearGradient id="paint19_linear_3544_79238" x1="14.1217" y1="30.4346" x2="13.6632" y2="27.2861" gradientUnits="userSpaceOnUse">
<stop stop-color="#C41926" stop-opacity="0"/>
<stop offset="0.1865" stop-color="#C01926" stop-opacity="0.038"/>
<stop offset="0.3798" stop-color="#B61C26" stop-opacity="0.152"/>
<stop offset="0.5761" stop-color="#A62126" stop-opacity="0.343"/>
<stop offset="0.7747" stop-color="#8F2826" stop-opacity="0.609"/>
<stop offset="0.9732" stop-color="#713126" stop-opacity="0.949"/>
<stop offset="1" stop-color="#6D3326"/>
</linearGradient>
<linearGradient id="paint20_linear_3544_79238" x1="14.3319" y1="30.1979" x2="16.6714" y2="32.5373" gradientUnits="userSpaceOnUse">
<stop stop-color="#C41926" stop-opacity="0"/>
<stop offset="0.1865" stop-color="#C01926" stop-opacity="0.038"/>
<stop offset="0.3798" stop-color="#B61C26" stop-opacity="0.152"/>
<stop offset="0.5761" stop-color="#A62126" stop-opacity="0.343"/>
<stop offset="0.7747" stop-color="#8F2826" stop-opacity="0.609"/>
<stop offset="0.9732" stop-color="#713126" stop-opacity="0.949"/>
<stop offset="1" stop-color="#6D3326"/>
</linearGradient>
<linearGradient id="paint21_linear_3544_79238" x1="20.0185" y1="11.6342" x2="29.94" y2="21.5557" gradientUnits="userSpaceOnUse">
<stop stop-color="#EAF6FF"/>
<stop offset="0.2677" stop-color="#E5F3FC"/>
<stop offset="0.5449" stop-color="#D9EAF6"/>
<stop offset="0.8257" stop-color="#C4DDEB"/>
<stop offset="1" stop-color="#B4D2E2"/>
</linearGradient>
<linearGradient id="paint22_linear_3544_79238" x1="25.1917" y1="17.5592" x2="29.456" y2="23.3366" gradientUnits="userSpaceOnUse">
<stop stop-color="#8D9CA8" stop-opacity="0"/>
<stop offset="0.1493" stop-color="#8D9CA8" stop-opacity="0.025"/>
<stop offset="0.304" stop-color="#8D9CA8" stop-opacity="0.099"/>
<stop offset="0.4613" stop-color="#8D9CA8" stop-opacity="0.222"/>
<stop offset="0.6204" stop-color="#8D9CA8" stop-opacity="0.395"/>
<stop offset="0.7808" stop-color="#8D9CA8" stop-opacity="0.618"/>
<stop offset="0.9402" stop-color="#8D9CA8" stop-opacity="0.887"/>
<stop offset="1" stop-color="#8D9CA8"/>
</linearGradient>
<linearGradient id="paint23_linear_3544_79238" x1="27.7255" y1="18.8459" x2="32.2649" y2="21.7346" gradientUnits="userSpaceOnUse">
<stop stop-color="#8D9CA8" stop-opacity="0"/>
<stop offset="0.1493" stop-color="#8D9CA8" stop-opacity="0.025"/>
<stop offset="0.304" stop-color="#8D9CA8" stop-opacity="0.099"/>
<stop offset="0.4613" stop-color="#8D9CA8" stop-opacity="0.222"/>
<stop offset="0.6204" stop-color="#8D9CA8" stop-opacity="0.395"/>
<stop offset="0.7808" stop-color="#8D9CA8" stop-opacity="0.618"/>
<stop offset="0.9402" stop-color="#8D9CA8" stop-opacity="0.887"/>
<stop offset="1" stop-color="#8D9CA8"/>
</linearGradient>
<linearGradient id="paint24_linear_3544_79238" x1="26.3018" y1="21.7724" x2="26.9437" y2="12.5103" gradientUnits="userSpaceOnUse">
<stop stop-color="#8D9CA8" stop-opacity="0"/>
<stop offset="0.1493" stop-color="#8D9CA8" stop-opacity="0.025"/>
<stop offset="0.304" stop-color="#8D9CA8" stop-opacity="0.099"/>
<stop offset="0.4613" stop-color="#8D9CA8" stop-opacity="0.222"/>
<stop offset="0.6204" stop-color="#8D9CA8" stop-opacity="0.395"/>
<stop offset="0.7808" stop-color="#8D9CA8" stop-opacity="0.618"/>
<stop offset="0.9402" stop-color="#8D9CA8" stop-opacity="0.887"/>
<stop offset="1" stop-color="#8D9CA8"/>
</linearGradient>
<linearGradient id="paint25_linear_3544_79238" x1="33.5535" y1="1.27494" x2="38.6124" y2="6.33381" gradientUnits="userSpaceOnUse">
<stop stop-color="#FE646F"/>
<stop offset="0.236" stop-color="#FC5F6B"/>
<stop offset="0.4805" stop-color="#F7535F"/>
<stop offset="0.7289" stop-color="#EF3E4B"/>
<stop offset="0.9785" stop-color="#E5212F"/>
<stop offset="1" stop-color="#E41F2D"/>
</linearGradient>
<linearGradient id="paint26_linear_3544_79238" x1="36.7036" y1="5.14916" x2="39.9744" y2="6.83044" gradientUnits="userSpaceOnUse">
<stop stop-color="#C41926" stop-opacity="0"/>
<stop offset="0.1865" stop-color="#C01926" stop-opacity="0.038"/>
<stop offset="0.3798" stop-color="#B61C26" stop-opacity="0.152"/>
<stop offset="0.5761" stop-color="#A62126" stop-opacity="0.343"/>
<stop offset="0.7747" stop-color="#8F2826" stop-opacity="0.609"/>
<stop offset="0.9732" stop-color="#713126" stop-opacity="0.949"/>
<stop offset="1" stop-color="#6D3326"/>
</linearGradient>
<linearGradient id="paint27_linear_3544_79238" x1="14.1091" y1="25.8879" x2="12.5959" y2="27.4011" gradientUnits="userSpaceOnUse">
<stop stop-color="#8D9CA8" stop-opacity="0"/>
<stop offset="0.1493" stop-color="#8D9CA8" stop-opacity="0.025"/>
<stop offset="0.304" stop-color="#8D9CA8" stop-opacity="0.099"/>
<stop offset="0.4613" stop-color="#8D9CA8" stop-opacity="0.222"/>
<stop offset="0.6204" stop-color="#8D9CA8" stop-opacity="0.395"/>
<stop offset="0.7808" stop-color="#8D9CA8" stop-opacity="0.618"/>
<stop offset="0.9402" stop-color="#8D9CA8" stop-opacity="0.887"/>
<stop offset="1" stop-color="#8D9CA8"/>
</linearGradient>
<linearGradient id="paint28_linear_3544_79238" x1="26.6567" y1="6.93259" x2="26.6567" y2="19.7835" gradientUnits="userSpaceOnUse">
<stop stop-color="#60B7FF"/>
<stop offset="0.1892" stop-color="#5EB2FC"/>
<stop offset="0.3853" stop-color="#58A6F6"/>
<stop offset="0.5845" stop-color="#4F91EB"/>
<stop offset="0.7859" stop-color="#4274DD"/>
<stop offset="0.9873" stop-color="#324FCA"/>
<stop offset="1" stop-color="#314DC9"/>
</linearGradient>
<linearGradient id="paint29_linear_3544_79238" x1="26.6567" y1="19.0229" x2="26.6567" y2="6.25324" gradientUnits="userSpaceOnUse">
<stop stop-color="#60B7FF"/>
<stop offset="0.1892" stop-color="#5EB2FC"/>
<stop offset="0.3853" stop-color="#58A6F6"/>
<stop offset="0.5845" stop-color="#4F91EB"/>
<stop offset="0.7859" stop-color="#4274DD"/>
<stop offset="0.9873" stop-color="#324FCA"/>
<stop offset="1" stop-color="#314DC9"/>
</linearGradient>
<linearGradient id="paint30_linear_3544_79238" x1="25.8219" y1="14.1781" x2="20.6197" y2="19.3803" gradientUnits="userSpaceOnUse">
<stop stop-color="#192A7D" stop-opacity="0"/>
<stop offset="0.1738" stop-color="#192A7D" stop-opacity="0.033"/>
<stop offset="0.354" stop-color="#192A7D" stop-opacity="0.133"/>
<stop offset="0.537" stop-color="#192A7D" stop-opacity="0.299"/>
<stop offset="0.7221" stop-color="#192A7D" stop-opacity="0.531"/>
<stop offset="0.907" stop-color="#192A7D" stop-opacity="0.827"/>
<stop offset="1" stop-color="#192A7D"/>
</linearGradient>
<linearGradient id="paint31_linear_3544_79238" x1="27.3021" y1="14.3107" x2="31.6829" y2="20.9316" gradientUnits="userSpaceOnUse">
<stop stop-color="#192A7D" stop-opacity="0"/>
<stop offset="0.1738" stop-color="#192A7D" stop-opacity="0.033"/>
<stop offset="0.354" stop-color="#192A7D" stop-opacity="0.133"/>
<stop offset="0.537" stop-color="#192A7D" stop-opacity="0.299"/>
<stop offset="0.7221" stop-color="#192A7D" stop-opacity="0.531"/>
<stop offset="0.907" stop-color="#192A7D" stop-opacity="0.827"/>
<stop offset="1" stop-color="#192A7D"/>
</linearGradient>
<linearGradient id="paint32_linear_3544_79238" x1="26.6606" y1="7.69019" x2="26.6606" y2="17.4268" gradientUnits="userSpaceOnUse">
<stop stop-color="#7B7179"/>
<stop offset="0.2651" stop-color="#766D74"/>
<stop offset="0.5398" stop-color="#6A6369"/>
<stop offset="0.8179" stop-color="#555255"/>
<stop offset="1" stop-color="#444444"/>
</linearGradient>
<linearGradient id="paint33_linear_3544_79238" x1="28.1336" y1="14.8145" x2="22.7229" y2="9.40383" gradientUnits="userSpaceOnUse">
<stop stop-color="#444444" stop-opacity="0"/>
<stop offset="0.3899" stop-color="#3D3D3D" stop-opacity="0.16"/>
<stop offset="0.7931" stop-color="#292929" stop-opacity="0.637"/>
<stop offset="1" stop-color="#1A1A1A"/>
</linearGradient>
<linearGradient id="paint34_linear_3544_79238" x1="26.5172" y1="15.5237" x2="27.0675" y2="7.14812" gradientUnits="userSpaceOnUse">
<stop stop-color="#444444" stop-opacity="0"/>
<stop offset="0.3899" stop-color="#3D3D3D" stop-opacity="0.16"/>
<stop offset="0.7931" stop-color="#292929" stop-opacity="0.637"/>
<stop offset="1" stop-color="#1A1A1A"/>
</linearGradient>
<linearGradient id="paint35_linear_3544_79238" x1="25.6232" y1="14.3789" x2="30.7805" y2="9.22156" gradientUnits="userSpaceOnUse">
<stop stop-color="#444444" stop-opacity="0"/>
<stop offset="0.3899" stop-color="#3D3D3D" stop-opacity="0.16"/>
<stop offset="0.7931" stop-color="#292929" stop-opacity="0.637"/>
<stop offset="1" stop-color="#1A1A1A"/>
</linearGradient>
<linearGradient id="paint36_linear_3544_79238" x1="20.4614" y1="7.85875" x2="17.1421" y2="26.7143" gradientUnits="userSpaceOnUse">
<stop stop-color="#EAF6FF"/>
<stop offset="0.2677" stop-color="#E5F3FC"/>
<stop offset="0.5449" stop-color="#D9EAF6"/>
<stop offset="0.8257" stop-color="#C4DDEB"/>
<stop offset="1" stop-color="#B4D2E2"/>
</linearGradient>
<linearGradient id="paint37_linear_3544_79238" x1="16.7947" y1="23.2053" x2="15.4174" y2="24.5826" gradientUnits="userSpaceOnUse">
<stop stop-color="#8D9CA8" stop-opacity="0"/>
<stop offset="0.1493" stop-color="#8D9CA8" stop-opacity="0.025"/>
<stop offset="0.304" stop-color="#8D9CA8" stop-opacity="0.099"/>
<stop offset="0.4613" stop-color="#8D9CA8" stop-opacity="0.222"/>
<stop offset="0.6204" stop-color="#8D9CA8" stop-opacity="0.395"/>
<stop offset="0.7808" stop-color="#8D9CA8" stop-opacity="0.618"/>
<stop offset="0.9402" stop-color="#8D9CA8" stop-opacity="0.887"/>
<stop offset="1" stop-color="#8D9CA8"/>
</linearGradient>
<linearGradient id="paint38_linear_3544_79238" x1="19.5078" y1="23.5758" x2="21.1381" y2="25.2061" gradientUnits="userSpaceOnUse">
<stop stop-color="#8D9CA8" stop-opacity="0"/>
<stop offset="0.1493" stop-color="#8D9CA8" stop-opacity="0.025"/>
<stop offset="0.304" stop-color="#8D9CA8" stop-opacity="0.099"/>
<stop offset="0.4613" stop-color="#8D9CA8" stop-opacity="0.222"/>
<stop offset="0.6204" stop-color="#8D9CA8" stop-opacity="0.395"/>
<stop offset="0.7808" stop-color="#8D9CA8" stop-opacity="0.618"/>
<stop offset="0.9402" stop-color="#8D9CA8" stop-opacity="0.887"/>
<stop offset="1" stop-color="#8D9CA8"/>
</linearGradient>
<linearGradient id="paint39_linear_3544_79238" x1="19.2163" y1="26.5248" x2="16.0678" y2="23.7125" gradientUnits="userSpaceOnUse">
<stop stop-color="#8D9CA8" stop-opacity="0"/>
<stop offset="0.1493" stop-color="#8D9CA8" stop-opacity="0.025"/>
<stop offset="0.304" stop-color="#8D9CA8" stop-opacity="0.099"/>
<stop offset="0.4613" stop-color="#8D9CA8" stop-opacity="0.222"/>
<stop offset="0.6204" stop-color="#8D9CA8" stop-opacity="0.395"/>
<stop offset="0.7808" stop-color="#8D9CA8" stop-opacity="0.618"/>
<stop offset="0.9402" stop-color="#8D9CA8" stop-opacity="0.887"/>
<stop offset="1" stop-color="#8D9CA8"/>
</linearGradient>
<linearGradient id="paint40_linear_3544_79238" x1="14.8306" y1="23.5856" x2="16.4438" y2="25.1988" gradientUnits="userSpaceOnUse">
<stop stop-color="#60B7FF"/>
<stop offset="0.1892" stop-color="#5EB2FC"/>
<stop offset="0.3853" stop-color="#58A6F6"/>
<stop offset="0.5845" stop-color="#4F91EB"/>
<stop offset="0.7859" stop-color="#4274DD"/>
<stop offset="0.9873" stop-color="#324FCA"/>
<stop offset="1" stop-color="#314DC9"/>
</linearGradient>
<linearGradient id="paint41_linear_3544_79238" x1="12.2264" y1="27.7681" x2="10.9116" y2="29.0828" gradientUnits="userSpaceOnUse">
<stop stop-color="#192A7D" stop-opacity="0"/>
<stop offset="0.1738" stop-color="#192A7D" stop-opacity="0.033"/>
<stop offset="0.354" stop-color="#192A7D" stop-opacity="0.133"/>
<stop offset="0.537" stop-color="#192A7D" stop-opacity="0.299"/>
<stop offset="0.7221" stop-color="#192A7D" stop-opacity="0.531"/>
<stop offset="0.907" stop-color="#192A7D" stop-opacity="0.827"/>
<stop offset="1" stop-color="#192A7D"/>
</linearGradient>
<clipPath id="clip0_3544_79238">
<rect width="40" height="40" fill="white"/>
</clipPath>
</defs>
</svg>
