<svg width="100" height="100" viewBox="0 0 100 100" fill="none" xmlns="http://www.w3.org/2000/svg">
<path d="M23.9533 61.8518C23.9533 67.0463 19.7098 71.2898 14.5156 71.2898C9.32168 71.2898 5.07832 67.0461 5.07832 61.8518C5.07832 56.658 9.32188 52.4147 14.5156 52.4147H23.9533V61.8518Z" fill="#E01E5A"/>
<path d="M28.7098 61.8518C28.7098 56.658 32.9535 52.4147 38.1475 52.4147C43.3414 52.4147 47.585 56.6582 47.585 61.8518V85.4842C47.585 90.6779 43.3412 94.9215 38.1475 94.9215C32.9533 94.9215 28.7098 90.6777 28.7098 85.4842V61.8518Z" fill="#E01E5A"/>
<path d="M38.1475 23.9535C32.9533 23.9535 28.7098 19.7098 28.7098 14.5158C28.7098 9.32188 32.9535 5.07832 38.1475 5.07832C43.3414 5.07832 47.585 9.32207 47.585 14.5158V23.9535H38.1475Z" fill="#36C5F0"/>
<path d="M38.1475 28.7102C43.3414 28.7102 47.585 32.9537 47.585 38.1478C47.585 43.3418 43.3412 47.585 38.1475 47.585H14.5154C9.32148 47.585 5.07812 43.3416 5.07812 38.1478C5.07812 32.9535 9.32168 28.7102 14.5154 28.7102H38.1475Z" fill="#36C5F0"/>
<path d="M76.0463 38.1478C76.0463 32.9535 80.2895 28.7102 85.4838 28.7102C90.6777 28.7102 94.9209 32.9537 94.9209 38.1478C94.9209 43.3418 90.6775 47.585 85.4838 47.585H76.0463V38.1478Z" fill="#2EB67D"/>
<path d="M71.2895 38.1479C71.2895 43.3418 67.0457 47.585 61.8518 47.585C56.6578 47.585 52.4143 43.3416 52.4143 38.1479V14.5156C52.4143 9.32168 56.658 5.07812 61.8518 5.07812C67.0459 5.07812 71.2895 9.32188 71.2895 14.5156V38.1479Z" fill="#2EB67D"/>
<path d="M61.8518 76.0463C67.0459 76.0463 71.2895 80.2898 71.2895 85.484C71.2895 90.6777 67.0457 94.9213 61.8518 94.9213C56.6578 94.9213 52.4143 90.6775 52.4143 85.484V76.0463H61.8518Z" fill="#ECB22E"/>
<path d="M61.8518 71.2898C56.6578 71.2898 52.4143 67.0461 52.4143 61.8518C52.4143 56.658 56.658 52.4147 61.8518 52.4147H85.484C90.6779 52.4147 94.9211 56.6582 94.9211 61.8518C94.9211 67.0463 90.6777 71.2898 85.484 71.2898H61.8518Z" fill="#ECB22E"/>
</svg>
