<svg width="34" height="33" viewBox="0 0 34 33" fill="none" xmlns="http://www.w3.org/2000/svg">
<path d="M10.77 18.8044C10.1453 18.8643 9.53694 18.5748 9.20645 18.069L6.28431 13.5435L1.06174 11.6728C0.477296 11.46 0.0631059 10.9465 0.00606794 10.3512C-0.05097 9.75601 0.258151 9.17311 0.791556 8.85327L5.56383 6.0248L7.57336 1.02668C7.80179 0.467325 8.34413 0.0675843 8.96881 0.00772435C9.59349 -0.0521356 10.2019 0.237337 10.5324 0.74313L13.4545 5.26867L18.6771 7.13938C19.2615 7.35211 19.6757 7.86569 19.7327 8.46092C19.7898 9.05615 19.4807 9.63904 18.9473 9.95889L14.175 12.7874L12.1655 17.7855C11.937 18.3448 11.3947 18.7446 10.77 18.8044ZM5.36515 9.8377L7.99288 10.7715C8.33666 10.8966 8.6237 11.122 8.80017 11.4055L10.2792 13.6823L11.2824 11.1676C11.4168 10.8386 11.6558 10.5627 11.9546 10.3918L14.3572 8.97603L11.7295 8.04225C11.3857 7.91712 11.0987 7.6917 10.9222 7.40826L9.45963 5.12983L8.43993 7.64613C8.30556 7.97516 8.06656 8.25098 7.76773 8.42189L5.36515 9.8377ZM17.0526 32.4294C16.4279 32.4892 15.8195 32.1998 15.489 31.694L13.5225 28.6576L10.0173 27.3969C9.43291 27.1842 9.01872 26.6706 8.96168 26.0754C8.90464 25.4802 9.21376 24.8973 9.74717 24.5774L12.9491 22.674L14.3032 19.3195C14.5317 18.7601 15.074 18.3604 15.6987 18.3005C16.3234 18.2407 16.9317 18.5301 17.2622 19.0359L19.2288 22.0723L22.7339 23.333C23.3183 23.5457 23.7325 24.0593 23.7896 24.6545C23.8466 25.2497 23.5375 25.8326 23.0041 26.1525L19.8021 28.0559L18.448 31.4104C18.2196 31.9698 17.6773 32.3695 17.0526 32.4294ZM14.3387 25.5759L15.249 25.8997C15.5928 26.0249 15.8798 26.2503 16.0563 26.5337L16.5632 27.3229L16.9111 26.4518C17.0455 26.1228 17.2845 25.8469 17.5833 25.676L18.4155 25.1853L17.5053 24.8615C17.1615 24.7364 16.8744 24.511 16.698 24.2275L16.191 23.4383L15.8431 24.3094C15.7088 24.6385 15.4698 24.9143 15.1709 25.0852L14.3387 25.5759ZM26.7622 21.2239C26.1375 21.2838 25.5291 20.9943 25.1987 20.4885L23.2321 17.4522L19.727 16.1915C19.1425 15.9787 18.7284 15.4652 18.6713 14.8699C18.6143 14.2747 18.9234 13.6918 19.4568 13.372L22.6587 11.4686L24.0129 8.11401C24.2413 7.55466 24.7836 7.15492 25.4083 7.09506C26.033 7.0352 26.6414 7.32467 26.9719 7.83046L28.9384 10.8668L32.4435 12.1275C33.028 12.3402 33.4422 12.8538 33.4992 13.449C33.5562 14.0443 33.2471 14.6272 32.7137 14.947L29.5118 16.8504L28.1577 20.205C27.9292 20.7643 27.3869 21.1641 26.7622 21.2239ZM24.0483 14.3705L24.9586 14.6943C25.3024 14.8194 25.5895 15.0448 25.7659 15.3282L26.2729 16.1175L26.6207 15.2463C26.7551 14.9173 26.9941 14.6415 27.2929 14.4706L28.1252 13.9798L27.2149 13.656C26.8711 13.5309 26.5841 13.3055 26.4076 13.0221L25.9006 12.2328L25.5528 13.104C25.4184 13.433 25.1794 13.7088 24.8806 13.8797L24.0483 14.3705Z" fill="white" fill-opacity="0.95"/>
<path d="M5.36515 9.8377L7.99288 10.7715C8.33666 10.8966 8.6237 11.122 8.80017 11.4055L10.2792 13.6823L11.2824 11.1676C11.4168 10.8386 11.6558 10.5627 11.9546 10.3918L14.3572 8.97603L11.7295 8.04225C11.3857 7.91712 11.0987 7.6917 10.9222 7.40826L9.45963 5.12983L8.43993 7.64613C8.30556 7.97516 8.06656 8.25098 7.76773 8.42189L5.36515 9.8377Z" fill="white" fill-opacity="0.95"/>
<path d="M14.3387 25.5759L15.249 25.8997C15.5928 26.0249 15.8798 26.2503 16.0563 26.5337L16.5632 27.3229L16.9111 26.4518C17.0455 26.1228 17.2845 25.8469 17.5833 25.676L18.4155 25.1853L17.5053 24.8615C17.1615 24.7364 16.8744 24.511 16.698 24.2275L16.191 23.4383L15.8431 24.3094C15.7088 24.6385 15.4698 24.9143 15.1709 25.0852L14.3387 25.5759Z" fill="white" fill-opacity="0.95"/>
<path d="M24.0483 14.3705L24.9586 14.6943C25.3024 14.8194 25.5895 15.0448 25.7659 15.3282L26.2729 16.1175L26.6207 15.2463C26.7551 14.9173 26.9941 14.6415 27.2929 14.4706L28.1252 13.9798L27.2149 13.656C26.8711 13.5309 26.5841 13.3055 26.4076 13.0221L25.9006 12.2328L25.5528 13.104C25.4184 13.433 25.1794 13.7088 24.8806 13.8797L24.0483 14.3705Z" fill="white" fill-opacity="0.95"/>
</svg>
