<svg width="30" height="30" viewBox="0 0 30 30" fill="none" xmlns="http://www.w3.org/2000/svg">
<g clip-path="url(#clip0_5761_79981)">
<path fill-rule="evenodd" clip-rule="evenodd" d="M15 0C23.2843 0 30 6.71572 30 15C30 23.2843 23.2843 30 15 30C6.71572 30 0 23.2843 0 15C0 6.71572 6.71572 0 15 0Z" fill="black"/>
<path d="M18.6694 9.23145H20.6265L16.3507 14.1186L21.381 20.7687H17.4422L14.3574 16.7353L10.8276 20.7687H8.86926L13.4426 15.5414L8.61719 9.23145H12.6557L15.4442 12.918L18.6694 9.23145ZM17.9825 19.5971H19.067L12.0665 10.3414H10.9028L17.9825 19.5971Z" fill="white"/>
</g>
<defs>
<clipPath id="clip0_5761_79981">
<rect width="30" height="30" fill="white"/>
</clipPath>
</defs>
</svg>
