<svg width="28" height="26" viewBox="0 0 28 26" fill="none" xmlns="http://www.w3.org/2000/svg">
<path d="M17.5 23.5C19.3 17.983 21.289 15.9925 26.5 14.5C21.289 13.0075 19.3 11.017 17.5 5.5C15.7 11.017 13.711 13.0075 8.5 14.5C13.711 15.9925 15.7 17.983 17.5 23.5ZM5.5 10C6.4 7.24 7.3945 6.2455 10 5.5C7.3945 4.7545 6.4 3.76 5.5 1C4.6 3.76 3.6055 4.7545 1 5.5C3.6055 6.2455 4.6 7.24 5.5 10ZM7.75 25C8.2 23.62 8.6965 23.1235 10 22.75C8.6965 22.3765 8.2 21.88 7.75 20.5C7.3 21.88 6.8035 22.3765 5.5 22.75C6.8035 23.1235 7.3 23.62 7.75 25Z" stroke="white" stroke-width="2" stroke-linejoin="round"/>
</svg>
