<svg width="46" height="46" viewBox="0 0 46 46" fill="none" xmlns="http://www.w3.org/2000/svg">
<g clip-path="url(#clip0_3544_79291)">
<path d="M2.91016 31.7484V14.2515C2.91016 12.4882 3.85082 10.859 5.3778 9.97735L20.5313 1.22837C22.0584 0.34673 23.9397 0.34673 25.4668 1.22837L40.6203 9.97735C42.1473 10.859 43.0879 12.4883 43.0879 14.2515V31.7485C43.0879 33.5117 42.1473 35.141 40.6203 36.0226L25.4668 44.7716C23.9397 45.6532 22.0584 45.6532 20.5313 44.7716L5.3778 36.0226C3.85082 35.141 2.91016 33.5116 2.91016 31.7484Z" fill="#F78721"/>
<path opacity="0.12" d="M43.0875 14.2497V31.7507C43.0875 33.5127 42.1498 35.1413 40.6197 36.0247L25.4681 44.7702C23.9431 45.6536 22.0577 45.6536 20.5327 44.7702L5.38103 36.0247C5.2132 35.9309 5.05535 35.8224 4.90234 35.7088C5.31203 35.7236 5.72163 35.7335 6.13617 35.7335C21.8505 35.7335 34.5888 23.0002 34.5888 7.28576C34.5888 7.01928 34.5838 6.75271 34.5789 6.48633L40.6198 9.97559C42.1498 10.859 43.0875 12.4877 43.0875 14.2497Z" fill="black"/>
<path d="M9.38672 30.8577V15.1422L22.9971 7.28418L36.6076 15.1422V30.8577L22.9971 38.7157L9.38672 30.8577Z" fill="#E8F1F8"/>
<path d="M29.6345 24.8757L22.1691 30.1206C20.65 31.1878 18.5586 30.1011 18.5586 28.2447V17.7549C18.5586 15.8984 20.65 14.8118 22.1691 15.8791L29.6345 21.124C30.934 22.0369 30.934 23.9627 29.6345 24.8757Z" fill="#F14F4A"/>
</g>
<defs>
<clipPath id="clip0_3544_79291">
<rect width="46" height="46" fill="white"/>
</clipPath>
</defs>
</svg>
