<svg width="49" height="48" viewBox="0 0 49 48" fill="none" xmlns="http://www.w3.org/2000/svg">
<g clip-path="url(#clip0_2673_77775)">
<path d="M1.52516 23.7126C1.52403 27.7455 2.58603 31.6834 4.60541 35.1543L1.33203 47.0132L13.563 43.8311C16.946 45.6584 20.7363 46.6159 24.588 46.6162H24.5982C37.3135 46.6162 47.664 36.3496 47.6695 23.7306C47.6719 17.6158 45.2742 11.8659 40.9178 7.53994C36.5622 3.21436 30.7693 0.830916 24.5972 0.828125C11.8804 0.828125 1.53059 11.0942 1.52534 23.7126" fill="url(#paint0_linear_2673_77775)"/>
<path d="M0.700625 23.7053C0.699313 27.8833 1.79937 31.962 3.89075 35.5572L0.5 47.8413L13.1696 44.5451C16.6604 46.4337 20.5908 47.4294 24.5902 47.4309H24.6005C37.772 47.4309 48.4944 36.795 48.5 23.7243C48.5023 17.3898 46.0182 11.4331 41.5062 6.95219C36.9937 2.47181 30.9937 0.00260465 24.6005 0C11.4267 0 0.705875 10.6344 0.700625 23.7053ZM8.24581 34.938L7.77275 34.1929C5.78412 31.0554 4.7345 27.4298 4.736 23.7068C4.74012 12.8426 13.6509 4.00372 24.608 4.00372C29.9143 4.00595 34.901 6.05842 38.6517 9.78233C42.4023 13.5066 44.4661 18.4573 44.4648 23.7228C44.4599 34.587 35.549 43.427 24.6005 43.427H24.5926C21.0277 43.4251 17.5314 42.4752 14.4822 40.68L13.7566 40.253L6.23825 42.2089L8.24581 34.938Z" fill="url(#paint1_linear_2673_77775)"/>
<path d="M18.6277 13.7949C18.1803 12.8083 17.7095 12.7884 17.284 12.7711C16.9357 12.7562 16.5374 12.7573 16.1395 12.7573C15.7413 12.7573 15.0942 12.906 14.5473 13.4986C13.9998 14.0917 12.457 15.525 12.457 18.4401C12.457 21.3553 14.597 24.1728 14.8953 24.5685C15.194 24.9635 19.0265 31.1372 25.0962 33.5123C30.1407 35.4861 31.1673 35.0935 32.2621 34.9946C33.3571 34.8959 35.7953 33.5616 36.2928 32.178C36.7906 30.7946 36.7906 29.6087 36.6413 29.3609C36.4921 29.114 36.0938 28.9657 35.4967 28.6695C34.8995 28.3733 31.9634 26.9397 31.4161 26.7419C30.8686 26.5443 30.4705 26.4457 30.0723 27.039C29.674 27.6314 28.5305 28.9657 28.1819 29.3609C27.8337 29.757 27.4852 29.8063 26.8882 29.5099C26.2906 29.2126 24.3674 28.5877 22.0857 26.5692C20.3105 24.9986 19.112 23.0591 18.7636 22.4658C18.4152 21.8734 18.7263 21.5523 19.0257 21.2571C19.294 20.9916 19.6231 20.5652 19.922 20.2193C20.2197 19.8733 20.3191 19.6264 20.5182 19.2312C20.7175 18.8357 20.6178 18.4896 20.4687 18.1933C20.3191 17.8969 19.1587 14.9665 18.6277 13.7949Z" fill="white"/>
</g>
<defs>
<linearGradient id="paint0_linear_2673_77775" x1="2318.2" y1="4619.34" x2="2318.2" y2="0.828125" gradientUnits="userSpaceOnUse">
<stop stop-color="#1FAF38"/>
<stop offset="1" stop-color="#60D669"/>
</linearGradient>
<linearGradient id="paint1_linear_2673_77775" x1="2400.5" y1="4784.13" x2="2400.5" y2="0" gradientUnits="userSpaceOnUse">
<stop stop-color="#F9F9F9"/>
<stop offset="1" stop-color="white"/>
</linearGradient>
<clipPath id="clip0_2673_77775">
<rect width="48" height="48" fill="white" transform="translate(0.5)"/>
</clipPath>
</defs>
</svg>
